Coda Normal-Bold.ufo
<glyph name="exclam" format="1">
  <advance width="646"/>
  <unicode hex="0021"/>
  <outline>
    <contour>
      <point x="322" y="512" type="curve" smooth="yes"/>
      <point x="339" y="512"/>
      <point x="356" y="524"/>
      <point x="362" y="560" type="curve" smooth="yes"/>
      <point x="407" y="902"/>
      <point x="483" y="1339"/>
      <point x="483" y="1416" type="curve" smooth="yes"/>
      <point x="483" y="1526"/>
      <point x="420" y="1582"/>
      <point x="321" y="1582" type="curve" smooth="yes"/>
      <point x="223" y="1582"/>
      <point x="163" y="1528"/>
      <point x="163" y="1416" type="curve" smooth="yes"/>
      <point x="163" y="1342"/>
      <point x="235" y="904"/>
      <point x="282" y="560" type="curve" smooth="yes"/>
      <point x="288" y="523"/>
      <point x="305" y="512"/>
    </contour>
    <contour>
      <point x="324" y="-27" type="curve" smooth="yes"/>
      <point x="405" y="-27"/>
      <point x="485" y="28"/>
      <point x="485" y="142" type="curve" smooth="yes"/>
      <point x="485" y="254"/>
      <point x="402" y="311"/>
      <point x="320" y="311" type="curve" smooth="yes"/>
      <point x="240" y="311"/>
      <point x="160" y="256"/>
      <point x="160" y="142" type="curve" smooth="yes"/>
      <point x="160" y="30"/>
      <point x="242" y="-27"/>
    </contour>
  </outline>
</glyph>
<glyph name="quotedbl" format="1">
  <advance width="909"/>
  <unicode hex="0022"/>
  <outline>
    <contour>
      <point x="271" y="895" type="curve"/>
      <point x="278" y="895"/>
      <point x="295" y="900"/>
      <point x="298" y="914" type="curve"/>
      <point x="314" y="980"/>
      <point x="394" y="1312"/>
      <point x="394" y="1404" type="curve" smooth="yes"/>
      <point x="394" y="1498"/>
      <point x="340" y="1545"/>
      <point x="269" y="1545" type="curve" smooth="yes"/>
      <point x="189" y="1545"/>
      <point x="148" y="1499"/>
      <point x="148" y="1395" type="curve" smooth="yes"/>
      <point x="148" y="1307"/>
      <point x="227" y="985"/>
      <point x="243" y="917" type="curve"/>
      <point x="247" y="903"/>
      <point x="263" y="895"/>
    </contour>
    <contour>
      <point x="646" y="895" type="curve"/>
      <point x="653" y="895"/>
      <point x="669" y="900"/>
      <point x="673" y="914" type="curve"/>
      <point x="688" y="980"/>
      <point x="768" y="1312"/>
      <point x="768" y="1404" type="curve" smooth="yes"/>
      <point x="768" y="1498"/>
      <point x="715" y="1545"/>
      <point x="644" y="1545" type="curve" smooth="yes"/>
      <point x="564" y="1545"/>
      <point x="523" y="1499"/>
      <point x="523" y="1395" type="curve" smooth="yes"/>
      <point x="523" y="1307"/>
      <point x="602" y="985"/>
      <point x="618" y="917" type="curve"/>
      <point x="622" y="903"/>
      <point x="638" y="895"/>
    </contour>
  </outline>
</glyph>
<glyph name="numbersign" format="1">
  <advance width="1663"/>
  <unicode hex="0023"/>
  <outline>
    <contour>
      <point x="269" y="0" type="line"/>
      <point x="569" y="0" type="line"/>
      <point x="636" y="415" type="line"/>
      <point x="915" y="415" type="line"/>
      <point x="848" y="0" type="line"/>
      <point x="1148" y="0" type="line"/>
      <point x="1214" y="415" type="line"/>
      <point x="1449" y="415" type="line"/>
      <point x="1474" y="584" type="line"/>
      <point x="1240" y="584" type="line"/>
      <point x="1302" y="975" type="line"/>
      <point x="1531" y="975" type="line"/>
      <point x="1557" y="1157" type="line"/>
      <point x="1332" y="1157" type="line"/>
      <point x="1389" y="1530" type="line"/>
      <point x="1091" y="1530" type="line"/>
      <point x="1032" y="1157" type="line"/>
      <point x="757" y="1157" type="line"/>
      <point x="816" y="1530" type="line"/>
      <point x="514" y="1530" type="line"/>
      <point x="454" y="1157" type="line"/>
      <point x="227" y="1157" type="line"/>
      <point x="199" y="974" type="line"/>
      <point x="423" y="974" type="line"/>
      <point x="362" y="584" type="line"/>
      <point x="140" y="584" type="line"/>
      <point x="113" y="415" type="line"/>
      <point x="334" y="415" type="line"/>
    </contour>
    <contour>
      <point x="664" y="584" type="line"/>
      <point x="727" y="974" type="line"/>
      <point x="1002" y="974" type="line"/>
      <point x="941" y="584" type="line"/>
    </contour>
  </outline>
</glyph>
<glyph name="dollar" format="1">
  <advance width="1313"/>
  <unicode hex="0024"/>
  <outline>
    <contour>
      <point x="680" y="74" type="line"/>
      <point x="680" y="-241" type="line"/>
      <point x="789" y="-241" type="line"/>
      <point x="789" y="74" type="line"/>
    </contour>
    <contour>
      <point x="680" y="1768" type="line"/>
      <point x="680" y="1453" type="line"/>
      <point x="789" y="1453" type="line"/>
      <point x="789" y="1768" type="line"/>
    </contour>
    <component base="S"/>
  </outline>
</glyph>
<glyph name="percent" format="1">
  <advance width="2739"/>
  <unicode hex="0025"/>
  <outline>
    <contour>
      <point x="607" y="793" type="curve" smooth="yes"/>
      <point x="549" y="793"/>
      <point x="514" y="798"/>
      <point x="514" y="867" type="curve" smooth="yes"/>
      <point x="514" y="881"/>
      <point x="514" y="1257"/>
      <point x="514" y="1276" type="curve" smooth="yes"/>
      <point x="514" y="1354"/>
      <point x="550" y="1354"/>
      <point x="612" y="1354" type="curve" smooth="yes"/>
      <point x="678" y="1354"/>
      <point x="709" y="1353"/>
      <point x="709" y="1275" type="curve" smooth="yes"/>
      <point x="709" y="866" type="line" smooth="yes"/>
      <point x="709" y="798"/>
      <point x="674" y="793"/>
    </contour>
    <contour>
      <point x="610" y="606" type="curve" smooth="yes"/>
      <point x="846" y="606"/>
      <point x="1027" y="637"/>
      <point x="1027" y="918" type="curve" smooth="yes"/>
      <point x="1027" y="949"/>
      <point x="1027" y="1212"/>
      <point x="1026" y="1233" type="curve" smooth="yes"/>
      <point x="1021" y="1508"/>
      <point x="848" y="1542"/>
      <point x="610" y="1542" type="curve" smooth="yes"/>
      <point x="377" y="1542"/>
      <point x="195" y="1509"/>
      <point x="195" y="1231" type="curve" smooth="yes"/>
      <point x="195" y="1201"/>
      <point x="196" y="939"/>
      <point x="197" y="918" type="curve" smooth="yes"/>
      <point x="201" y="631"/>
      <point x="368" y="606"/>
    </contour>
    <contour>
      <point x="2125" y="330" type="curve" smooth="yes"/>
      <point x="2067" y="330"/>
      <point x="2033" y="335"/>
      <point x="2033" y="404" type="curve" smooth="yes"/>
      <point x="2033" y="418"/>
      <point x="2033" y="794"/>
      <point x="2033" y="813" type="curve" smooth="yes"/>
      <point x="2033" y="891"/>
      <point x="2068" y="891"/>
      <point x="2130" y="891" type="curve" smooth="yes"/>
      <point x="2196" y="891"/>
      <point x="2227" y="890"/>
      <point x="2227" y="812" type="curve" smooth="yes"/>
      <point x="2227" y="403" type="line" smooth="yes"/>
      <point x="2227" y="335"/>
      <point x="2192" y="330"/>
    </contour>
    <contour>
      <point x="2129" y="142" type="curve" smooth="yes"/>
      <point x="2363" y="142"/>
      <point x="2545" y="181"/>
      <point x="2545" y="455" type="curve" smooth="yes"/>
      <point x="2545" y="484"/>
      <point x="2545" y="745"/>
      <point x="2544" y="766" type="curve" smooth="yes"/>
      <point x="2540" y="1045"/>
      <point x="2369" y="1079"/>
      <point x="2128" y="1079" type="curve" smooth="yes"/>
      <point x="1894" y="1079"/>
      <point x="1714" y="1046"/>
      <point x="1714" y="767" type="curve" smooth="yes"/>
      <point x="1714" y="737"/>
      <point x="1714" y="477"/>
      <point x="1715" y="456" type="curve" smooth="yes"/>
      <point x="1719" y="175"/>
      <point x="1887" y="142"/>
    </contour>
    <contour>
      <point x="1025" y="-25" type="line"/>
      <point x="1339" y="-25" type="line"/>
      <point x="1717" y="1612" type="line"/>
      <point x="1405" y="1612" type="line"/>
    </contour>
  </outline>
</glyph>
<glyph name="ampersand" format="1">
  <advance width="1580"/>
  <unicode hex="0026"/>
  <outline>
    <contour>
      <point x="730" y="-23" type="curve" smooth="yes"/>
      <point x="1208" y="-23"/>
      <point x="1319" y="88"/>
      <point x="1319" y="432" type="curve" smooth="yes"/>
      <point x="1318" y="730" type="line"/>
      <point x="1458" y="730" type="line"/>
      <point x="1458" y="881" type="line"/>
      <point x="1319" y="881" type="line"/>
      <point x="1319" y="1002" type="line"/>
      <point x="998" y="1002" type="line"/>
      <point x="998" y="881" type="line"/>
      <point x="660" y="881" type="line" smooth="yes"/>
      <point x="606" y="881"/>
      <point x="534" y="907"/>
      <point x="531" y="1047" type="curve" smooth="yes"/>
      <point x="531" y="1234" type="line" smooth="yes"/>
      <point x="531" y="1333"/>
      <point x="616" y="1365"/>
      <point x="760" y="1365" type="curve" smooth="yes"/>
      <point x="851" y="1365"/>
      <point x="942" y="1362"/>
      <point x="970" y="1347" type="curve" smooth="yes"/>
      <point x="998" y="1332"/>
      <point x="1002" y="1242"/>
      <point x="1005" y="1193" type="curve"/>
      <point x="1307" y="1210" type="line"/>
      <point x="1307" y="1287" type="line" smooth="yes"/>
      <point x="1307" y="1506"/>
      <point x="1124" y="1558"/>
      <point x="766" y="1558" type="curve" smooth="yes"/>
      <point x="373" y="1558"/>
      <point x="180" y="1487"/>
      <point x="180" y="1165" type="curve" smooth="yes"/>
      <point x="180" y="1001"/>
      <point x="232" y="913"/>
      <point x="289" y="873" type="curve" smooth="yes"/>
      <point x="299" y="862"/>
      <point x="365" y="845"/>
      <point x="378" y="839" type="curve"/>
      <point x="378" y="828" type="line"/>
      <point x="361" y="824"/>
      <point x="302" y="810"/>
      <point x="288" y="800" type="curve" smooth="yes"/>
      <point x="187" y="755"/>
      <point x="141" y="589"/>
      <point x="141" y="417" type="curve" smooth="yes"/>
      <point x="141" y="77"/>
      <point x="346" y="-23"/>
    </contour>
    <contour>
      <point x="740" y="178" type="curve" smooth="yes"/>
      <point x="574" y="178"/>
      <point x="492" y="225"/>
      <point x="492" y="329" type="curve" smooth="yes"/>
      <point x="492" y="468"/>
      <point x="494" y="730"/>
      <point x="585" y="730" type="curve" smooth="yes"/>
      <point x="998" y="730" type="line"/>
      <point x="998" y="313" type="line" smooth="yes"/>
      <point x="998" y="223"/>
      <point x="940" y="178"/>
    </contour>
  </outline>
</glyph>
<glyph name="quotesingle" format="1">
  <advance width="627"/>
  <unicode hex="0027"/>
  <outline>
    <contour>
      <point x="342" y="913" type="curve"/>
      <point x="359" y="985"/>
      <point x="440" y="1314"/>
      <point x="440" y="1406" type="curve" smooth="yes"/>
      <point x="440" y="1501"/>
      <point x="384" y="1549"/>
      <point x="312" y="1549" type="curve" smooth="yes"/>
      <point x="231" y="1549"/>
      <point x="188" y="1503"/>
      <point x="188" y="1398" type="curve" smooth="yes"/>
      <point x="188" y="1309"/>
      <point x="268" y="990"/>
      <point x="285" y="916" type="curve"/>
      <point x="289" y="901"/>
      <point x="305" y="892"/>
      <point x="314" y="892" type="curve"/>
      <point x="322" y="892"/>
      <point x="339" y="898"/>
    </contour>
  </outline>
</glyph>
<glyph name="parenleft" format="1">
  <advance width="953"/>
  <unicode hex="0028"/>
  <outline>
    <contour>
      <point x="782" y="-208" type="curve"/>
      <point x="792" y="-21" type="line"/>
      <point x="538" y="5"/>
      <point x="449" y="333"/>
      <point x="449" y="763" type="curve" smooth="yes"/>
      <point x="449" y="1193"/>
      <point x="538" y="1526"/>
      <point x="792" y="1553" type="curve"/>
      <point x="782" y="1740" type="line"/>
      <point x="341" y="1718"/>
      <point x="184" y="1270"/>
      <point x="184" y="763" type="curve" smooth="yes"/>
      <point x="184" y="255"/>
      <point x="341" y="-186"/>
    </contour>
  </outline>
</glyph>
<glyph name="parenright" format="1">
  <advance width="966"/>
  <unicode hex="0029"/>
  <outline>
    <contour>
      <point x="175" y="-206" type="line"/>
      <point x="619" y="-185"/>
      <point x="778" y="260"/>
      <point x="778" y="766" type="curve"/>
      <point x="778" y="1273"/>
      <point x="619" y="1723"/>
      <point x="175" y="1744" type="curve"/>
      <point x="166" y="1553" type="line"/>
      <point x="418" y="1528"/>
      <point x="507" y="1192"/>
      <point x="507" y="766" type="curve" smooth="yes"/>
      <point x="507" y="339"/>
      <point x="418" y="10"/>
      <point x="166" y="-15" type="curve"/>
    </contour>
  </outline>
</glyph>
<glyph name="asterisk" format="1">
  <advance width="1256"/>
  <unicode hex="002A"/>
  <outline>
    <contour>
      <point x="434" y="524" type="curve" smooth="yes"/>
      <point x="536" y="524"/>
      <point x="555" y="673"/>
      <point x="627" y="936" type="curve"/>
      <point x="661" y="801"/>
      <point x="698" y="636"/>
      <point x="747" y="567" type="curve" smooth="yes"/>
      <point x="813" y="471"/>
      <point x="938" y="545"/>
      <point x="938" y="635" type="curve" smooth="yes"/>
      <point x="938" y="686"/>
      <point x="836" y="796"/>
      <point x="678" y="963" type="curve"/>
      <point x="778" y="934"/>
      <point x="937" y="881"/>
      <point x="1014" y="881" type="curve" smooth="yes"/>
      <point x="1089" y="881"/>
      <point x="1125" y="925"/>
      <point x="1125" y="991" type="curve" smooth="yes"/>
      <point x="1125" y="1056"/>
      <point x="1088" y="1102"/>
      <point x="1016" y="1102" type="curve" smooth="yes"/>
      <point x="940" y="1102"/>
      <point x="843" y="1066"/>
      <point x="678" y="1017" type="curve"/>
      <point x="863" y="1209"/>
      <point x="929" y="1290"/>
      <point x="929" y="1352" type="curve" smooth="yes"/>
      <point x="929" y="1425"/>
      <point x="833" y="1479"/>
      <point x="782" y="1437" type="curve" smooth="yes"/>
      <point x="685" y="1415"/>
      <point x="648" y="1120"/>
      <point x="627" y="1042" type="curve"/>
      <point x="587" y="1215"/>
      <point x="543" y="1415"/>
      <point x="469" y="1437" type="curve" smooth="yes"/>
      <point x="408" y="1480"/>
      <point x="317" y="1423"/>
      <point x="317" y="1346" type="curve" smooth="yes"/>
      <point x="317" y="1296"/>
      <point x="415" y="1188"/>
      <point x="578" y="1017" type="curve"/>
      <point x="482" y="1044"/>
      <point x="313" y="1102"/>
      <point x="237" y="1102" type="curve" smooth="yes"/>
      <point x="165" y="1102"/>
      <point x="128" y="1056"/>
      <point x="128" y="991" type="curve" smooth="yes"/>
      <point x="128" y="925"/>
      <point x="164" y="881"/>
      <point x="238" y="881" type="curve" smooth="yes"/>
      <point x="311" y="881"/>
      <point x="448" y="925"/>
      <point x="578" y="963" type="curve"/>
      <point x="437" y="816"/>
      <point x="324" y="707"/>
      <point x="324" y="625" type="curve" smooth="yes"/>
      <point x="324" y="574"/>
      <point x="382" y="524"/>
    </contour>
  </outline>
</glyph>
<glyph name="plus" format="1">
  <advance width="1215"/>
  <unicode hex="002B"/>
  <outline>
    <contour>
      <point x="480" y="176" type="line"/>
      <point x="732" y="176" type="line"/>
      <point x="732" y="544" type="line"/>
      <point x="1062" y="544" type="line"/>
      <point x="1062" y="776" type="line"/>
      <point x="732" y="776" type="line"/>
      <point x="732" y="1146" type="line"/>
      <point x="480" y="1146" type="line"/>
      <point x="480" y="776" type="line"/>
      <point x="151" y="776" type="line"/>
      <point x="151" y="544" type="line"/>
      <point x="480" y="544" type="line"/>
    </contour>
  </outline>
</glyph>
<glyph name="comma" format="1">
  <advance width="724"/>
  <unicode hex="002C"/>
  <outline>
    <contour>
      <point x="242" y="-232" type="curve" smooth="yes"/>
      <point x="413" y="-232"/>
      <point x="533" y="-30"/>
      <point x="533" y="145" type="curve" smooth="yes"/>
      <point x="533" y="253"/>
      <point x="475" y="347"/>
      <point x="366" y="347" type="curve" smooth="yes"/>
      <point x="269" y="347"/>
      <point x="197" y="279"/>
      <point x="197" y="175" type="curve" smooth="yes"/>
      <point x="197" y="74"/>
      <point x="266" y="4"/>
      <point x="354" y="0" type="curve"/>
      <point x="352" y="-84"/>
      <point x="273" y="-145"/>
      <point x="188" y="-145" type="curve"/>
      <point x="188" y="-229" type="line"/>
      <point x="201" y="-231"/>
      <point x="219" y="-232"/>
    </contour>
  </outline>
</glyph>
<glyph name="hyphen" format="1">
  <advance width="1034"/>
  <unicode hex="002D"/>
  <outline>
    <contour>
      <point x="527" y="623" type="move" name="_mid"/>
    </contour>
    <contour>
      <point x="170" y="526" type="line"/>
      <point x="861" y="526" type="line"/>
      <point x="861" y="723" type="line"/>
      <point x="170" y="723" type="line"/>
    </contour>
  </outline>
</glyph>
<glyph name="period" format="1">
  <advance width="705"/>
  <unicode hex="002E"/>
  <outline>
    <contour>
      <point x="351" y="-34" type="curve" smooth="yes"/>
      <point x="433" y="-34"/>
      <point x="514" y="22"/>
      <point x="514" y="138" type="curve" smooth="yes"/>
      <point x="514" y="250"/>
      <point x="430" y="308"/>
      <point x="348" y="308" type="curve" smooth="yes"/>
      <point x="266" y="308"/>
      <point x="185" y="252"/>
      <point x="185" y="138" type="curve" smooth="yes"/>
      <point x="185" y="24"/>
      <point x="269" y="-34"/>
    </contour>
  </outline>
</glyph>
<glyph name="slash" format="1">
  <advance width="939"/>
  <unicode hex="002F"/>
  <outline>
    <contour>
      <point x="156" y="-16" type="line"/>
      <point x="426" y="-16" type="line"/>
      <point x="792" y="1546" type="line"/>
      <point x="517" y="1546" type="line"/>
    </contour>
  </outline>
</glyph>
<glyph name="zero" format="1">
  <advance width="1454"/>
  <unicode hex="0030"/>
  <outline>
    <contour>
      <point x="727" y="211" type="curve" smooth="yes"/>
      <point x="657" y="211"/>
      <point x="571" y="227"/>
      <point x="568" y="266" type="curve" smooth="yes"/>
      <point x="565" y="314"/>
      <point x="565" y="726"/>
      <point x="565" y="778" type="curve" smooth="yes"/>
      <point x="565" y="829"/>
      <point x="566" y="1240"/>
      <point x="569" y="1289" type="curve" smooth="yes"/>
      <point x="571" y="1331"/>
      <point x="660" y="1349"/>
      <point x="727" y="1349" type="curve" smooth="yes"/>
      <point x="794" y="1349"/>
      <point x="883" y="1331"/>
      <point x="886" y="1289" type="curve" smooth="yes"/>
      <point x="888" y="1240"/>
      <point x="890" y="829"/>
      <point x="890" y="778" type="curve" smooth="yes"/>
      <point x="890" y="726"/>
      <point x="889" y="314"/>
      <point x="886" y="266" type="curve" smooth="yes"/>
      <point x="884" y="227"/>
      <point x="798" y="211"/>
    </contour>
    <contour>
      <point x="729" y="-21" type="curve" smooth="yes"/>
      <point x="1103" y="-21"/>
      <point x="1325" y="71"/>
      <point x="1325" y="509" type="curve" smooth="yes"/>
      <point x="1325" y="1092" type="line" smooth="yes"/>
      <point x="1325" y="1492"/>
      <point x="1088" y="1581"/>
      <point x="729" y="1581" type="curve" smooth="yes"/>
      <point x="368" y="1581"/>
      <point x="130" y="1492"/>
      <point x="130" y="1074" type="curve" smooth="yes"/>
      <point x="130" y="486" type="line" smooth="yes"/>
      <point x="130" y="72"/>
      <point x="359" y="-21"/>
    </contour>
  </outline>
</glyph>
<glyph name="one" format="1">
  <advance width="913"/>
  <unicode hex="0031"/>
  <outline>
    <contour>
      <point x="337" y="0" type="line"/>
      <point x="683" y="0" type="line"/>
      <point x="683" y="1530" type="line"/>
      <point x="405" y="1530" type="line"/>
      <point x="347" y="1450"/>
      <point x="254" y="1410"/>
      <point x="139" y="1407" type="curve"/>
      <point x="139" y="1267" type="line"/>
      <point x="337" y="1267" type="line"/>
    </contour>
  </outline>
</glyph>
<glyph name="two" format="1">
  <advance width="1382"/>
  <unicode hex="0032"/>
  <outline>
    <contour>
      <point x="183" y="0" type="line"/>
      <point x="1174" y="0" type="line"/>
      <point x="1174" y="205" type="line"/>
      <point x="505" y="205" type="line"/>
      <point x="505" y="375"/>
      <point x="581" y="420"/>
      <point x="750" y="519" type="curve" smooth="yes"/>
      <point x="1008" y="667"/>
      <point x="1219" y="753"/>
      <point x="1219" y="1103" type="curve" smooth="yes"/>
      <point x="1219" y="1447"/>
      <point x="1063" y="1551"/>
      <point x="698" y="1551" type="curve" smooth="yes"/>
      <point x="365" y="1551"/>
      <point x="183" y="1462"/>
      <point x="183" y="1159" type="curve" smooth="yes"/>
      <point x="184" y="1120" type="line"/>
      <point x="494" y="1098" type="line"/>
      <point x="499" y="1165"/>
      <point x="499" y="1312"/>
      <point x="527" y="1333" type="curve" smooth="yes"/>
      <point x="554" y="1354"/>
      <point x="640" y="1361"/>
      <point x="703" y="1361" type="curve" smooth="yes"/>
      <point x="776" y="1361"/>
      <point x="845" y="1349"/>
      <point x="865" y="1322" type="curve" smooth="yes"/>
      <point x="884" y="1294"/>
      <point x="893" y="1149"/>
      <point x="893" y="1090" type="curve" smooth="yes"/>
      <point x="893" y="876"/>
      <point x="781" y="852"/>
      <point x="587" y="736" type="curve" smooth="yes"/>
      <point x="350" y="606"/>
      <point x="183" y="504"/>
      <point x="183" y="158" type="curve" smooth="yes"/>
    </contour>
  </outline>
</glyph>
<glyph name="three" format="1">
  <advance width="1382"/>
  <unicode hex="0033"/>
  <outline>
    <contour>
      <point x="672" y="-21" type="curve" smooth="yes"/>
      <point x="1033" y="-21"/>
      <point x="1226" y="75"/>
      <point x="1226" y="420" type="curve" smooth="yes"/>
      <point x="1226" y="679"/>
      <point x="1147" y="752"/>
      <point x="1043" y="788" type="curve"/>
      <point x="1135" y="816"/>
      <point x="1220" y="863"/>
      <point x="1220" y="1150" type="curve" smooth="yes"/>
      <point x="1220" y="1436"/>
      <point x="1049" y="1551"/>
      <point x="692" y="1551" type="curve" smooth="yes"/>
      <point x="294" y="1551"/>
      <point x="151" y="1451"/>
      <point x="148" y="1169" type="curve" smooth="yes"/>
      <point x="148" y="1115" type="line"/>
      <point x="462" y="1101" type="line"/>
      <point x="462" y="1176"/>
      <point x="468" y="1324"/>
      <point x="478" y="1335" type="curve" smooth="yes"/>
      <point x="500" y="1357"/>
      <point x="606" y="1362"/>
      <point x="692" y="1362" type="curve" smooth="yes"/>
      <point x="843" y="1362"/>
      <point x="890" y="1333"/>
      <point x="890" y="1220" type="curve" smooth="yes"/>
      <point x="890" y="1092"/>
      <point x="888" y="875"/>
      <point x="855" y="875" type="curve" smooth="yes"/>
      <point x="535" y="875" type="line"/>
      <point x="540" y="701" type="line"/>
      <point x="859" y="700" type="line" smooth="yes"/>
      <point x="888" y="700"/>
      <point x="895" y="491"/>
      <point x="895" y="353" type="curve" smooth="yes"/>
      <point x="895" y="205"/>
      <point x="851" y="169"/>
      <point x="673" y="169" type="curve" smooth="yes"/>
      <point x="584" y="169"/>
      <point x="489" y="173"/>
      <point x="468" y="200" type="curve" smooth="yes"/>
      <point x="451" y="222"/>
      <point x="452" y="390"/>
      <point x="452" y="448" type="curve"/>
      <point x="139" y="428" type="line"/>
      <point x="138" y="358" type="line" smooth="yes"/>
      <point x="137" y="71"/>
      <point x="308" y="-21"/>
    </contour>
  </outline>
</glyph>
<glyph name="four" format="1">
  <advance width="1375"/>
  <unicode hex="0034"/>
  <outline>
    <contour>
      <point x="561" y="1527" type="line"/>
      <point x="134" y="580" type="line"/>
      <point x="134" y="337" type="line"/>
      <point x="854" y="337" type="line"/>
      <point x="854" y="0" type="line"/>
      <point x="1154" y="0" type="line"/>
      <point x="1154" y="989" type="line"/>
      <point x="854" y="989" type="line"/>
      <point x="854" y="550" type="line"/>
      <point x="461" y="550" type="line"/>
      <point x="524" y="693" type="line"/>
      <point x="888" y="1527" type="line"/>
    </contour>
  </outline>
</glyph>
<glyph name="five" format="1">
  <advance width="1382"/>
  <unicode hex="0035"/>
  <outline>
    <contour>
      <point x="708" y="-21" type="curve" smooth="yes"/>
      <point x="1124" y="-21"/>
      <point x="1268" y="76"/>
      <point x="1268" y="493" type="curve" smooth="yes"/>
      <point x="1268" y="845"/>
      <point x="1182" y="1010"/>
      <point x="824" y="1010" type="curve" smooth="yes"/>
      <point x="622" y="1010"/>
      <point x="554" y="943"/>
      <point x="506" y="859" type="curve"/>
      <point x="526" y="1322" type="line"/>
      <point x="1162" y="1322" type="line"/>
      <point x="1162" y="1530" type="line"/>
      <point x="225" y="1530" type="line"/>
      <point x="205" y="659" type="line"/>
      <point x="515" y="651" type="line"/>
      <point x="522" y="688"/>
      <point x="536" y="780"/>
      <point x="557" y="794" type="curve" smooth="yes"/>
      <point x="588" y="813"/>
      <point x="666" y="814"/>
      <point x="720" y="814" type="curve" smooth="yes"/>
      <point x="903" y="814"/>
      <point x="941" y="786"/>
      <point x="941" y="642" type="curve" smooth="yes"/>
      <point x="941" y="610"/>
      <point x="942" y="357"/>
      <point x="942" y="330" type="curve" smooth="yes"/>
      <point x="942" y="237"/>
      <point x="887" y="176"/>
      <point x="706" y="176" type="curve" smooth="yes"/>
      <point x="571" y="176"/>
      <point x="510" y="192"/>
      <point x="498" y="280" type="curve" smooth="yes"/>
      <point x="496" y="293"/>
      <point x="494" y="393"/>
      <point x="493" y="410" type="curve"/>
      <point x="190" y="397" type="line"/>
      <point x="190" y="383"/>
      <point x="189" y="341"/>
      <point x="189" y="328" type="curve" smooth="yes"/>
      <point x="187" y="46"/>
      <point x="363" y="-21"/>
    </contour>
  </outline>
</glyph>
<glyph name="six" format="1">
  <advance width="1375"/>
  <unicode hex="0036"/>
  <outline>
    <contour>
      <point x="736" y="-21" type="curve" smooth="yes"/>
      <point x="1146" y="-20"/>
      <point x="1275" y="80"/>
      <point x="1275" y="498" type="curve" smooth="yes"/>
      <point x="1275" y="894"/>
      <point x="1132" y="987"/>
      <point x="736" y="987" type="curve" smooth="yes"/>
      <point x="612" y="987"/>
      <point x="520" y="963"/>
      <point x="484" y="918" type="curve"/>
      <point x="485" y="1226" type="line" smooth="yes"/>
      <point x="486" y="1334"/>
      <point x="554" y="1367"/>
      <point x="709" y="1367" type="curve" smooth="yes"/>
      <point x="785" y="1367"/>
      <point x="890" y="1364"/>
      <point x="909" y="1346" type="curve" smooth="yes"/>
      <point x="929" y="1327"/>
      <point x="929" y="1206"/>
      <point x="929" y="1142" type="curve"/>
      <point x="1225" y="1155" type="line"/>
      <point x="1225" y="1261" type="line" smooth="yes"/>
      <point x="1227" y="1525"/>
      <point x="976" y="1547"/>
      <point x="709" y="1547" type="curve" smooth="yes"/>
      <point x="236" y="1547"/>
      <point x="168" y="1387"/>
      <point x="168" y="887" type="curve" smooth="yes"/>
      <point x="168" y="587" type="line" smooth="yes"/>
      <point x="168" y="94"/>
      <point x="265" y="-21"/>
    </contour>
    <contour>
      <point x="716" y="165" type="curve" smooth="yes"/>
      <point x="525" y="165"/>
      <point x="485" y="217"/>
      <point x="483" y="326" type="curve" smooth="yes"/>
      <point x="482" y="617" type="line" smooth="yes"/>
      <point x="481" y="734"/>
      <point x="509" y="792"/>
      <point x="716" y="792" type="curve" smooth="yes"/>
      <point x="914" y="792"/>
      <point x="959" y="763"/>
      <point x="959" y="621" type="curve" smooth="yes"/>
      <point x="959" y="302" type="line" smooth="yes"/>
      <point x="959" y="201"/>
      <point x="908" y="165"/>
    </contour>
  </outline>
</glyph>
<glyph name="seven" format="1">
  <advance width="1375"/>
  <unicode hex="0037"/>
  <outline>
    <contour>
      <point x="399" y="0" type="line"/>
      <point x="743" y="0" type="line"/>
      <point x="1218" y="1313" type="line"/>
      <point x="1218" y="1527" type="line"/>
      <point x="190" y="1527" type="line"/>
      <point x="190" y="1325" type="line"/>
      <point x="879" y="1325" type="line"/>
    </contour>
  </outline>
</glyph>
<glyph name="eight" format="1">
  <advance width="1382"/>
  <unicode hex="0038"/>
  <outline>
    <contour>
      <point x="691" y="-21" type="curve" smooth="yes"/>
      <point x="1087" y="-21"/>
      <point x="1261" y="52"/>
      <point x="1261" y="396" type="curve" smooth="yes"/>
      <point x="1261" y="683"/>
      <point x="1192" y="751"/>
      <point x="1051" y="819" type="curve"/>
      <point x="1152" y="867"/>
      <point x="1182" y="987"/>
      <point x="1182" y="1163" type="curve" smooth="yes"/>
      <point x="1182" y="1460"/>
      <point x="1076" y="1551"/>
      <point x="690" y="1551" type="curve" smooth="yes"/>
      <point x="300" y="1551"/>
      <point x="195" y="1460"/>
      <point x="195" y="1163" type="curve" smooth="yes"/>
      <point x="195" y="987"/>
      <point x="224" y="867"/>
      <point x="325" y="819" type="curve"/>
      <point x="184" y="751"/>
      <point x="116" y="683"/>
      <point x="116" y="396" type="curve" smooth="yes"/>
      <point x="116" y="51"/>
      <point x="291" y="-21"/>
    </contour>
    <contour>
      <point x="690" y="171" type="curve" smooth="yes"/>
      <point x="455" y="171"/>
      <point x="428" y="235"/>
      <point x="428" y="361" type="curve" smooth="yes"/>
      <point x="428" y="491" type="line" smooth="yes"/>
      <point x="428" y="704"/>
      <point x="496" y="706"/>
      <point x="691" y="706" type="curve" smooth="yes"/>
      <point x="881" y="706"/>
      <point x="949" y="703"/>
      <point x="949" y="491" type="curve" smooth="yes"/>
      <point x="949" y="361" type="line" smooth="yes"/>
      <point x="949" y="235"/>
      <point x="922" y="171"/>
    </contour>
    <contour>
      <point x="562" y="878" type="line"/>
      <point x="497" y="927"/>
      <point x="486" y="1011"/>
      <point x="486" y="1161" type="curve" smooth="yes"/>
      <point x="486" y="1337"/>
      <point x="513" y="1355"/>
      <point x="691" y="1355" type="curve" smooth="yes"/>
      <point x="865" y="1355"/>
      <point x="891" y="1336"/>
      <point x="891" y="1161" type="curve" smooth="yes"/>
      <point x="891" y="1001"/>
      <point x="876" y="927"/>
      <point x="811" y="878" type="curve"/>
    </contour>
  </outline>
</glyph>
<glyph name="nine" format="1">
  <advance width="1382"/>
  <unicode hex="0039"/>
  <outline>
    <contour>
      <point x="704" y="-21" type="curve" smooth="yes"/>
      <point x="1166" y="-21"/>
      <point x="1249" y="134"/>
      <point x="1249" y="623" type="curve" smooth="yes"/>
      <point x="1249" y="948" type="line" smooth="yes"/>
      <point x="1249" y="1439"/>
      <point x="1164" y="1551"/>
      <point x="674" y="1551" type="curve" smooth="yes"/>
      <point x="287" y="1551"/>
      <point x="134" y="1458"/>
      <point x="134" y="1031" type="curve" smooth="yes"/>
      <point x="134" y="642"/>
      <point x="259" y="527"/>
      <point x="633" y="527" type="curve" smooth="yes"/>
      <point x="752" y="527"/>
      <point x="884" y="550"/>
      <point x="918" y="593" type="curve"/>
      <point x="918" y="299" type="line" smooth="yes"/>
      <point x="917" y="196"/>
      <point x="849" y="164"/>
      <point x="702" y="164" type="curve" smooth="yes"/>
      <point x="629" y="164"/>
      <point x="525" y="167"/>
      <point x="506" y="184" type="curve" smooth="yes"/>
      <point x="488" y="202"/>
      <point x="487" y="304"/>
      <point x="487" y="364" type="curve"/>
      <point x="181" y="351" type="line"/>
      <point x="180" y="260" type="line" smooth="yes"/>
      <point x="176" y="7"/>
      <point x="441" y="-21"/>
    </contour>
    <contour>
      <point x="693" y="726" type="curve" smooth="yes"/>
      <point x="505" y="726"/>
      <point x="459" y="754"/>
      <point x="459" y="889" type="curve" smooth="yes"/>
      <point x="459" y="1231" type="line" smooth="yes"/>
      <point x="459" y="1328"/>
      <point x="510" y="1363"/>
      <point x="694" y="1363" type="curve" smooth="yes"/>
      <point x="876" y="1363"/>
      <point x="916" y="1313"/>
      <point x="918" y="1208" type="curve" smooth="yes"/>
      <point x="919" y="893" type="line" smooth="yes"/>
      <point x="920" y="781"/>
      <point x="891" y="726"/>
    </contour>
  </outline>
</glyph>
<glyph name="colon" format="1">
  <advance width="842"/>
  <unicode hex="003A"/>
  <outline>
    <contour>
      <point x="417" y="121" type="curve" smooth="yes"/>
      <point x="508" y="121"/>
      <point x="599" y="184"/>
      <point x="599" y="311" type="curve" smooth="yes"/>
      <point x="599" y="438"/>
      <point x="508" y="502"/>
      <point x="416" y="502" type="curve" smooth="yes"/>
      <point x="326" y="502"/>
      <point x="235" y="439"/>
      <point x="235" y="311" type="curve" smooth="yes"/>
      <point x="235" y="184"/>
      <point x="326" y="121"/>
    </contour>
    <contour>
      <point x="417" y="924" type="curve" smooth="yes"/>
      <point x="508" y="924"/>
      <point x="599" y="987"/>
      <point x="599" y="1115" type="curve" smooth="yes"/>
      <point x="599" y="1241"/>
      <point x="508" y="1305"/>
      <point x="417" y="1305" type="curve" smooth="yes"/>
      <point x="326" y="1305"/>
      <point x="235" y="1242"/>
      <point x="235" y="1115" type="curve" smooth="yes"/>
      <point x="235" y="988"/>
      <point x="326" y="924"/>
    </contour>
  </outline>
</glyph>
<glyph name="semicolon" format="1">
  <advance width="755"/>
  <unicode hex="003B"/>
  <outline>
    <contour>
      <point x="261" y="-108" type="curve" smooth="yes"/>
      <point x="429" y="-108"/>
      <point x="549" y="93"/>
      <point x="549" y="268" type="curve" smooth="yes"/>
      <point x="549" y="374"/>
      <point x="491" y="468"/>
      <point x="384" y="468" type="curve" smooth="yes"/>
      <point x="288" y="468"/>
      <point x="217" y="399"/>
      <point x="217" y="298" type="curve" smooth="yes"/>
      <point x="217" y="197"/>
      <point x="287" y="128"/>
      <point x="374" y="124" type="curve"/>
      <point x="372" y="40"/>
      <point x="292" y="-21"/>
      <point x="207" y="-22" type="curve"/>
      <point x="207" y="-104" type="line"/>
      <point x="220" y="-107"/>
      <point x="237" y="-108"/>
    </contour>
    <contour>
      <point x="382" y="924" type="curve" smooth="yes"/>
      <point x="475" y="924"/>
      <point x="545" y="992"/>
      <point x="545" y="1098" type="curve" smooth="yes"/>
      <point x="545" y="1202"/>
      <point x="471" y="1272"/>
      <point x="382" y="1272" type="curve" smooth="yes"/>
      <point x="289" y="1272"/>
      <point x="220" y="1203"/>
      <point x="220" y="1098" type="curve" smooth="yes"/>
      <point x="220" y="994"/>
      <point x="292" y="924"/>
    </contour>
  </outline>
</glyph>
<glyph name="less" format="1">
  <advance width="1239"/>
  <unicode hex="003C"/>
  <outline>
    <contour>
      <point x="1016" y="80" type="line"/>
      <point x="1016" y="490" type="line"/>
      <point x="443" y="738" type="line"/>
      <point x="1016" y="977" type="line"/>
      <point x="1016" y="1391" type="line"/>
      <point x="202" y="961" type="line"/>
      <point x="202" y="503" type="line"/>
    </contour>
  </outline>
</glyph>
<glyph name="equal" format="1">
  <advance width="1195"/>
  <unicode hex="003D"/>
  <outline>
    <contour>
      <point x="178" y="195" type="line"/>
      <point x="1036" y="195" type="line"/>
      <point x="1036" y="440" type="line"/>
      <point x="178" y="440" type="line"/>
    </contour>
    <contour>
      <point x="178" y="642" type="line"/>
      <point x="1036" y="642" type="line"/>
      <point x="1036" y="887" type="line"/>
      <point x="178" y="887" type="line"/>
    </contour>
  </outline>
</glyph>
<glyph name="greater" format="1">
  <advance width="1129"/>
  <unicode hex="003E"/>
  <outline>
    <contour>
      <point x="197" y="145" type="line"/>
      <point x="962" y="573" type="line"/>
      <point x="962" y="906" type="line"/>
      <point x="197" y="1344" type="line"/>
      <point x="197" y="1006" type="line"/>
      <point x="748" y="746" type="line"/>
      <point x="197" y="477" type="line"/>
    </contour>
  </outline>
</glyph>
<glyph name="question" format="1">
  <advance width="949"/>
  <unicode hex="003F"/>
  <outline>
    <contour>
      <point x="388" y="467" type="curve" smooth="yes"/>
      <point x="422" y="467"/>
      <point x="442" y="484"/>
      <point x="444" y="515" type="curve"/>
      <point x="453" y="618"/>
      <point x="511" y="706"/>
      <point x="589" y="801" type="curve" smooth="yes"/>
      <point x="711" y="953"/>
      <point x="837" y="1068"/>
      <point x="837" y="1234" type="curve" smooth="yes"/>
      <point x="837" y="1440"/>
      <point x="713" y="1564"/>
      <point x="437" y="1564" type="curve" smooth="yes"/>
      <point x="351" y="1564"/>
      <point x="254" y="1542"/>
      <point x="138" y="1497" type="curve"/>
      <point x="164" y="1263" type="line"/>
      <point x="266" y="1294"/>
      <point x="332" y="1307"/>
      <point x="379" y="1307" type="curve" smooth="yes"/>
      <point x="492" y="1307"/>
      <point x="545" y="1241"/>
      <point x="545" y="1149" type="curve" smooth="yes"/>
      <point x="545" y="1068"/>
      <point x="512" y="998"/>
      <point x="461" y="911" type="curve" smooth="yes"/>
      <point x="380" y="785"/>
      <point x="334" y="686"/>
      <point x="334" y="521" type="curve"/>
      <point x="334" y="491"/>
      <point x="351" y="467"/>
    </contour>
    <contour>
      <point x="385" y="-34" type="curve" smooth="yes"/>
      <point x="468" y="-34"/>
      <point x="549" y="22"/>
      <point x="549" y="138" type="curve" smooth="yes"/>
      <point x="549" y="250"/>
      <point x="465" y="308"/>
      <point x="382" y="308" type="curve" smooth="yes"/>
      <point x="300" y="308"/>
      <point x="219" y="252"/>
      <point x="219" y="138" type="curve" smooth="yes"/>
      <point x="219" y="24"/>
      <point x="303" y="-34"/>
    </contour>
  </outline>
</glyph>
<glyph name="at" format="1">
  <advance width="2154"/>
  <unicode hex="0040"/>
  <outline>
    <contour>
      <point x="1109" y="-290" type="curve" smooth="yes"/>
      <point x="1337" y="-290"/>
      <point x="1542" y="-250"/>
      <point x="1700" y="-175" type="curve"/>
      <point x="1650" y="-29" type="line"/>
      <point x="1459" y="-104"/>
      <point x="1243" y="-128"/>
      <point x="1130" y="-128" type="curve" smooth="yes"/>
      <point x="559" y="-128"/>
      <point x="398" y="105"/>
      <point x="398" y="670" type="curve" smooth="yes"/>
      <point x="398" y="1185"/>
      <point x="563" y="1429"/>
      <point x="1120" y="1429" type="curve" smooth="yes"/>
      <point x="1635" y="1429"/>
      <point x="1765" y="1244"/>
      <point x="1765" y="725" type="curve" smooth="yes"/>
      <point x="1765" y="516"/>
      <point x="1756" y="321"/>
      <point x="1716" y="292" type="curve"/>
      <point x="1692" y="277"/>
      <point x="1590" y="276"/>
      <point x="1529" y="276" type="curve"/>
      <point x="1529" y="887" type="line" smooth="yes"/>
      <point x="1529" y="1117"/>
      <point x="1414" y="1212"/>
      <point x="1132" y="1212" type="curve" smooth="yes"/>
      <point x="871" y="1212"/>
      <point x="704" y="1183"/>
      <point x="705" y="970" type="curve" smooth="yes"/>
      <point x="705" y="951"/>
      <point x="708" y="908"/>
      <point x="712" y="888" type="curve"/>
      <point x="958" y="888" type="line"/>
      <point x="956" y="919"/>
      <point x="948" y="1007"/>
      <point x="964" y="1027" type="curve" smooth="yes"/>
      <point x="984" y="1049"/>
      <point x="1041" y="1053"/>
      <point x="1117" y="1053" type="curve"/>
      <point x="1231" y="1053"/>
      <point x="1275" y="1043"/>
      <point x="1275" y="961" type="curve" smooth="yes"/>
      <point x="1275" y="737" type="line"/>
      <point x="1176" y="754"/>
      <point x="1053" y="760"/>
      <point x="987" y="760" type="curve" smooth="yes"/>
      <point x="750" y="759"/>
      <point x="660" y="634"/>
      <point x="662" y="424" type="curve" smooth="yes"/>
      <point x="664" y="197"/>
      <point x="776" y="124"/>
      <point x="1022" y="124" type="curve" smooth="yes"/>
      <point x="1212" y="124"/>
      <point x="1277" y="186"/>
      <point x="1318" y="277" type="curve"/>
      <point x="1350" y="188"/>
      <point x="1430" y="132"/>
      <point x="1545" y="131" type="curve" smooth="yes"/>
      <point x="1932" y="131"/>
      <point x="1987" y="334"/>
      <point x="1987" y="736" type="curve" smooth="yes"/>
      <point x="1987" y="1371"/>
      <point x="1776" y="1601"/>
      <point x="1106" y="1601" type="curve" smooth="yes"/>
      <point x="459" y="1601"/>
      <point x="179" y="1336"/>
      <point x="179" y="649" type="curve" smooth="yes"/>
      <point x="179" y="-69"/>
      <point x="504" y="-290"/>
    </contour>
    <contour>
      <point x="1108" y="270" type="curve" smooth="yes"/>
      <point x="958" y="270"/>
      <point x="924" y="298"/>
      <point x="924" y="374" type="curve" smooth="yes"/>
      <point x="924" y="511"/>
      <point x="952" y="636"/>
      <point x="1057" y="637" type="curve" smooth="yes"/>
      <point x="1274" y="638" type="line"/>
      <point x="1274" y="413" type="line" smooth="yes"/>
      <point x="1273" y="340"/>
      <point x="1210" y="270"/>
    </contour>
  </outline>
</glyph>
<glyph name="A" format="1">
  <advance width="1576"/>
  <unicode hex="0041"/>
  <outline>
    <contour>
      <point x="788" y="1559" type="move" name="top"/>
    </contour>
    <contour>
      <point x="1232" y="0" type="move" name="ogonek"/>
    </contour>
    <contour>
      <point x="788" y="0" type="move" name="bot"/>
    </contour>
    <contour>
      <point x="443" y="1559" type="line"/>
      <point x="93" y="0" type="line"/>
      <point x="546" y="0" type="line"/>
      <point x="621" y="371" type="line"/>
      <point x="951" y="371" type="line"/>
      <point x="1027" y="0" type="line"/>
      <point x="1484" y="0" type="line"/>
      <point x="1134" y="1559" type="line"/>
    </contour>
    <contour>
      <point x="925" y="559" type="line"/>
      <point x="647" y="559" type="line"/>
      <point x="778" y="1305" type="line"/>
      <point x="791" y="1305" type="line"/>
    </contour>
  </outline>
</glyph>
<glyph name="B" format="1">
  <advance width="1487"/>
  <unicode hex="0042"/>
  <outline>
    <contour>
      <point x="757" y="1530" type="move" name="top"/>
    </contour>
    <contour>
      <point x="188" y="0" type="line"/>
      <point x="840" y="0" type="line" smooth="yes"/>
      <point x="1255" y="0"/>
      <point x="1366" y="50"/>
      <point x="1366" y="441" type="curve" smooth="yes"/>
      <point x="1366" y="633"/>
      <point x="1320" y="796"/>
      <point x="1057" y="825" type="curve"/>
      <point x="1057" y="831" type="line"/>
      <point x="1259" y="861"/>
      <point x="1317" y="944"/>
      <point x="1317" y="1148" type="curve"/>
      <point x="1317" y="1224" type="line" smooth="yes"/>
      <point x="1311" y="1484"/>
      <point x="1133" y="1530"/>
      <point x="861" y="1530" type="curve" smooth="yes"/>
      <point x="188" y="1530" type="line"/>
    </contour>
    <contour>
      <point x="542" y="183" type="line"/>
      <point x="542" y="745" type="line"/>
      <point x="718" y="745" type="line" smooth="yes"/>
      <point x="984" y="745"/>
      <point x="1010" y="727"/>
      <point x="1012" y="588" type="curve" smooth="yes"/>
      <point x="1013" y="303" type="line" smooth="yes"/>
      <point x="1013" y="212"/>
      <point x="951" y="183"/>
      <point x="810" y="183" type="curve" smooth="yes"/>
    </contour>
    <contour>
      <point x="542" y="895" type="line"/>
      <point x="542" y="1346" type="line"/>
      <point x="741" y="1346" type="line" smooth="yes"/>
      <point x="943" y="1346"/>
      <point x="979" y="1339"/>
      <point x="979" y="1235" type="curve" smooth="yes"/>
      <point x="979" y="975" type="line" smooth="yes"/>
      <point x="979" y="922"/>
      <point x="920" y="895"/>
      <point x="699" y="895" type="curve" smooth="yes"/>
    </contour>
  </outline>
</glyph>
<glyph name="C" format="1">
  <advance width="1490"/>
  <unicode hex="0043"/>
  <outline>
    <contour>
      <point x="775" y="1530" type="move" name="top"/>
    </contour>
    <contour>
      <point x="775" y="0" type="move" name="bot"/>
    </contour>
    <contour>
      <point x="159" y="1119" type="curve" smooth="yes"/>
      <point x="156" y="1064"/>
      <point x="154" y="845"/>
      <point x="154" y="767" type="curve" smooth="yes"/>
      <point x="154" y="694"/>
      <point x="155" y="474"/>
      <point x="160" y="420" type="curve" smooth="yes"/>
      <point x="178" y="62"/>
      <point x="412" y="-21"/>
      <point x="808" y="-21" type="curve" smooth="yes"/>
      <point x="1126" y="-21"/>
      <point x="1350" y="36"/>
      <point x="1365" y="355" type="curve" smooth="yes"/>
      <point x="1370" y="512" type="line"/>
      <point x="1033" y="527" type="line"/>
      <point x="1027" y="449"/>
      <point x="1027" y="254"/>
      <point x="1002" y="222" type="curve" smooth="yes"/>
      <point x="978" y="191"/>
      <point x="895" y="178"/>
      <point x="789" y="178" type="curve" smooth="yes"/>
      <point x="603" y="178"/>
      <point x="520" y="212"/>
      <point x="516" y="277" type="curve" smooth="yes"/>
      <point x="511" y="353"/>
      <point x="510" y="637"/>
      <point x="510" y="716" type="curve" smooth="yes"/>
      <point x="510" y="830"/>
      <point x="511" y="1143"/>
      <point x="516" y="1252" type="curve" smooth="yes"/>
      <point x="520" y="1341"/>
      <point x="632" y="1349"/>
      <point x="788" y="1349" type="curve" smooth="yes"/>
      <point x="874" y="1349"/>
      <point x="955" y="1349"/>
      <point x="983" y="1324" type="curve" smooth="yes"/>
      <point x="1012" y="1299"/>
      <point x="1022" y="1106"/>
      <point x="1031" y="1009" type="curve"/>
      <point x="1369" y="1032" type="line"/>
      <point x="1365" y="1173" type="line" smooth="yes"/>
      <point x="1345" y="1503"/>
      <point x="1113" y="1551"/>
      <point x="796" y="1551" type="curve" smooth="yes"/>
      <point x="398" y="1551"/>
      <point x="177" y="1490"/>
    </contour>
  </outline>
</glyph>
<glyph name="D" format="1">
  <advance width="1548"/>
  <unicode hex="0044"/>
  <outline>
    <contour>
      <point x="786" y="1530" type="move" name="top"/>
    </contour>
    <contour>
      <point x="786" y="0" type="move" name="bot"/>
    </contour>
    <contour>
      <point x="394" y="781" type="move" name="mid"/>
    </contour>
    <contour>
      <point x="188" y="1530" type="line"/>
      <point x="188" y="0" type="line"/>
      <point x="700" y="0" type="line" smooth="yes"/>
      <point x="1220" y="0"/>
      <point x="1394" y="25"/>
      <point x="1399" y="575" type="curve"/>
      <point x="1400" y="988" type="line"/>
      <point x="1400" y="1429"/>
      <point x="1217" y="1530"/>
      <point x="795" y="1530" type="curve" smooth="yes"/>
    </contour>
    <contour>
      <point x="1046" y="902" type="curve" smooth="yes"/>
      <point x="1046" y="590" type="line" smooth="yes"/>
      <point x="1046" y="309"/>
      <point x="1003" y="184"/>
      <point x="759" y="184" type="curve" smooth="yes"/>
      <point x="544" y="184" type="line"/>
      <point x="544" y="1344" type="line"/>
      <point x="740" y="1344" type="line" smooth="yes"/>
      <point x="1046" y="1344"/>
      <point x="1046" y="1141"/>
    </contour>
  </outline>
</glyph>
<glyph name="E" format="1">
  <advance width="1231"/>
  <unicode hex="0045"/>
  <outline>
    <contour>
      <point x="621" y="1559" type="move" name="top"/>
    </contour>
    <contour>
      <point x="678" y="0" type="move" name="ogonek"/>
    </contour>
    <contour>
      <point x="621" y="0" type="move" name="bot"/>
    </contour>
    <contour>
      <point x="185" y="1559" type="line"/>
      <point x="185" y="0" type="line"/>
      <point x="1096" y="0" type="line"/>
      <point x="1103" y="218" type="line"/>
      <point x="653" y="218" type="line"/>
      <point x="653" y="706" type="line"/>
      <point x="1052" y="706" type="line"/>
      <point x="1052" y="926" type="line"/>
      <point x="653" y="926" type="line"/>
      <point x="653" y="1343" type="line"/>
      <point x="1108" y="1343" type="line"/>
      <point x="1093" y="1559" type="line"/>
    </contour>
  </outline>
</glyph>
<glyph name="F" format="1">
  <advance width="1179"/>
  <unicode hex="0046"/>
  <outline>
    <contour>
      <point x="619" y="1559" type="move" name="top"/>
    </contour>
    <contour>
      <point x="602" y="0" type="move" name="bot"/>
    </contour>
    <contour>
      <point x="185" y="1559" type="line"/>
      <point x="185" y="0" type="line"/>
      <point x="653" y="0" type="line"/>
      <point x="653" y="699" type="line"/>
      <point x="1041" y="699" type="line"/>
      <point x="1041" y="919" type="line"/>
      <point x="653" y="919" type="line"/>
      <point x="653" y="1343" type="line"/>
      <point x="1094" y="1343" type="line"/>
      <point x="1080" y="1559" type="line"/>
    </contour>
  </outline>
</glyph>
<glyph name="G" format="1">
  <advance width="1500"/>
  <unicode hex="0047"/>
  <outline>
    <contour>
      <point x="754" y="1530" type="move" name="top"/>
    </contour>
    <contour>
      <point x="754" y="0" type="move" name="bot"/>
    </contour>
    <contour>
      <point x="173" y="1208" type="curve" smooth="yes"/>
      <point x="157" y="1137"/>
      <point x="154" y="886"/>
      <point x="154" y="763" type="curve" smooth="yes"/>
      <point x="154" y="650"/>
      <point x="156" y="398"/>
      <point x="167" y="329" type="curve" smooth="yes"/>
      <point x="192" y="39"/>
      <point x="351" y="-21"/>
      <point x="763" y="-21" type="curve" smooth="yes"/>
      <point x="1003" y="-21"/>
      <point x="1261" y="17"/>
      <point x="1364" y="109" type="curve"/>
      <point x="1364" y="754" type="line"/>
      <point x="801" y="754" type="line"/>
      <point x="812" y="596" type="line"/>
      <point x="1062" y="596" type="line"/>
      <point x="1062" y="204" type="line"/>
      <point x="1047" y="184"/>
      <point x="912" y="175"/>
      <point x="773" y="175" type="curve" smooth="yes"/>
      <point x="573" y="175"/>
      <point x="521" y="198"/>
      <point x="516" y="313" type="curve" smooth="yes"/>
      <point x="512" y="397"/>
      <point x="510" y="692"/>
      <point x="510" y="782" type="curve" smooth="yes"/>
      <point x="510" y="868"/>
      <point x="510" y="1161"/>
      <point x="516" y="1246" type="curve" smooth="yes"/>
      <point x="521" y="1324"/>
      <point x="589" y="1350"/>
      <point x="755" y="1350" type="curve" smooth="yes"/>
      <point x="910" y="1350"/>
      <point x="998" y="1342"/>
      <point x="1000" y="1287" type="curve" smooth="yes"/>
      <point x="1007" y="1021" type="line"/>
      <point x="1348" y="1050" type="line"/>
      <point x="1348" y="1060"/>
      <point x="1349" y="1157"/>
      <point x="1349" y="1167" type="curve" smooth="yes"/>
      <point x="1349" y="1530"/>
      <point x="1041" y="1551"/>
      <point x="773" y="1551" type="curve" smooth="yes"/>
      <point x="438" y="1551"/>
      <point x="206" y="1492"/>
    </contour>
  </outline>
</glyph>
<glyph name="H" format="1">
  <advance width="1573"/>
  <unicode hex="0048"/>
  <outline>
    <contour>
      <point x="787" y="1530" type="move" name="top"/>
    </contour>
    <contour>
      <point x="787" y="0" type="move" name="bot"/>
    </contour>
    <contour>
      <point x="790" y="765" type="move" name="center"/>
    </contour>
    <contour>
      <point x="1030" y="1530" type="line"/>
      <point x="1030" y="867" type="line"/>
      <point x="544" y="867" type="line"/>
      <point x="544" y="1530" type="line"/>
      <point x="188" y="1530" type="line"/>
      <point x="188" y="0" type="line"/>
      <point x="544" y="0" type="line"/>
      <point x="544" y="686" type="line"/>
      <point x="1030" y="686" type="line"/>
      <point x="1030" y="0" type="line"/>
      <point x="1385" y="0" type="line"/>
      <point x="1385" y="1530" type="line"/>
    </contour>
  </outline>
</glyph>
<glyph name="I" format="1">
  <advance width="696"/>
  <unicode hex="0049"/>
  <outline>
    <contour>
      <point x="349" y="1530" type="move" name="top"/>
    </contour>
    <contour>
      <point x="357" y="0" type="move" name="ogonek"/>
    </contour>
    <contour>
      <point x="349" y="0" type="move" name="bot"/>
    </contour>
    <contour>
      <point x="171" y="1530" type="line"/>
      <point x="171" y="0" type="line"/>
      <point x="526" y="0" type="line"/>
      <point x="526" y="1530" type="line"/>
    </contour>
  </outline>
</glyph>
<glyph name="J" format="1">
  <advance width="984"/>
  <unicode hex="004A"/>
  <outline>
    <contour>
      <point x="571" y="1559" type="move" name="top"/>
    </contour>
    <contour>
      <point x="489" y="0" type="move" name="bot"/>
    </contour>
    <contour>
      <point x="355" y="-110" type="curve" smooth="yes"/>
      <point x="615" y="-110"/>
      <point x="808" y="-17"/>
      <point x="808" y="289" type="curve" smooth="yes"/>
      <point x="808" y="1559" type="line"/>
      <point x="340" y="1559" type="line"/>
      <point x="340" y="286" type="line" smooth="yes"/>
      <point x="340" y="240"/>
      <point x="338" y="144"/>
      <point x="296" y="139" type="curve" smooth="yes"/>
      <point x="282" y="138"/>
      <point x="130" y="137"/>
      <point x="107" y="137" type="curve"/>
      <point x="129" y="-91" type="line"/>
      <point x="187" y="-102"/>
      <point x="278" y="-110"/>
    </contour>
  </outline>
</glyph>
<glyph name="K" format="1">
  <advance width="1480"/>
  <unicode hex="004B"/>
  <outline>
    <contour>
      <point x="749" y="1530" type="move" name="top"/>
    </contour>
    <contour>
      <point x="749" y="0" type="move" name="bot"/>
    </contour>
    <contour>
      <point x="1014" y="1530" type="line"/>
      <point x="638" y="937" type="line"/>
      <point x="542" y="783" type="line"/>
      <point x="543" y="965" type="line"/>
      <point x="543" y="1530" type="line"/>
      <point x="188" y="1530" type="line"/>
      <point x="188" y="0" type="line"/>
      <point x="543" y="0" type="line"/>
      <point x="543" y="581" type="line"/>
      <point x="614" y="688" type="line"/>
      <point x="1059" y="0" type="line"/>
      <point x="1457" y="0" type="line"/>
      <point x="919" y="803" type="line"/>
      <point x="1398" y="1530" type="line"/>
    </contour>
  </outline>
</glyph>
<glyph name="L" format="1">
  <advance width="1102"/>
  <unicode hex="004C"/>
  <outline>
    <contour>
      <point x="429" y="1530" type="move" name="top"/>
    </contour>
    <contour>
      <point x="427" y="1175" type="move" name="caron.alt"/>
    </contour>
    <contour>
      <point x="578" y="0" type="move" name="bot"/>
    </contour>
    <contour>
      <point x="188" y="1530" type="line"/>
      <point x="188" y="0" type="line"/>
      <point x="1017" y="0" type="line"/>
      <point x="1029" y="186" type="line"/>
      <point x="544" y="186" type="line"/>
      <point x="544" y="1530" type="line"/>
    </contour>
  </outline>
</glyph>
<glyph name="M" format="1">
  <advance width="1867"/>
  <unicode hex="004D"/>
  <outline>
    <contour>
      <point x="932" y="1530" type="move" name="top"/>
    </contour>
    <contour>
      <point x="932" y="0" type="move" name="bot"/>
    </contour>
    <contour>
      <point x="1245" y="1530" type="line"/>
      <point x="936" y="459" type="line"/>
      <point x="930" y="459" type="line"/>
      <point x="615" y="1530" type="line"/>
      <point x="224" y="1530" type="line"/>
      <point x="132" y="0" type="line"/>
      <point x="423" y="0" type="line"/>
      <point x="486" y="1096" type="line"/>
      <point x="493" y="1096" type="line"/>
      <point x="816" y="0" type="line"/>
      <point x="1050" y="0" type="line"/>
      <point x="1364" y="1096" type="line"/>
      <point x="1372" y="1096" type="line"/>
      <point x="1437" y="0" type="line"/>
      <point x="1730" y="0" type="line"/>
      <point x="1636" y="1530" type="line"/>
    </contour>
  </outline>
</glyph>
<glyph name="N" format="1">
  <advance width="1587"/>
  <unicode hex="004E"/>
  <outline>
    <contour>
      <point x="806" y="1530" type="move" name="top"/>
    </contour>
    <contour>
      <point x="794" y="0" type="move" name="bot"/>
    </contour>
    <contour>
      <point x="1119" y="1530" type="line"/>
      <point x="1119" y="501" type="line"/>
      <point x="512" y="1530" type="line"/>
      <point x="188" y="1530" type="line"/>
      <point x="188" y="0" type="line"/>
      <point x="469" y="0" type="line"/>
      <point x="469" y="1000" type="line"/>
      <point x="1063" y="0" type="line"/>
      <point x="1399" y="0" type="line"/>
      <point x="1399" y="1530" type="line"/>
    </contour>
  </outline>
</glyph>
<glyph name="O" format="1">
  <advance width="1550"/>
  <unicode hex="004F"/>
  <outline>
    <contour>
      <point x="775" y="1530" type="move" name="top"/>
    </contour>
    <contour>
      <point x="884" y="0" type="move" name="ogonek"/>
    </contour>
    <contour>
      <point x="775" y="0" type="move" name="bot"/>
    </contour>
    <contour>
      <point x="776" y="179" type="curve" smooth="yes"/>
      <point x="569" y="179"/>
      <point x="516" y="208"/>
      <point x="513" y="342" type="curve" smooth="yes"/>
      <point x="511" y="398"/>
      <point x="511" y="663"/>
      <point x="511" y="764" type="curve" smooth="yes"/>
      <point x="511" y="868"/>
      <point x="511" y="1132"/>
      <point x="513" y="1188" type="curve" smooth="yes"/>
      <point x="516" y="1322"/>
      <point x="569" y="1351"/>
      <point x="776" y="1351" type="curve" smooth="yes"/>
      <point x="983" y="1351"/>
      <point x="1035" y="1322"/>
      <point x="1038" y="1188" type="curve" smooth="yes"/>
      <point x="1040" y="1132"/>
      <point x="1040" y="868"/>
      <point x="1040" y="764" type="curve" smooth="yes"/>
      <point x="1040" y="663"/>
      <point x="1040" y="398"/>
      <point x="1038" y="342" type="curve" smooth="yes"/>
      <point x="1035" y="208"/>
      <point x="983" y="179"/>
    </contour>
    <contour>
      <point x="774" y="-21" type="curve" smooth="yes"/>
      <point x="1198" y="-20"/>
      <point x="1396" y="82"/>
      <point x="1396" y="570" type="curve" smooth="yes"/>
      <point x="1396" y="960" type="line" smooth="yes"/>
      <point x="1396" y="1447"/>
      <point x="1187" y="1551"/>
      <point x="774" y="1551" type="curve" smooth="yes"/>
      <point x="350" y="1551"/>
      <point x="154" y="1445"/>
      <point x="154" y="960" type="curve" smooth="yes"/>
      <point x="154" y="570" type="line" smooth="yes"/>
      <point x="154" y="81"/>
      <point x="343" y="-21"/>
    </contour>
  </outline>
</glyph>
<glyph name="P" format="1">
  <advance width="1448"/>
  <unicode hex="0050"/>
  <outline>
    <contour>
      <point x="733" y="1530" type="move" name="top"/>
    </contour>
    <contour>
      <point x="733" y="0" type="move" name="bot"/>
    </contour>
    <contour>
      <point x="188" y="0" type="line"/>
      <point x="543" y="0" type="line"/>
      <point x="543" y="476" type="line"/>
      <point x="847" y="476" type="line" smooth="yes"/>
      <point x="1117" y="476"/>
      <point x="1332" y="518"/>
      <point x="1337" y="908" type="curve" smooth="yes"/>
      <point x="1337" y="1080" type="line" smooth="yes"/>
      <point x="1337" y="1469"/>
      <point x="1149" y="1530"/>
      <point x="810" y="1530" type="curve" smooth="yes"/>
      <point x="188" y="1530" type="line"/>
    </contour>
    <contour>
      <point x="543" y="655" type="line"/>
      <point x="543" y="1348" type="line"/>
      <point x="820" y="1348" type="line" smooth="yes"/>
      <point x="862" y="1348"/>
      <point x="923" y="1343"/>
      <point x="942" y="1328" type="curve" smooth="yes"/>
      <point x="974" y="1303"/>
      <point x="980" y="1111"/>
      <point x="982" y="1007" type="curve" smooth="yes"/>
      <point x="982" y="911"/>
      <point x="982" y="710"/>
      <point x="939" y="679" type="curve" smooth="yes"/>
      <point x="916" y="663"/>
      <point x="848" y="655"/>
      <point x="795" y="655" type="curve" smooth="yes"/>
    </contour>
  </outline>
</glyph>
<glyph name="Q" format="1">
  <advance width="1550"/>
  <unicode hex="0051"/>
  <outline>
    <contour>
      <point x="792" y="51" type="line"/>
      <point x="1081" y="-385" type="line"/>
      <point x="1295" y="-264" type="line"/>
      <point x="1071" y="91" type="line"/>
    </contour>
    <component base="O"/>
  </outline>
</glyph>
<glyph name="R" format="1">
  <advance width="1612"/>
  <unicode hex="0052"/>
  <outline>
    <contour>
      <point x="802" y="1559" type="move" name="top"/>
    </contour>
    <contour>
      <point x="802" y="0" type="move" name="bot"/>
    </contour>
    <contour>
      <point x="185" y="0" type="line"/>
      <point x="653" y="0" type="line"/>
      <point x="653" y="646" type="line"/>
      <point x="872" y="646" type="line" smooth="yes"/>
      <point x="923" y="646"/>
      <point x="957" y="571"/>
      <point x="965" y="515" type="curve" smooth="yes"/>
      <point x="987" y="0" type="line"/>
      <point x="1460" y="0" type="line"/>
      <point x="1434" y="447" type="line" smooth="yes"/>
      <point x="1426" y="607"/>
      <point x="1347" y="731"/>
      <point x="1116" y="761" type="curve"/>
      <point x="1116" y="765" type="line" smooth="yes"/>
      <point x="1365" y="794"/>
      <point x="1439" y="918"/>
      <point x="1439" y="1156" type="curve" smooth="yes"/>
      <point x="1439" y="1491"/>
      <point x="1265" y="1559"/>
      <point x="943" y="1559" type="curve" smooth="yes"/>
      <point x="185" y="1559" type="line"/>
    </contour>
    <contour>
      <point x="653" y="853" type="line"/>
      <point x="653" y="1351" type="line"/>
      <point x="881" y="1351" type="line" smooth="yes"/>
      <point x="977" y="1351"/>
      <point x="981" y="1179"/>
      <point x="981" y="1108" type="curve" smooth="yes"/>
      <point x="981" y="1031"/>
      <point x="972" y="853"/>
      <point x="886" y="853" type="curve" smooth="yes"/>
    </contour>
  </outline>
</glyph>
<glyph name="S" format="1">
  <advance width="1443"/>
  <unicode hex="0053"/>
  <outline>
    <contour>
      <point x="714" y="1530" type="move" name="top"/>
    </contour>
    <contour>
      <point x="714" y="0" type="move" name="bot"/>
    </contour>
    <contour>
      <point x="716" y="-21" type="curve" smooth="yes"/>
      <point x="1149" y="-21"/>
      <point x="1295" y="44"/>
      <point x="1295" y="479" type="curve" smooth="yes"/>
      <point x="1295" y="817"/>
      <point x="1140" y="876"/>
      <point x="888" y="921" type="curve" smooth="yes"/>
      <point x="630" y="966" type="line"/>
      <point x="553" y="981"/>
      <point x="532" y="993"/>
      <point x="519" y="1021" type="curve" smooth="yes"/>
      <point x="499" y="1038"/>
      <point x="495" y="1140"/>
      <point x="495" y="1183" type="curve" smooth="yes"/>
      <point x="495" y="1317"/>
      <point x="548" y="1341"/>
      <point x="726" y="1341" type="curve" smooth="yes"/>
      <point x="814" y="1341"/>
      <point x="887" y="1335"/>
      <point x="907" y="1316" type="curve" smooth="yes"/>
      <point x="928" y="1297"/>
      <point x="926" y="1208"/>
      <point x="931" y="1152" type="curve"/>
      <point x="1245" y="1189" type="line"/>
      <point x="1245" y="1513"/>
      <point x="1090" y="1551"/>
      <point x="701" y="1551" type="curve" smooth="yes"/>
      <point x="292" y="1551"/>
      <point x="155" y="1474"/>
      <point x="155" y="1091" type="curve" smooth="yes"/>
      <point x="155" y="840"/>
      <point x="242" y="744"/>
      <point x="450" y="699" type="curve" smooth="yes"/>
      <point x="752" y="639" type="line"/>
      <point x="795" y="628"/>
      <point x="896" y="607"/>
      <point x="896" y="587" type="curve" smooth="yes"/>
      <point x="933" y="580"/>
      <point x="940" y="450"/>
      <point x="940" y="349" type="curve" smooth="yes"/>
      <point x="941" y="211"/>
      <point x="888" y="185"/>
      <point x="713" y="185" type="curve" smooth="yes"/>
      <point x="610" y="185"/>
      <point x="530" y="193"/>
      <point x="507" y="218" type="curve" smooth="yes"/>
      <point x="485" y="243"/>
      <point x="486" y="366"/>
      <point x="478" y="435" type="curve"/>
      <point x="146" y="401" type="line"/>
      <point x="154" y="52"/>
      <point x="241" y="-21"/>
    </contour>
  </outline>
</glyph>
<glyph name="T" format="1">
  <advance width="1262"/>
  <unicode hex="0054"/>
  <outline>
    <contour>
      <point x="631" y="1559" type="move" name="top"/>
    </contour>
    <contour>
      <point x="631" y="0" type="move" name="bot"/>
    </contour>
    <contour>
      <point x="631" y="857" type="move" name="mid"/>
    </contour>
    <contour>
      <point x="32" y="1559" type="line"/>
      <point x="32" y="1329" type="line"/>
      <point x="395" y="1329" type="line"/>
      <point x="395" y="0" type="line"/>
      <point x="862" y="0" type="line"/>
      <point x="862" y="1329" type="line"/>
      <point x="1230" y="1329" type="line"/>
      <point x="1230" y="1559" type="line"/>
    </contour>
  </outline>
</glyph>
<glyph name="U" format="1">
  <advance width="1522"/>
  <unicode hex="0055"/>
  <outline>
    <contour>
      <point x="761" y="1530" type="move" name="top"/>
    </contour>
    <contour>
      <point x="854" y="0" type="move" name="ogonek"/>
    </contour>
    <contour>
      <point x="761" y="0" type="move" name="bot"/>
    </contour>
    <contour>
      <point x="150" y="1530" type="line"/>
      <point x="150" y="495" type="line" smooth="yes"/>
      <point x="150" y="49"/>
      <point x="392" y="-21"/>
      <point x="759" y="-21" type="curve" smooth="yes"/>
      <point x="1149" y="-21"/>
      <point x="1372" y="62"/>
      <point x="1372" y="495" type="curve" smooth="yes"/>
      <point x="1372" y="1530" type="line"/>
      <point x="1017" y="1530" type="line"/>
      <point x="1017" y="368" type="line" smooth="yes"/>
      <point x="1017" y="214"/>
      <point x="964" y="178"/>
      <point x="761" y="178" type="curve" smooth="yes"/>
      <point x="539" y="178"/>
      <point x="505" y="208"/>
      <point x="505" y="427" type="curve" smooth="yes"/>
      <point x="505" y="1530" type="line"/>
    </contour>
  </outline>
</glyph>
<glyph name="V" format="1">
  <advance width="1435"/>
  <unicode hex="0056"/>
  <outline>
    <contour>
      <point x="1014" y="1530" type="line"/>
      <point x="719" y="318" type="line"/>
      <point x="714" y="318" type="line"/>
      <point x="411" y="1530" type="line"/>
      <point x="53" y="1530" type="line"/>
      <point x="487" y="0" type="line"/>
      <point x="938" y="0" type="line"/>
      <point x="1376" y="1530" type="line"/>
    </contour>
  </outline>
</glyph>
<glyph name="W" format="1">
  <advance width="1969"/>
  <unicode hex="0057"/>
  <outline>
    <contour>
      <point x="982" y="1530" type="move" name="top"/>
    </contour>
    <contour>
      <point x="982" y="0" type="move" name="bot"/>
    </contour>
    <contour>
      <point x="1577" y="1530" type="line"/>
      <point x="1397" y="429" type="line"/>
      <point x="1383" y="428" type="line"/>
      <point x="1145" y="1530" type="line"/>
      <point x="838" y="1530" type="line"/>
      <point x="599" y="423" type="line"/>
      <point x="588" y="423" type="line"/>
      <point x="417" y="1530" type="line"/>
      <point x="77" y="1530" type="line"/>
      <point x="353" y="0" type="line"/>
      <point x="724" y="0" type="line"/>
      <point x="977" y="1073" type="line"/>
      <point x="990" y="1073" type="line"/>
      <point x="1228" y="0" type="line"/>
      <point x="1607" y="0" type="line"/>
      <point x="1889" y="1530" type="line"/>
    </contour>
  </outline>
</glyph>
<glyph name="X" format="1">
  <advance width="1405"/>
  <unicode hex="0058"/>
  <outline>
    <contour>
      <point x="1017" y="1530" type="line"/>
      <point x="654" y="917" type="line"/>
      <point x="543" y="851" type="line"/>
      <point x="30" y="0" type="line"/>
      <point x="375" y="0" type="line"/>
      <point x="761" y="633" type="line"/>
      <point x="879" y="707" type="line"/>
      <point x="1361" y="1530" type="line"/>
    </contour>
    <contour>
      <point x="79" y="1530" type="line"/>
      <point x="1019" y="0" type="line"/>
      <point x="1361" y="0" type="line"/>
      <point x="417" y="1530" type="line"/>
    </contour>
  </outline>
</glyph>
<glyph name="Y" format="1">
  <advance width="1349"/>
  <unicode hex="0059"/>
  <outline>
    <contour>
      <point x="682" y="1530" type="move" name="top"/>
    </contour>
    <contour>
      <point x="682" y="0" type="move" name="bot"/>
    </contour>
    <contour>
      <point x="972" y="1530" type="line"/>
      <point x="677" y="814" type="line"/>
      <point x="673" y="814" type="line"/>
      <point x="388" y="1530" type="line"/>
      <point x="44" y="1530" type="line"/>
      <point x="494" y="526" type="line"/>
      <point x="494" y="0" type="line"/>
      <point x="849" y="0" type="line"/>
      <point x="849" y="522" type="line"/>
      <point x="1310" y="1530" type="line"/>
    </contour>
  </outline>
</glyph>
<glyph name="Z" format="1">
  <advance width="1179"/>
  <unicode hex="005A"/>
  <outline>
    <contour>
      <point x="593" y="1530" type="move" name="top"/>
    </contour>
    <contour>
      <point x="593" y="0" type="move" name="bot"/>
    </contour>
    <contour>
      <point x="151" y="1530" type="line"/>
      <point x="168" y="1325" type="line"/>
      <point x="711" y="1325" type="line"/>
      <point x="137" y="210" type="line"/>
      <point x="143" y="0" type="line"/>
      <point x="1066" y="0" type="line"/>
      <point x="1070" y="205" type="line"/>
      <point x="502" y="205" type="line"/>
      <point x="1057" y="1323" type="line"/>
      <point x="1053" y="1530" type="line"/>
    </contour>
  </outline>
</glyph>
<glyph name="bracketleft" format="1">
  <advance width="948"/>
  <unicode hex="005B"/>
  <outline>
    <contour>
      <point x="216" y="1707" type="line"/>
      <point x="216" y="-290" type="line"/>
      <point x="863" y="-290" type="line"/>
      <point x="863" y="-104" type="line"/>
      <point x="575" y="-104" type="line"/>
      <point x="575" y="1522" type="line"/>
      <point x="863" y="1522" type="line"/>
      <point x="863" y="1707" type="line"/>
    </contour>
  </outline>
</glyph>
<glyph name="backslash" format="1">
  <advance width="1081"/>
  <unicode hex="005C"/>
  <outline>
    <contour>
      <point x="168" y="1568" type="line"/>
      <point x="520" y="-9" type="line"/>
      <point x="897" y="-9" type="line"/>
      <point x="548" y="1568" type="line"/>
    </contour>
  </outline>
</glyph>
<glyph name="bracketright" format="1">
  <advance width="1063"/>
  <unicode hex="005D"/>
  <outline>
    <contour>
      <point x="212" y="1707" type="line"/>
      <point x="212" y="1522" type="line"/>
      <point x="499" y="1522" type="line"/>
      <point x="499" y="-104" type="line"/>
      <point x="212" y="-104" type="line"/>
      <point x="212" y="-290" type="line"/>
      <point x="858" y="-290" type="line"/>
      <point x="858" y="1707" type="line"/>
    </contour>
  </outline>
</glyph>
<glyph name="asciicircum" format="1">
  <advance width="1114"/>
  <unicode hex="005E"/>
  <outline>
    <contour>
      <point x="557" y="1520" type="curve" smooth="yes"/>
      <point x="493" y="1520"/>
      <point x="434" y="1499"/>
      <point x="404" y="1434" type="curve" smooth="yes"/>
      <point x="53" y="707" type="line" smooth="yes"/>
      <point x="10" y="617"/>
      <point x="141" y="548"/>
      <point x="196" y="639" type="curve" smooth="yes"/>
      <point x="557" y="1251" type="line"/>
      <point x="919" y="639" type="line" smooth="yes"/>
      <point x="973" y="548"/>
      <point x="1104" y="617"/>
      <point x="1062" y="707" type="curve" smooth="yes"/>
      <point x="711" y="1434" type="line" smooth="yes"/>
      <point x="680" y="1499"/>
      <point x="621" y="1520"/>
    </contour>
  </outline>
</glyph>
<glyph name="underscore" format="1">
  <advance width="869"/>
  <unicode hex="005F"/>
  <outline>
    <contour>
      <point x="6" y="-94" type="line"/>
      <point x="6" y="-272" type="line"/>
      <point x="863" y="-272" type="line"/>
      <point x="863" y="-94" type="line"/>
    </contour>
  </outline>
</glyph>
<glyph name="grave" format="1">
  <advance width="892"/>
  <unicode hex="0060"/>
  <outline>
    <contour>
      <point x="555" y="1168" type="move" name="_top"/>
    </contour>
    <contour>
      <point x="187" y="1649" type="curve" smooth="yes"/>
      <point x="187" y="1601"/>
      <point x="213" y="1548"/>
      <point x="273" y="1518" type="curve" smooth="yes"/>
      <point x="326" y="1490"/>
      <point x="667" y="1375"/>
      <point x="739" y="1353" type="curve" smooth="yes"/>
      <point x="754" y="1348"/>
      <point x="768" y="1351"/>
      <point x="776" y="1358" type="curve" smooth="yes"/>
      <point x="787" y="1368"/>
      <point x="789" y="1387"/>
      <point x="771" y="1403" type="curve" smooth="yes"/>
      <point x="714" y="1455"/>
      <point x="473" y="1700"/>
      <point x="413" y="1741" type="curve" smooth="yes"/>
      <point x="381" y="1762"/>
      <point x="349" y="1777"/>
      <point x="314" y="1777" type="curve" smooth="yes"/>
      <point x="235" y="1777"/>
      <point x="187" y="1715"/>
    </contour>
  </outline>
</glyph>
<glyph name="a" format="1">
  <advance width="1290"/>
  <unicode hex="0061"/>
  <outline>
    <contour>
      <point x="628" y="1168" type="move" name="top"/>
    </contour>
    <contour>
      <point x="996" y="0" type="move" name="ogonek"/>
    </contour>
    <contour>
      <point x="644" y="0" type="move" name="bot"/>
    </contour>
    <contour>
      <point x="166" y="922" type="curve" smooth="yes"/>
      <point x="166" y="912"/>
      <point x="166" y="863"/>
      <point x="167" y="853" type="curve"/>
      <point x="455" y="856" type="line"/>
      <point x="455" y="877"/>
      <point x="456" y="962"/>
      <point x="458" y="976" type="curve" smooth="yes"/>
      <point x="465" y="1021"/>
      <point x="515" y="1031"/>
      <point x="634" y="1031" type="curve" smooth="yes"/>
      <point x="739" y="1031"/>
      <point x="812" y="1018"/>
      <point x="812" y="973" type="curve" smooth="yes"/>
      <point x="812" y="667" type="line"/>
      <point x="758" y="667"/>
      <point x="618" y="656"/>
      <point x="573" y="653" type="curve" smooth="yes"/>
      <point x="295" y="632"/>
      <point x="132" y="583"/>
      <point x="132" y="362" type="curve" smooth="yes"/>
      <point x="132" y="90"/>
      <point x="228" y="-21"/>
      <point x="498" y="-21" type="curve" smooth="yes"/>
      <point x="674" y="-21"/>
      <point x="777" y="20"/>
      <point x="826" y="151" type="curve"/>
      <point x="866" y="0" type="line"/>
      <point x="1139" y="0" type="line"/>
      <point x="1139" y="805" type="line" smooth="yes"/>
      <point x="1139" y="1130"/>
      <point x="952" y="1189"/>
      <point x="641" y="1189" type="curve" smooth="yes"/>
      <point x="406" y="1189"/>
      <point x="166" y="1174"/>
    </contour>
    <contour>
      <point x="812" y="276" type="line"/>
      <point x="812" y="204"/>
      <point x="739" y="151"/>
      <point x="592" y="151" type="curve" smooth="yes"/>
      <point x="498" y="151"/>
      <point x="452" y="166"/>
      <point x="448" y="245" type="curve" smooth="yes"/>
      <point x="448" y="261"/>
      <point x="448" y="420"/>
      <point x="448" y="442" type="curve" smooth="yes"/>
      <point x="448" y="500"/>
      <point x="551" y="538"/>
      <point x="812" y="538" type="curve"/>
    </contour>
  </outline>
</glyph>
<glyph name="b" format="1">
  <advance width="1366"/>
  <unicode hex="0062"/>
  <outline>
    <contour>
      <point x="680" y="1174" type="move" name="top"/>
    </contour>
    <contour>
      <point x="166" y="1569" type="line"/>
      <point x="166" y="0" type="line"/>
      <point x="475" y="0" type="line"/>
      <point x="500" y="129" type="line"/>
      <point x="546" y="33"/>
      <point x="667" y="-21"/>
      <point x="830" y="-21" type="curve" smooth="yes"/>
      <point x="1147" y="-21"/>
      <point x="1227" y="123"/>
      <point x="1229" y="457" type="curve" smooth="yes"/>
      <point x="1230" y="736" type="line" smooth="yes"/>
      <point x="1232" y="1029"/>
      <point x="1154" y="1195"/>
      <point x="821" y="1195" type="curve" smooth="yes"/>
      <point x="659" y="1195"/>
      <point x="558" y="1153"/>
      <point x="505" y="1060" type="curve"/>
      <point x="505" y="1569" type="line"/>
    </contour>
    <contour>
      <point x="697" y="148" type="curve" smooth="yes"/>
      <point x="580" y="148"/>
      <point x="505" y="174"/>
      <point x="505" y="242" type="curve" smooth="yes"/>
      <point x="505" y="892" type="line" smooth="yes"/>
      <point x="505" y="1013"/>
      <point x="561" y="1027"/>
      <point x="696" y="1027" type="curve" smooth="yes"/>
      <point x="850" y="1027"/>
      <point x="885" y="1002"/>
      <point x="885" y="885" type="curve" smooth="yes"/>
      <point x="885" y="289" type="line" smooth="yes"/>
      <point x="885" y="159"/>
      <point x="828" y="148"/>
    </contour>
  </outline>
</glyph>
<glyph name="c" format="1">
  <advance width="1287"/>
  <unicode hex="0063"/>
  <outline>
    <contour>
      <point x="632" y="1174" type="move" name="top"/>
    </contour>
    <contour>
      <point x="642" y="0" type="move" name="bot"/>
    </contour>
    <contour>
      <point x="136" y="747" type="curve" smooth="yes"/>
      <point x="136" y="455" type="line" smooth="yes"/>
      <point x="138" y="70"/>
      <point x="292" y="-21"/>
      <point x="661" y="-21" type="curve" smooth="yes"/>
      <point x="973" y="-21"/>
      <point x="1151" y="20"/>
      <point x="1163" y="289" type="curve" smooth="yes"/>
      <point x="1168" y="404" type="line"/>
      <point x="849" y="422" type="line"/>
      <point x="842" y="214" type="line" smooth="yes"/>
      <point x="837" y="157"/>
      <point x="783" y="149"/>
      <point x="655" y="149" type="curve" smooth="yes"/>
      <point x="504" y="149"/>
      <point x="469" y="177"/>
      <point x="469" y="347" type="curve" smooth="yes"/>
      <point x="469" y="866" type="line" smooth="yes"/>
      <point x="469" y="993"/>
      <point x="507" y="1026"/>
      <point x="666" y="1026" type="curve" smooth="yes"/>
      <point x="800" y="1026"/>
      <point x="830" y="1005"/>
      <point x="837" y="961" type="curve" smooth="yes"/>
      <point x="850" y="757" type="line"/>
      <point x="1168" y="778" type="line"/>
      <point x="1158" y="924" type="line" smooth="yes"/>
      <point x="1142" y="1174"/>
      <point x="946" y="1195"/>
      <point x="669" y="1195" type="curve" smooth="yes"/>
      <point x="300" y="1195"/>
      <point x="136" y="1126"/>
    </contour>
  </outline>
</glyph>
<glyph name="d" format="1">
  <advance width="1365"/>
  <unicode hex="0064"/>
  <outline>
    <contour>
      <point x="591" y="1228" type="move" name="top"/>
    </contour>
    <contour>
      <point x="1069" y="1174" type="move" name="caron.alt"/>
    </contour>
    <contour>
      <point x="1009" y="1377" type="move" name="mid"/>
    </contour>
    <contour>
      <point x="860" y="1569" type="line"/>
      <point x="860" y="1065" type="line"/>
      <point x="809" y="1156"/>
      <point x="713" y="1195"/>
      <point x="549" y="1195" type="curve" smooth="yes"/>
      <point x="217" y="1195"/>
      <point x="136" y="1050"/>
      <point x="136" y="708" type="curve" smooth="yes"/>
      <point x="136" y="455" type="line" smooth="yes"/>
      <point x="136" y="144"/>
      <point x="209" y="-21"/>
      <point x="539" y="-21" type="curve" smooth="yes"/>
      <point x="702" y="-21"/>
      <point x="815" y="33"/>
      <point x="864" y="129" type="curve"/>
      <point x="890" y="0" type="line"/>
      <point x="1199" y="0" type="line"/>
      <point x="1199" y="1569" type="line"/>
    </contour>
    <contour>
      <point x="669" y="148" type="curve" smooth="yes"/>
      <point x="514" y="148"/>
      <point x="483" y="195"/>
      <point x="482" y="321" type="curve" smooth="yes"/>
      <point x="482" y="858" type="line" smooth="yes"/>
      <point x="481" y="998"/>
      <point x="535" y="1027"/>
      <point x="669" y="1027" type="curve" smooth="yes"/>
      <point x="792" y="1027"/>
      <point x="859" y="1005"/>
      <point x="859" y="933" type="curve" smooth="yes"/>
      <point x="859" y="234" type="line" smooth="yes"/>
      <point x="859" y="169"/>
      <point x="782" y="148"/>
    </contour>
  </outline>
</glyph>
<glyph name="e" format="1">
  <advance width="1438"/>
  <unicode hex="0065"/>
  <outline>
    <contour>
      <point x="707" y="1231" type="move" name="top"/>
    </contour>
    <contour>
      <point x="821" y="0" type="move" name="ogonek"/>
    </contour>
    <contour>
      <point x="714" y="0" type="move" name="bot"/>
    </contour>
    <contour>
      <point x="725" y="-21" type="curve" smooth="yes"/>
      <point x="1109" y="-21"/>
      <point x="1295" y="55"/>
      <point x="1297" y="329" type="curve" smooth="yes"/>
      <point x="1297" y="350"/>
      <point x="1295" y="403"/>
      <point x="1292" y="428" type="curve"/>
      <point x="863" y="431" type="line"/>
      <point x="859" y="202" type="line" smooth="yes"/>
      <point x="858" y="182"/>
      <point x="786" y="171"/>
      <point x="727" y="171" type="curve" smooth="yes"/>
      <point x="659" y="171"/>
      <point x="583" y="178"/>
      <point x="582" y="209" type="curve" smooth="yes"/>
      <point x="579" y="244"/>
      <point x="579" y="547"/>
      <point x="579" y="586" type="curve"/>
      <point x="1300" y="586" type="line" smooth="yes"/>
      <point x="1302" y="844" type="line"/>
      <point x="1300" y="1213"/>
      <point x="1044" y="1252"/>
      <point x="721" y="1252" type="curve" smooth="yes"/>
      <point x="393" y="1252"/>
      <point x="135" y="1209"/>
      <point x="135" y="831" type="curve" smooth="yes"/>
      <point x="135" y="388" type="line" smooth="yes"/>
      <point x="135" y="16"/>
      <point x="396" y="-21"/>
    </contour>
    <contour>
      <point x="579" y="736" type="line"/>
      <point x="580" y="758"/>
      <point x="579" y="1007"/>
      <point x="585" y="1030" type="curve" smooth="yes"/>
      <point x="592" y="1056"/>
      <point x="655" y="1063"/>
      <point x="722" y="1063" type="curve" smooth="yes"/>
      <point x="779" y="1063"/>
      <point x="853" y="1056"/>
      <point x="855" y="1028" type="curve" smooth="yes"/>
      <point x="857" y="1002"/>
      <point x="858" y="759"/>
      <point x="859" y="736" type="curve"/>
    </contour>
  </outline>
</glyph>
<glyph name="f" format="1">
  <advance width="1060"/>
  <unicode hex="0066"/>
  <outline>
    <contour>
      <point x="532" y="1323" type="move" name="top"/>
    </contour>
    <contour>
      <point x="274" y="1231" type="curve"/>
      <point x="93" y="1231" type="line"/>
      <point x="93" y="1059" type="line"/>
      <point x="274" y="1059" type="line"/>
      <point x="274" y="0" type="line"/>
      <point x="718" y="0" type="line"/>
      <point x="718" y="1059" type="line"/>
      <point x="992" y="1059" type="line"/>
      <point x="992" y="1231" type="line"/>
      <point x="718" y="1231" type="line"/>
      <point x="717" y="1391" type="line" smooth="yes"/>
      <point x="717" y="1433"/>
      <point x="779" y="1435"/>
      <point x="802" y="1435" type="curve" smooth="yes"/>
      <point x="821" y="1435"/>
      <point x="976" y="1435"/>
      <point x="988" y="1434" type="curve"/>
      <point x="988" y="1618" type="line"/>
      <point x="889" y="1646"/>
      <point x="787" y="1656"/>
      <point x="689" y="1656" type="curve" smooth="yes"/>
      <point x="397" y="1656"/>
      <point x="274" y="1549"/>
    </contour>
  </outline>
</glyph>
<glyph name="g" format="1">
  <advance width="1464"/>
  <unicode hex="0067"/>
  <outline>
    <contour>
      <point x="722" y="1231" type="move" name="top"/>
    </contour>
    <contour>
      <point x="729" y="0" type="move" name="bot"/>
    </contour>
    <contour>
      <point x="139" y="820" type="curve" smooth="yes"/>
      <point x="139" y="490" type="line" smooth="yes"/>
      <point x="139" y="194"/>
      <point x="241" y="66"/>
      <point x="557" y="66" type="curve" smooth="yes"/>
      <point x="704" y="66"/>
      <point x="817" y="102"/>
      <point x="871" y="187" type="curve"/>
      <point x="871" y="-73" type="line" smooth="yes"/>
      <point x="841" y="-124"/>
      <point x="774" y="-152"/>
      <point x="624" y="-152" type="curve" smooth="yes"/>
      <point x="506" y="-152"/>
      <point x="384" y="-138"/>
      <point x="305" y="-116" type="curve"/>
      <point x="263" y="-354" type="line"/>
      <point x="371" y="-386"/>
      <point x="508" y="-409"/>
      <point x="684" y="-409" type="curve" smooth="yes"/>
      <point x="1135" y="-409"/>
      <point x="1306" y="-243"/>
      <point x="1306" y="161" type="curve" smooth="yes"/>
      <point x="1307" y="1230" type="line"/>
      <point x="908" y="1230" type="line"/>
      <point x="878" y="1115" type="line"/>
      <point x="818" y="1210"/>
      <point x="705" y="1252"/>
      <point x="544" y="1252" type="curve" smooth="yes"/>
      <point x="247" y="1252"/>
      <point x="139" y="1128"/>
    </contour>
    <contour>
      <point x="728" y="261" type="curve" smooth="yes"/>
      <point x="621" y="261"/>
      <point x="584" y="297"/>
      <point x="583" y="340" type="curve" smooth="yes"/>
      <point x="582" y="378"/>
      <point x="582" y="935"/>
      <point x="582" y="980" type="curve" smooth="yes"/>
      <point x="582" y="1053"/>
      <point x="646" y="1063"/>
      <point x="721" y="1063" type="curve" smooth="yes"/>
      <point x="788" y="1063"/>
      <point x="863" y="1049"/>
      <point x="863" y="1012" type="curve" smooth="yes"/>
      <point x="862" y="291" type="line" smooth="yes"/>
      <point x="862" y="267"/>
      <point x="764" y="261"/>
    </contour>
  </outline>
</glyph>
<glyph name="h" format="1">
  <advance width="1359"/>
  <unicode hex="0068"/>
  <outline>
    <contour>
      <point x="833" y="1396" type="move" name="top"/>
    </contour>
    <contour>
      <point x="678" y="0" type="move" name="bot"/>
    </contour>
    <contour>
      <point x="677" y="587" type="move" name="center"/>
    </contour>
    <contour>
      <point x="500" y="1309" type="move" name="mid"/>
    </contour>
    <contour>
      <point x="166" y="1569" type="line"/>
      <point x="166" y="0" type="line"/>
      <point x="505" y="0" type="line"/>
      <point x="505" y="962" type="line" smooth="yes"/>
      <point x="505" y="1007"/>
      <point x="619" y="1027"/>
      <point x="681" y="1027" type="curve" smooth="yes"/>
      <point x="832" y="1027"/>
      <point x="867" y="1008"/>
      <point x="867" y="826" type="curve" smooth="yes"/>
      <point x="867" y="0" type="line"/>
      <point x="1206" y="0" type="line"/>
      <point x="1206" y="809" type="line" smooth="yes"/>
      <point x="1206" y="1053"/>
      <point x="1134" y="1195"/>
      <point x="812" y="1195" type="curve" smooth="yes"/>
      <point x="669" y="1195"/>
      <point x="557" y="1158"/>
      <point x="505" y="1082" type="curve"/>
      <point x="505" y="1569" type="line"/>
    </contour>
  </outline>
</glyph>
<glyph name="i" format="1">
  <advance width="672"/>
  <unicode hex="0069"/>
  <outline>
    <contour>
      <point x="133" y="0" type="move" name="ogonek"/>
    </contour>
    <component base="dotlessi" xOffset="-4"/>
    <component base="dotaccent" xOffset="-46"/>
  </outline>
</glyph>
<glyph name="k" format="1">
  <advance width="1271"/>
  <unicode hex="006B"/>
  <outline>
    <contour>
      <point x="820" y="1368" type="move" name="top"/>
    </contour>
    <contour>
      <point x="645" y="0" type="move" name="bot"/>
    </contour>
    <contour>
      <point x="641" y="0" type="move" name="bottom"/>
    </contour>
    <contour>
      <point x="165" y="1565" type="line"/>
      <point x="165" y="0" type="line"/>
      <point x="494" y="0" type="line"/>
      <point x="494" y="472" type="line"/>
      <point x="569" y="566" type="line"/>
      <point x="897" y="0" type="line"/>
      <point x="1259" y="0" type="line"/>
      <point x="837" y="669" type="line"/>
      <point x="1226" y="1168" type="line"/>
      <point x="875" y="1168" type="line"/>
      <point x="631" y="857" type="line" smooth="yes"/>
      <point x="594" y="817"/>
      <point x="530" y="725"/>
      <point x="493" y="686" type="curve"/>
      <point x="493" y="717"/>
      <point x="494" y="818"/>
      <point x="494" y="851" type="curve" smooth="yes"/>
      <point x="494" y="1565" type="line"/>
    </contour>
  </outline>
</glyph>
<glyph name="l" format="1">
  <advance width="683"/>
  <unicode hex="006C"/>
  <outline>
    <contour>
      <point x="357" y="1530" type="move" name="top"/>
    </contour>
    <contour>
      <point x="403" y="1174" type="move" name="caron.alt"/>
    </contour>
    <contour>
      <point x="349" y="0" type="move" name="bot"/>
    </contour>
    <contour>
      <point x="353" y="1056" type="move" name="mid"/>
    </contour>
    <contour>
      <point x="349" y="0" type="move" name="bottom"/>
    </contour>
    <contour>
      <point x="183" y="1569" type="line"/>
      <point x="183" y="0" type="line"/>
      <point x="522" y="0" type="line"/>
      <point x="522" y="1569" type="line"/>
    </contour>
  </outline>
</glyph>
<glyph name="m" format="1">
  <advance width="1984"/>
  <unicode hex="006D"/>
  <outline>
    <contour>
      <point x="996" y="1174" type="move" name="top"/>
    </contour>
    <contour>
      <point x="996" y="0" type="move" name="bot"/>
    </contour>
    <contour>
      <point x="1124" y="1055" type="curve"/>
      <point x="1072" y="1156"/>
      <point x="973" y="1195"/>
      <point x="823" y="1195" type="curve" smooth="yes"/>
      <point x="676" y="1195"/>
      <point x="557" y="1161"/>
      <point x="498" y="1057" type="curve"/>
      <point x="472" y="1174" type="line"/>
      <point x="166" y="1174" type="line"/>
      <point x="166" y="0" type="line"/>
      <point x="502" y="0" type="line"/>
      <point x="502" y="976" type="line" smooth="yes"/>
      <point x="502" y="1021"/>
      <point x="611" y="1034"/>
      <point x="666" y="1034" type="curve" smooth="yes"/>
      <point x="801" y="1034"/>
      <point x="836" y="1000"/>
      <point x="836" y="873" type="curve" smooth="yes"/>
      <point x="836" y="0" type="line"/>
      <point x="1169" y="0" type="line"/>
      <point x="1169" y="866" type="line" smooth="yes"/>
      <point x="1169" y="906"/>
      <point x="1168" y="942"/>
      <point x="1172" y="972" type="curve" smooth="yes"/>
      <point x="1186" y="1014"/>
      <point x="1257" y="1034"/>
      <point x="1354" y="1034" type="curve" smooth="yes"/>
      <point x="1465" y="1034"/>
      <point x="1498" y="977"/>
      <point x="1498" y="833" type="curve" smooth="yes"/>
      <point x="1498" y="0" type="line"/>
      <point x="1835" y="0" type="line"/>
      <point x="1835" y="776" type="line" smooth="yes"/>
      <point x="1835" y="1093"/>
      <point x="1741" y="1195"/>
      <point x="1452" y="1195" type="curve" smooth="yes"/>
      <point x="1292" y="1195"/>
      <point x="1180" y="1153"/>
    </contour>
  </outline>
</glyph>
<glyph name="n" format="1">
  <advance width="1481"/>
  <unicode hex="006E"/>
  <outline>
    <contour>
      <point x="738" y="1231" type="move" name="top"/>
    </contour>
    <contour>
      <point x="738" y="0" type="move" name="bot"/>
    </contour>
    <contour>
      <point x="599" y="1115" type="curve"/>
      <point x="568" y="1231" type="line"/>
      <point x="170" y="1231" type="line"/>
      <point x="170" y="0" type="line"/>
      <point x="614" y="0" type="line"/>
      <point x="614" y="995" type="line" smooth="yes"/>
      <point x="614" y="1043"/>
      <point x="686" y="1062"/>
      <point x="766" y="1062" type="curve" smooth="yes"/>
      <point x="823" y="1062"/>
      <point x="885" y="1037"/>
      <point x="885" y="975" type="curve" smooth="yes"/>
      <point x="885" y="0" type="line"/>
      <point x="1329" y="0" type="line"/>
      <point x="1329" y="870" type="line" smooth="yes"/>
      <point x="1329" y="1118"/>
      <point x="1213" y="1252"/>
      <point x="935" y="1252" type="curve" smooth="yes"/>
      <point x="786" y="1252"/>
      <point x="650" y="1210"/>
    </contour>
  </outline>
</glyph>
<glyph name="o" format="1">
  <advance width="1342"/>
  <unicode hex="006F"/>
  <outline>
    <contour>
      <point x="670" y="1174" type="move" name="top"/>
    </contour>
    <contour>
      <point x="768" y="0" type="move" name="ogonek"/>
    </contour>
    <contour>
      <point x="670" y="0" type="move" name="bot"/>
    </contour>
    <contour>
      <point x="136" y="725" type="curve" smooth="yes"/>
      <point x="136" y="478" type="line" smooth="yes"/>
      <point x="136" y="58"/>
      <point x="281" y="-21"/>
      <point x="672" y="-21" type="curve" smooth="yes"/>
      <point x="1058" y="-21"/>
      <point x="1206" y="54"/>
      <point x="1206" y="477" type="curve" smooth="yes"/>
      <point x="1206" y="725" type="line" smooth="yes"/>
      <point x="1206" y="1133"/>
      <point x="1047" y="1195"/>
      <point x="673" y="1195" type="curve" smooth="yes"/>
      <point x="307" y="1195"/>
      <point x="136" y="1134"/>
    </contour>
    <contour>
      <point x="672" y="160" type="curve" smooth="yes"/>
      <point x="562" y="160"/>
      <point x="482" y="172"/>
      <point x="482" y="217" type="curve"/>
      <point x="481" y="968" type="line"/>
      <point x="481" y="1026"/>
      <point x="597" y="1026"/>
      <point x="671" y="1026" type="curve" smooth="yes"/>
      <point x="745" y="1026"/>
      <point x="861" y="1026"/>
      <point x="861" y="968" type="curve" smooth="yes"/>
      <point x="860" y="217" type="line" smooth="yes"/>
      <point x="860" y="170"/>
      <point x="781" y="160"/>
    </contour>
  </outline>
</glyph>
<glyph name="p" format="1">
  <advance width="1364"/>
  <unicode hex="0070"/>
  <outline>
    <contour>
      <point x="681" y="1174" type="move" name="top"/>
    </contour>
    <contour>
      <point x="681" y="0" type="move" name="bot"/>
    </contour>
    <contour>
      <point x="166" y="-396" type="line"/>
      <point x="505" y="-386" type="line"/>
      <point x="505" y="94" type="line"/>
      <point x="544" y="16"/>
      <point x="659" y="-21"/>
      <point x="819" y="-21" type="curve" smooth="yes"/>
      <point x="1146" y="-21"/>
      <point x="1228" y="124"/>
      <point x="1228" y="474" type="curve" smooth="yes"/>
      <point x="1228" y="719" type="line" smooth="yes"/>
      <point x="1228" y="1053"/>
      <point x="1145" y="1195"/>
      <point x="830" y="1195" type="curve" smooth="yes"/>
      <point x="664" y="1195"/>
      <point x="539" y="1152"/>
      <point x="489" y="1057" type="curve"/>
      <point x="463" y="1174" type="line"/>
      <point x="166" y="1174" type="line"/>
    </contour>
    <contour>
      <point x="695" y="148" type="curve" smooth="yes"/>
      <point x="560" y="148"/>
      <point x="502" y="185"/>
      <point x="502" y="354" type="curve" smooth="yes"/>
      <point x="502" y="850" type="line" smooth="yes"/>
      <point x="502" y="1006"/>
      <point x="538" y="1027"/>
      <point x="695" y="1027" type="curve" smooth="yes"/>
      <point x="871" y="1027"/>
      <point x="883" y="959"/>
      <point x="883" y="873" type="curve" smooth="yes"/>
      <point x="883" y="333" type="line" smooth="yes"/>
      <point x="883" y="169"/>
      <point x="848" y="148"/>
    </contour>
  </outline>
</glyph>
<glyph name="q" format="1">
  <advance width="1364"/>
  <unicode hex="0071"/>
  <outline>
    <contour>
      <point x="136" y="719" type="curve" smooth="yes"/>
      <point x="136" y="474" type="line" smooth="yes"/>
      <point x="136" y="124"/>
      <point x="218" y="-21"/>
      <point x="550" y="-21" type="curve" smooth="yes"/>
      <point x="710" y="-21"/>
      <point x="820" y="19"/>
      <point x="859" y="97" type="curve"/>
      <point x="859" y="-386" type="line"/>
      <point x="1198" y="-396" type="line"/>
      <point x="1198" y="1174" type="line"/>
      <point x="901" y="1174" type="line"/>
      <point x="875" y="1057" type="line"/>
      <point x="825" y="1152"/>
      <point x="706" y="1195"/>
      <point x="540" y="1195" type="curve" smooth="yes"/>
      <point x="219" y="1195"/>
      <point x="136" y="1053"/>
    </contour>
    <contour>
      <point x="668" y="148" type="curve" smooth="yes"/>
      <point x="516" y="148"/>
      <point x="480" y="169"/>
      <point x="480" y="333" type="curve" smooth="yes"/>
      <point x="480" y="879" type="line" smooth="yes"/>
      <point x="480" y="959"/>
      <point x="493" y="1027"/>
      <point x="668" y="1027" type="curve" smooth="yes"/>
      <point x="826" y="1027"/>
      <point x="861" y="1006"/>
      <point x="861" y="850" type="curve" smooth="yes"/>
      <point x="861" y="354" type="line" smooth="yes"/>
      <point x="861" y="188"/>
      <point x="803" y="148"/>
    </contour>
  </outline>
</glyph>
<glyph name="r" format="1">
  <advance width="913"/>
  <unicode hex="0072"/>
  <outline>
    <contour>
      <point x="444" y="1174" type="move" name="top"/>
    </contour>
    <contour>
      <point x="414" y="0" type="move" name="bot"/>
    </contour>
    <contour>
      <point x="493" y="1042" type="curve"/>
      <point x="465" y="1174" type="line"/>
      <point x="170" y="1174" type="line"/>
      <point x="169" y="0" type="line"/>
      <point x="508" y="0" type="line"/>
      <point x="508" y="575" type="line" smooth="yes"/>
      <point x="508" y="619"/>
      <point x="504" y="726"/>
      <point x="504" y="776" type="curve" smooth="yes"/>
      <point x="504" y="907"/>
      <point x="679" y="945"/>
      <point x="793" y="945" type="curve"/>
      <point x="798" y="1192" type="line"/>
      <point x="659" y="1190"/>
      <point x="540" y="1152"/>
    </contour>
  </outline>
</glyph>
<glyph name="s" format="1">
  <advance width="1203"/>
  <unicode hex="0073"/>
  <outline>
    <contour>
      <point x="585" y="1174" type="move" name="top"/>
    </contour>
    <contour>
      <point x="594" y="0" type="move" name="bot"/>
    </contour>
    <contour>
      <point x="625" y="-21" type="curve" smooth="yes"/>
      <point x="968" y="-21"/>
      <point x="1106" y="30"/>
      <point x="1106" y="345" type="curve" smooth="yes"/>
      <point x="1106" y="611"/>
      <point x="1035" y="667"/>
      <point x="752" y="704" type="curve" smooth="yes"/>
      <point x="615" y="725" type="line" smooth="yes"/>
      <point x="446" y="748"/>
      <point x="440" y="753"/>
      <point x="440" y="859" type="curve" smooth="yes"/>
      <point x="440" y="896"/>
      <point x="441" y="976"/>
      <point x="459" y="991" type="curve" smooth="yes"/>
      <point x="477" y="1006"/>
      <point x="539" y="1012"/>
      <point x="604" y="1012" type="curve" smooth="yes"/>
      <point x="671" y="1012"/>
      <point x="735" y="1010"/>
      <point x="756" y="997" type="curve" smooth="yes"/>
      <point x="777" y="985"/>
      <point x="782" y="909"/>
      <point x="785" y="864" type="curve"/>
      <point x="1066" y="896" type="line"/>
      <point x="1066" y="1175"/>
      <point x="906" y="1195"/>
      <point x="614" y="1195" type="curve" smooth="yes"/>
      <point x="273" y="1195"/>
      <point x="119" y="1141"/>
      <point x="119" y="855" type="curve" smooth="yes"/>
      <point x="119" y="582"/>
      <point x="217" y="541"/>
      <point x="477" y="510" type="curve" smooth="yes"/>
      <point x="618" y="489" type="line" smooth="yes"/>
      <point x="759" y="471"/>
      <point x="785" y="466"/>
      <point x="785" y="344" type="curve" smooth="yes"/>
      <point x="785" y="305"/>
      <point x="784" y="215"/>
      <point x="767" y="194" type="curve" smooth="yes"/>
      <point x="750" y="173"/>
      <point x="688" y="161"/>
      <point x="622" y="161" type="curve" smooth="yes"/>
      <point x="541" y="161"/>
      <point x="472" y="162"/>
      <point x="451" y="179" type="curve" smooth="yes"/>
      <point x="429" y="195"/>
      <point x="427" y="291"/>
      <point x="422" y="352" type="curve"/>
      <point x="128" y="318" type="line"/>
      <point x="128" y="-4"/>
      <point x="305" y="-21"/>
    </contour>
  </outline>
</glyph>
<glyph name="t" format="1">
  <advance width="925"/>
  <unicode hex="0074"/>
  <outline>
    <contour>
      <point x="430" y="1370" type="move" name="top"/>
    </contour>
    <contour>
      <point x="411" y="1272" type="move" name="caron.alt"/>
    </contour>
    <contour>
      <point x="504" y="0" type="move" name="bot"/>
    </contour>
    <contour>
      <point x="445" y="700" type="move" name="mid"/>
    </contour>
    <contour>
      <point x="258" y="1498" type="line"/>
      <point x="258" y="1168" type="line"/>
      <point x="100" y="1168" type="line"/>
      <point x="100" y="1025" type="line"/>
      <point x="258" y="1025" type="line"/>
      <point x="258" y="284" type="line" smooth="yes"/>
      <point x="258" y="44"/>
      <point x="376" y="-13"/>
      <point x="620" y="-15" type="curve" smooth="yes"/>
      <point x="698" y="-16"/>
      <point x="777" y="-5"/>
      <point x="826" y="0" type="curve"/>
      <point x="829" y="172" type="line"/>
      <point x="659" y="156"/>
      <point x="585" y="172"/>
      <point x="585" y="271" type="curve" smooth="yes"/>
      <point x="585" y="1025" type="line"/>
      <point x="785" y="1025" type="line"/>
      <point x="785" y="1168" type="line"/>
      <point x="585" y="1168" type="line"/>
      <point x="585" y="1498" type="line"/>
    </contour>
  </outline>
</glyph>
<glyph name="u" format="1">
  <advance width="1349"/>
  <unicode hex="0075"/>
  <outline>
    <contour>
      <point x="667" y="1174" type="move" name="top"/>
    </contour>
    <contour>
      <point x="995" y="0" type="move" name="ogonek"/>
    </contour>
    <contour>
      <point x="843" y="1174" type="line"/>
      <point x="843" y="312" type="line" smooth="yes"/>
      <point x="843" y="220"/>
      <point x="830" y="147"/>
      <point x="662" y="147" type="curve" smooth="yes"/>
      <point x="502" y="147"/>
      <point x="486" y="183"/>
      <point x="486" y="356" type="curve" smooth="yes"/>
      <point x="486" y="1174" type="line"/>
      <point x="146" y="1174" type="line"/>
      <point x="146" y="414" type="line" smooth="yes"/>
      <point x="146" y="107"/>
      <point x="239" y="-20"/>
      <point x="519" y="-21" type="curve" smooth="yes"/>
      <point x="674" y="-21"/>
      <point x="806" y="29"/>
      <point x="851" y="129" type="curve"/>
      <point x="877" y="-1" type="line"/>
      <point x="1183" y="-1" type="line"/>
      <point x="1183" y="1174" type="line"/>
    </contour>
  </outline>
</glyph>
<glyph name="v" format="1">
  <advance width="1222"/>
  <unicode hex="0076"/>
  <outline>
    <contour>
      <point x="825" y="1174" type="line"/>
      <point x="616" y="242" type="line"/>
      <point x="610" y="242" type="line"/>
      <point x="380" y="1174" type="line"/>
      <point x="56" y="1174" type="line"/>
      <point x="390" y="0" type="line"/>
      <point x="824" y="0" type="line"/>
      <point x="1161" y="1174" type="line"/>
    </contour>
  </outline>
</glyph>
<glyph name="w" format="1">
  <advance width="1756"/>
  <unicode hex="0077"/>
  <outline>
    <contour>
      <point x="878" y="1174" type="move" name="top"/>
    </contour>
    <contour>
      <point x="884" y="0" type="move" name="bot"/>
    </contour>
    <contour>
      <point x="317" y="0" type="line"/>
      <point x="705" y="0" type="line"/>
      <point x="877" y="836" type="line"/>
      <point x="882" y="836" type="line"/>
      <point x="1062" y="0" type="line"/>
      <point x="1438" y="0" type="line"/>
      <point x="1689" y="1174" type="line"/>
      <point x="1388" y="1174" type="line"/>
      <point x="1228" y="280" type="line"/>
      <point x="1221" y="280" type="line"/>
      <point x="1038" y="1174" type="line"/>
      <point x="722" y="1174" type="line"/>
      <point x="541" y="280" type="line"/>
      <point x="535" y="280" type="line"/>
      <point x="365" y="1174" type="line"/>
      <point x="63" y="1174" type="line"/>
    </contour>
  </outline>
</glyph>
<glyph name="x" format="1">
  <advance width="1205"/>
  <unicode hex="0078"/>
  <outline>
    <contour>
      <point x="66" y="0" type="line"/>
      <point x="362" y="0" type="line"/>
      <point x="619" y="423" type="line"/>
      <point x="749" y="549" type="line"/>
      <point x="1129" y="1174" type="line"/>
      <point x="837" y="1174" type="line"/>
      <point x="595" y="769" type="line"/>
      <point x="459" y="652" type="line"/>
    </contour>
    <contour>
      <point x="795" y="0" type="line"/>
      <point x="1139" y="0" type="line"/>
      <point x="420" y="1174" type="line"/>
      <point x="75" y="1174" type="line"/>
    </contour>
  </outline>
</glyph>
<glyph name="y" format="1">
  <advance width="1207"/>
  <unicode hex="0079"/>
  <outline>
    <contour>
      <point x="610" y="1174" type="move" name="top"/>
    </contour>
    <contour>
      <point x="605" y="0" type="move" name="bot"/>
    </contour>
    <contour>
      <point x="834" y="1174" type="line"/>
      <point x="633" y="277" type="line"/>
      <point x="629" y="277" type="line"/>
      <point x="375" y="1174" type="line"/>
      <point x="54" y="1174" type="line"/>
      <point x="455" y="21" type="line"/>
      <point x="444" y="-42"/>
      <point x="438" y="-85"/>
      <point x="423" y="-112" type="curve" smooth="yes"/>
      <point x="407" y="-154"/>
      <point x="372" y="-169"/>
      <point x="307" y="-169" type="curve" smooth="yes"/>
      <point x="266" y="-169"/>
      <point x="212" y="-160"/>
      <point x="149" y="-148" type="curve"/>
      <point x="124" y="-347" type="line"/>
      <point x="214" y="-365"/>
      <point x="332" y="-379"/>
      <point x="407" y="-379" type="curve" smooth="yes"/>
      <point x="612" y="-379"/>
      <point x="729" y="-310"/>
      <point x="812" y="-27" type="curve" smooth="yes"/>
      <point x="1154" y="1174" type="line"/>
    </contour>
  </outline>
</glyph>
<glyph name="z" format="1">
  <advance width="1056"/>
  <unicode hex="007A"/>
  <outline>
    <contour>
      <point x="494" y="1174" type="move" name="top"/>
    </contour>
    <contour>
      <point x="525" y="0" type="move" name="bot"/>
    </contour>
    <contour>
      <point x="163" y="1174" type="line"/>
      <point x="173" y="995" type="line"/>
      <point x="589" y="995" type="line"/>
      <point x="140" y="176" type="line"/>
      <point x="159" y="0" type="line"/>
      <point x="944" y="0" type="line"/>
      <point x="955" y="177" type="line"/>
      <point x="500" y="177" type="line"/>
      <point x="946" y="1005" type="line"/>
      <point x="931" y="1174" type="line"/>
    </contour>
  </outline>
</glyph>
<glyph name="braceleft" format="1">
  <advance width="1005"/>
  <unicode hex="007B"/>
  <outline>
    <contour>
      <point x="924" y="-253" type="curve"/>
      <point x="924" y="-74" type="line"/>
      <point x="646" y="-74"/>
      <point x="635" y="-20"/>
      <point x="636" y="293" type="curve" smooth="yes"/>
      <point x="636" y="572"/>
      <point x="596" y="707"/>
      <point x="433" y="742" type="curve"/>
      <point x="596" y="778"/>
      <point x="636" y="913"/>
      <point x="636" y="1192" type="curve" smooth="yes"/>
      <point x="635" y="1505"/>
      <point x="646" y="1559"/>
      <point x="924" y="1559" type="curve"/>
      <point x="924" y="1737" type="line"/>
      <point x="492" y="1737"/>
      <point x="349" y="1638"/>
      <point x="346" y="1171" type="curve" smooth="yes"/>
      <point x="344" y="899"/>
      <point x="301" y="848"/>
      <point x="112" y="848" type="curve"/>
      <point x="112" y="637" type="line"/>
      <point x="301" y="637"/>
      <point x="344" y="586"/>
      <point x="346" y="314" type="curve" smooth="yes"/>
      <point x="349" y="-154"/>
      <point x="492" y="-253"/>
    </contour>
  </outline>
</glyph>
<glyph name="bar" format="1">
  <advance width="951"/>
  <unicode hex="007C"/>
  <outline>
    <contour>
      <point x="253" y="1742" type="line"/>
      <point x="253" y="-126" type="line"/>
      <point x="690" y="-126" type="line"/>
      <point x="690" y="1742" type="line"/>
    </contour>
  </outline>
</glyph>
<glyph name="braceright" format="1">
  <advance width="1005"/>
  <unicode hex="007D"/>
  <outline>
    <contour>
      <point x="112" y="-253" type="line"/>
      <point x="543" y="-253"/>
      <point x="687" y="-154"/>
      <point x="690" y="314" type="curve" smooth="yes"/>
      <point x="692" y="586"/>
      <point x="735" y="637"/>
      <point x="924" y="637" type="curve"/>
      <point x="924" y="848" type="line"/>
      <point x="735" y="848"/>
      <point x="692" y="899"/>
      <point x="690" y="1171" type="curve" smooth="yes"/>
      <point x="687" y="1639"/>
      <point x="543" y="1737"/>
      <point x="112" y="1737" type="curve"/>
      <point x="112" y="1559" type="line"/>
      <point x="390" y="1559"/>
      <point x="401" y="1505"/>
      <point x="400" y="1192" type="curve" smooth="yes"/>
      <point x="400" y="913"/>
      <point x="440" y="778"/>
      <point x="603" y="742" type="curve"/>
      <point x="440" y="707"/>
      <point x="400" y="572"/>
      <point x="400" y="293" type="curve" smooth="yes"/>
      <point x="401" y="-20"/>
      <point x="390" y="-74"/>
      <point x="112" y="-74" type="curve"/>
    </contour>
  </outline>
</glyph>
<glyph name="asciitilde" format="1">
  <advance width="1269"/>
  <unicode hex="007E"/>
  <outline>
    <contour>
      <point x="884" y="611" type="curve" smooth="yes"/>
      <point x="1048" y="596"/>
      <point x="1127" y="710"/>
      <point x="1156" y="928" type="curve"/>
      <point x="1051" y="969" type="line"/>
      <point x="1005" y="865"/>
      <point x="972" y="817"/>
      <point x="862" y="839" type="curve" smooth="yes"/>
      <point x="730" y="866"/>
      <point x="576" y="1023"/>
      <point x="386" y="997" type="curve" smooth="yes"/>
      <point x="272" y="981"/>
      <point x="178" y="902"/>
      <point x="139" y="708" type="curve"/>
      <point x="229" y="655" type="line"/>
      <point x="263" y="759"/>
      <point x="313" y="792"/>
      <point x="396" y="785" type="curve" smooth="yes"/>
      <point x="545" y="772"/>
      <point x="712" y="627"/>
    </contour>
  </outline>
</glyph>
<glyph name="cent" format="1">
  <advance width="1490"/>
  <unicode hex="00A2"/>
  <outline>
    <contour>
      <point x="711" y="1799" type="line"/>
      <point x="711" y="1475" type="line"/>
      <point x="843" y="1475" type="line"/>
      <point x="843" y="1799" type="line"/>
    </contour>
    <contour>
      <point x="713" y="42" type="line"/>
      <point x="713" y="-264" type="line"/>
      <point x="845" y="-264" type="line"/>
      <point x="845" y="42" type="line"/>
    </contour>
    <component base="C"/>
  </outline>
</glyph>
<glyph name="sterling" format="1">
  <advance width="1640"/>
  <unicode hex="00A3"/>
  <outline>
    <contour>
      <point x="136" y="0" type="line"/>
      <point x="140" y="0"/>
      <point x="294" y="0"/>
      <point x="298" y="0" type="curve" smooth="yes"/>
      <point x="489" y="4"/>
      <point x="607" y="33"/>
      <point x="680" y="133" type="curve"/>
      <point x="728" y="50"/>
      <point x="857" y="0"/>
      <point x="1044" y="0" type="curve" smooth="yes"/>
      <point x="1347" y="0"/>
      <point x="1481" y="81"/>
      <point x="1484" y="320" type="curve" smooth="yes"/>
      <point x="1489" y="520" type="line"/>
      <point x="1051" y="525" type="line"/>
      <point x="1047" y="258" type="line" smooth="yes"/>
      <point x="1046" y="234"/>
      <point x="963" y="232"/>
      <point x="910" y="232" type="curve" smooth="yes"/>
      <point x="813" y="232"/>
      <point x="740" y="239"/>
      <point x="740" y="261" type="curve" smooth="yes"/>
      <point x="740" y="712" type="line"/>
      <point x="1190" y="712" type="line"/>
      <point x="1190" y="906" type="line"/>
      <point x="740" y="906" type="line"/>
      <point x="740" y="1317" type="line" smooth="yes"/>
      <point x="740" y="1364"/>
      <point x="782" y="1375"/>
      <point x="886" y="1375" type="curve" smooth="yes"/>
      <point x="964" y="1375"/>
      <point x="1017" y="1373"/>
      <point x="1017" y="1339" type="curve" smooth="yes"/>
      <point x="1016" y="1068" type="line"/>
      <point x="1461" y="1072" type="line"/>
      <point x="1461" y="1328" type="line" smooth="yes"/>
      <point x="1460" y="1554"/>
      <point x="1218" y="1601"/>
      <point x="907" y="1601" type="curve" smooth="yes"/>
      <point x="498" y="1601"/>
      <point x="294" y="1538"/>
      <point x="294" y="1157" type="curve" smooth="yes"/>
      <point x="294" y="907" type="line"/>
      <point x="138" y="907" type="line"/>
      <point x="138" y="713" type="line"/>
      <point x="294" y="713" type="line"/>
      <point x="293" y="347" type="line" smooth="yes"/>
      <point x="293" y="262"/>
      <point x="229" y="236"/>
      <point x="137" y="230" type="curve"/>
    </contour>
  </outline>
</glyph>
<glyph name="currency" format="1">
  <advance width="1324"/>
  <unicode hex="00A4"/>
  <outline>
    <contour>
      <point x="1079" y="207" type="line"/>
      <point x="1149" y="281" type="line"/>
      <point x="1018" y="435" type="line"/>
      <point x="1116" y="512"/>
      <point x="1161" y="624"/>
      <point x="1161" y="780" type="curve" smooth="yes"/>
      <point x="1161" y="940"/>
      <point x="1124" y="1052"/>
      <point x="1028" y="1132" type="curve"/>
      <point x="1148" y="1274" type="line"/>
      <point x="1078" y="1350" type="line"/>
      <point x="939" y="1192" type="line"/>
      <point x="864" y="1229"/>
      <point x="773" y="1248"/>
      <point x="661" y="1248" type="curve" smooth="yes"/>
      <point x="547" y="1248"/>
      <point x="455" y="1229"/>
      <point x="380" y="1189" type="curve"/>
      <point x="242" y="1350" type="line"/>
      <point x="172" y="1275" type="line"/>
      <point x="293" y="1130" type="line"/>
      <point x="200" y="1051"/>
      <point x="163" y="936"/>
      <point x="163" y="779" type="curve" smooth="yes"/>
      <point x="163" y="621"/>
      <point x="206" y="513"/>
      <point x="302" y="436" type="curve"/>
      <point x="171" y="282" type="line"/>
      <point x="241" y="207" type="line"/>
      <point x="390" y="379" type="line"/>
      <point x="463" y="346"/>
      <point x="552" y="330"/>
      <point x="662" y="330" type="curve" smooth="yes"/>
      <point x="769" y="330"/>
      <point x="855" y="346"/>
      <point x="930" y="378" type="curve"/>
    </contour>
    <contour>
      <point x="660" y="494" type="curve" smooth="yes"/>
      <point x="527" y="494"/>
      <point x="447" y="556"/>
      <point x="444" y="686" type="curve" smooth="yes"/>
      <point x="444" y="689"/>
      <point x="444" y="883"/>
      <point x="444" y="886" type="curve" smooth="yes"/>
      <point x="444" y="1020"/>
      <point x="531" y="1087"/>
      <point x="660" y="1087" type="curve" smooth="yes"/>
      <point x="799" y="1087"/>
      <point x="876" y="1020"/>
      <point x="876" y="885" type="curve" smooth="yes"/>
      <point x="876" y="882"/>
      <point x="876" y="689"/>
      <point x="876" y="686" type="curve" smooth="yes"/>
      <point x="873" y="558"/>
      <point x="787" y="494"/>
    </contour>
  </outline>
</glyph>
<glyph name="yen" format="1">
  <advance width="1433"/>
  <unicode hex="00A5"/>
  <outline>
    <contour>
      <point x="540" y="0" type="line"/>
      <point x="883" y="0" type="line"/>
      <point x="883" y="274" type="line"/>
      <point x="1184" y="274" type="line"/>
      <point x="1184" y="380" type="line"/>
      <point x="883" y="380" type="line"/>
      <point x="902" y="541" type="line"/>
      <point x="1214" y="541" type="line"/>
      <point x="1214" y="665" type="line"/>
      <point x="955" y="665" type="line"/>
      <point x="1331" y="1527" type="line"/>
      <point x="998" y="1527" type="line"/>
      <point x="721" y="758" type="line"/>
      <point x="440" y="1527" type="line"/>
      <point x="100" y="1527" type="line"/>
      <point x="471" y="665" type="line"/>
      <point x="215" y="665" type="line"/>
      <point x="215" y="541" type="line"/>
      <point x="523" y="541" type="line"/>
      <point x="540" y="380" type="line"/>
      <point x="246" y="380" type="line"/>
      <point x="246" y="274" type="line"/>
      <point x="540" y="274" type="line"/>
    </contour>
  </outline>
</glyph>
<glyph name="brokenbar" format="1">
  <advance width="766"/>
  <unicode hex="00A6"/>
  <outline>
    <contour>
      <point x="220" y="1665" type="line"/>
      <point x="220" y="815" type="line"/>
      <point x="553" y="815" type="line"/>
      <point x="553" y="1665" type="line"/>
    </contour>
    <contour>
      <point x="220" y="603" type="line"/>
      <point x="220" y="-247" type="line"/>
      <point x="553" y="-247" type="line"/>
      <point x="553" y="603" type="line"/>
    </contour>
  </outline>
</glyph>
<glyph name="section" format="1">
  <advance width="1285"/>
  <unicode hex="00A7"/>
  <outline>
    <contour>
      <point x="634" y="-205" type="curve" smooth="yes"/>
      <point x="935" y="-205"/>
      <point x="1111" y="-152"/>
      <point x="1111" y="170" type="curve" smooth="yes"/>
      <point x="1111" y="318"/>
      <point x="1047" y="409"/>
      <point x="975" y="460" type="curve"/>
      <point x="1054" y="491"/>
      <point x="1119" y="582"/>
      <point x="1119" y="712" type="curve" smooth="yes"/>
      <point x="1119" y="953"/>
      <point x="935" y="985"/>
      <point x="733" y="1011" type="curve" smooth="yes"/>
      <point x="514" y="1047"/>
      <point x="511" y="1046"/>
      <point x="504" y="1163" type="curve" smooth="yes"/>
      <point x="504" y="1225"/>
      <point x="513" y="1351"/>
      <point x="534" y="1367" type="curve" smooth="yes"/>
      <point x="554" y="1384"/>
      <point x="601" y="1384"/>
      <point x="651" y="1384" type="curve" smooth="yes"/>
      <point x="709" y="1384"/>
      <point x="756" y="1380"/>
      <point x="776" y="1361" type="curve" smooth="yes"/>
      <point x="796" y="1341"/>
      <point x="801" y="1235"/>
      <point x="801" y="1176" type="curve"/>
      <point x="1117" y="1176" type="line"/>
      <point x="1117" y="1230"/>
      <point x="1114" y="1276"/>
      <point x="1106" y="1316" type="curve" smooth="yes"/>
      <point x="1082" y="1535"/>
      <point x="891" y="1569"/>
      <point x="655" y="1569" type="curve" smooth="yes"/>
      <point x="351" y="1569"/>
      <point x="182" y="1513"/>
      <point x="182" y="1196" type="curve" smooth="yes"/>
      <point x="182" y="1055"/>
      <point x="230" y="963"/>
      <point x="307" y="910" type="curve"/>
      <point x="265" y="876"/>
      <point x="175" y="792"/>
      <point x="175" y="667" type="curve" smooth="yes"/>
      <point x="175" y="406"/>
      <point x="295" y="357"/>
      <point x="603" y="332" type="curve" smooth="yes"/>
      <point x="670" y="323"/>
      <point x="787" y="287"/>
      <point x="787" y="204" type="curve" smooth="yes"/>
      <point x="787" y="149"/>
      <point x="783" y="21"/>
      <point x="766" y="2" type="curve" smooth="yes"/>
      <point x="748" y="-16"/>
      <point x="704" y="-20"/>
      <point x="652" y="-20" type="curve" smooth="yes"/>
      <point x="592" y="-20"/>
      <point x="539" y="-19"/>
      <point x="517" y="-2" type="curve" smooth="yes"/>
      <point x="494" y="16"/>
      <point x="486" y="122"/>
      <point x="486" y="189" type="curve"/>
      <point x="170" y="189" type="line"/>
      <point x="170" y="142"/>
      <point x="172" y="100"/>
      <point x="178" y="63" type="curve" smooth="yes"/>
      <point x="200" y="-170"/>
      <point x="392" y="-205"/>
    </contour>
    <contour>
      <point x="770" y="518" type="curve"/>
      <point x="703" y="528"/>
      <point x="642" y="534"/>
      <point x="607" y="540" type="curve" smooth="yes"/>
      <point x="527" y="555"/>
      <point x="502" y="572"/>
      <point x="502" y="661" type="curve" smooth="yes"/>
      <point x="502" y="692"/>
      <point x="508" y="810"/>
      <point x="518" y="848" type="curve"/>
      <point x="536" y="842"/>
      <point x="619" y="836"/>
      <point x="720" y="805" type="curve" smooth="yes"/>
      <point x="762" y="792"/>
      <point x="790" y="770"/>
      <point x="790" y="690" type="curve" smooth="yes"/>
      <point x="790" y="644"/>
      <point x="783" y="527"/>
    </contour>
  </outline>
</glyph>
<glyph name="dieresis" format="1">
  <advance width="1165"/>
  <unicode hex="00A8"/>
  <outline>
    <contour>
      <point x="600" y="1174" type="move" name="_top"/>
    </contour>
    <contour>
      <point x="727" y="1457" type="curve" smooth="yes"/>
      <point x="727" y="1364"/>
      <point x="787" y="1320"/>
      <point x="868" y="1320" type="curve" smooth="yes"/>
      <point x="950" y="1320"/>
      <point x="1007" y="1364"/>
      <point x="1007" y="1457" type="curve" smooth="yes"/>
      <point x="1007" y="1549"/>
      <point x="950" y="1593"/>
      <point x="868" y="1593" type="curve" smooth="yes"/>
      <point x="788" y="1593"/>
      <point x="727" y="1547"/>
    </contour>
    <contour>
      <point x="199" y="1457" type="curve" smooth="yes"/>
      <point x="199" y="1364"/>
      <point x="258" y="1320"/>
      <point x="340" y="1320" type="curve" smooth="yes"/>
      <point x="422" y="1320"/>
      <point x="479" y="1364"/>
      <point x="479" y="1457" type="curve" smooth="yes"/>
      <point x="479" y="1549"/>
      <point x="422" y="1593"/>
      <point x="340" y="1593" type="curve" smooth="yes"/>
      <point x="260" y="1593"/>
      <point x="199" y="1547"/>
    </contour>
  </outline>
</glyph>
<glyph name="copyright" format="1">
  <advance width="1951"/>
  <unicode hex="00A9"/>
  <outline>
    <contour>
      <point x="958" y="243" type="curve" smooth="yes"/>
      <point x="1269" y="243"/>
      <point x="1358" y="288"/>
      <point x="1358" y="549" type="curve" smooth="yes"/>
      <point x="1358" y="684" type="line"/>
      <point x="1174" y="684" type="line"/>
      <point x="1174" y="492" type="line" smooth="yes"/>
      <point x="1173" y="384"/>
      <point x="1123" y="376"/>
      <point x="982" y="376" type="curve" smooth="yes"/>
      <point x="835" y="376"/>
      <point x="777" y="394"/>
      <point x="777" y="483" type="curve" smooth="yes"/>
      <point x="776" y="1118" type="line" smooth="yes"/>
      <point x="776" y="1207"/>
      <point x="823" y="1216"/>
      <point x="982" y="1216" type="curve" smooth="yes"/>
      <point x="1127" y="1216"/>
      <point x="1173" y="1205"/>
      <point x="1174" y="1091" type="curve" smooth="yes"/>
      <point x="1174" y="911" type="line"/>
      <point x="1358" y="911" type="line"/>
      <point x="1357" y="1043" type="line" smooth="yes"/>
      <point x="1353" y="1320"/>
      <point x="1225" y="1348"/>
      <point x="958" y="1348" type="curve" smooth="yes"/>
      <point x="661" y="1348"/>
      <point x="583" y="1284"/>
      <point x="583" y="982" type="curve" smooth="yes"/>
      <point x="583" y="641" type="line" smooth="yes"/>
      <point x="583" y="300"/>
      <point x="677" y="243"/>
    </contour>
    <contour>
      <point x="967" y="31" type="curve" smooth="yes"/>
      <point x="585" y="31"/>
      <point x="304" y="149"/>
      <point x="304" y="580" type="curve" smooth="yes"/>
      <point x="304" y="981" type="line" smooth="yes"/>
      <point x="304" y="1432"/>
      <point x="585" y="1541"/>
      <point x="974" y="1541" type="curve" smooth="yes"/>
      <point x="1335" y="1541"/>
      <point x="1644" y="1442"/>
      <point x="1644" y="1000" type="curve" smooth="yes"/>
      <point x="1644" y="560" type="line" smooth="yes"/>
      <point x="1644" y="136"/>
      <point x="1351" y="31"/>
    </contour>
    <contour>
      <point x="981" y="-98" type="curve" smooth="yes"/>
      <point x="1420" y="-98"/>
      <point x="1813" y="44"/>
      <point x="1813" y="581" type="curve" smooth="yes"/>
      <point x="1813" y="982" type="line" smooth="yes"/>
      <point x="1813" y="1523"/>
      <point x="1443" y="1674"/>
      <point x="975" y="1674" type="curve" smooth="yes"/>
      <point x="535" y="1674"/>
      <point x="135" y="1537"/>
      <point x="135" y="983" type="curve" smooth="yes"/>
      <point x="135" y="581" type="line" smooth="yes"/>
      <point x="135" y="56"/>
      <point x="507" y="-98"/>
    </contour>
  </outline>
</glyph>
<glyph name="ordfeminine" format="1">
  <advance width="1224"/>
  <unicode hex="00AA"/>
  <outline>
    <contour>
      <point x="462" y="462" type="curve" smooth="yes"/>
      <point x="616" y="462"/>
      <point x="715" y="498"/>
      <point x="760" y="612" type="curve"/>
      <point x="797" y="480" type="line"/>
      <point x="1063" y="479" type="line"/>
      <point x="1063" y="1210" type="line" smooth="yes"/>
      <point x="1063" y="1495"/>
      <point x="916" y="1550"/>
      <point x="617" y="1550" type="curve" smooth="yes"/>
      <point x="384" y="1550"/>
      <point x="191" y="1523"/>
      <point x="191" y="1294" type="curve" smooth="yes"/>
      <point x="191" y="1288"/>
      <point x="191" y="1241"/>
      <point x="191" y="1235" type="curve"/>
      <point x="471" y="1240" type="line"/>
      <point x="471" y="1249"/>
      <point x="471" y="1329"/>
      <point x="471" y="1336" type="curve" smooth="yes"/>
      <point x="471" y="1380"/>
      <point x="511" y="1397"/>
      <point x="611" y="1397" type="curve" smooth="yes"/>
      <point x="716" y="1397"/>
      <point x="747" y="1383"/>
      <point x="747" y="1329" type="curve" smooth="yes"/>
      <point x="747" y="1081" type="line"/>
      <point x="733" y="1081"/>
      <point x="628" y="1082"/>
      <point x="613" y="1082" type="curve" smooth="yes"/>
      <point x="323" y="1082"/>
      <point x="134" y="1019"/>
      <point x="134" y="805" type="curve" smooth="yes"/>
      <point x="134" y="563"/>
      <point x="220" y="462"/>
    </contour>
    <contour>
      <point x="533" y="617" type="curve" smooth="yes"/>
      <point x="444" y="617"/>
      <point x="444" y="807"/>
      <point x="444" y="903" type="curve" smooth="yes"/>
      <point x="444" y="952"/>
      <point x="544" y="968"/>
      <point x="747" y="971" type="curve"/>
      <point x="747" y="738" type="line" smooth="yes"/>
      <point x="744" y="669"/>
      <point x="667" y="617"/>
    </contour>
  </outline>
</glyph>
<glyph name="guillemotleft" format="1">
  <advance width="1693"/>
  <unicode hex="00AB"/>
  <outline>
    <contour>
      <point x="730" y="230" type="curve" smooth="yes"/>
      <point x="770" y="230"/>
      <point x="801" y="265"/>
      <point x="801" y="305" type="curve" smooth="yes"/>
      <point x="801" y="325"/>
      <point x="794" y="346"/>
      <point x="777" y="365" type="curve"/>
      <point x="391" y="780" type="line"/>
      <point x="777" y="1195" type="line"/>
      <point x="794" y="1217"/>
      <point x="802" y="1238"/>
      <point x="802" y="1255" type="curve" smooth="yes"/>
      <point x="802" y="1298"/>
      <point x="771" y="1332"/>
      <point x="730" y="1329" type="curve" smooth="yes"/>
      <point x="713" y="1332"/>
      <point x="695" y="1324"/>
      <point x="674" y="1308" type="curve" smooth="yes"/>
      <point x="163" y="921" type="line" smooth="yes"/>
      <point x="112" y="883"/>
      <point x="86" y="833"/>
      <point x="85" y="779" type="curve"/>
      <point x="85" y="729"/>
      <point x="110" y="678"/>
      <point x="163" y="639" type="curve" smooth="yes"/>
      <point x="674" y="251" type="line" smooth="yes"/>
      <point x="693" y="237"/>
      <point x="713" y="230"/>
    </contour>
    <contour>
      <point x="1351" y="230" type="curve" smooth="yes"/>
      <point x="1392" y="230"/>
      <point x="1422" y="265"/>
      <point x="1422" y="305" type="curve" smooth="yes"/>
      <point x="1422" y="325"/>
      <point x="1415" y="346"/>
      <point x="1398" y="365" type="curve"/>
      <point x="1012" y="780" type="line"/>
      <point x="1398" y="1195" type="line"/>
      <point x="1416" y="1217"/>
      <point x="1423" y="1238"/>
      <point x="1423" y="1255" type="curve" smooth="yes"/>
      <point x="1423" y="1298"/>
      <point x="1393" y="1332"/>
      <point x="1352" y="1329" type="curve" smooth="yes"/>
      <point x="1335" y="1332"/>
      <point x="1316" y="1324"/>
      <point x="1295" y="1308" type="curve" smooth="yes"/>
      <point x="785" y="921" type="line" smooth="yes"/>
      <point x="734" y="883"/>
      <point x="707" y="833"/>
      <point x="707" y="779" type="curve"/>
      <point x="707" y="729"/>
      <point x="732" y="678"/>
      <point x="785" y="639" type="curve" smooth="yes"/>
      <point x="1295" y="251" type="line" smooth="yes"/>
      <point x="1315" y="236"/>
      <point x="1334" y="230"/>
    </contour>
  </outline>
</glyph>
<glyph name="logicalnot" format="1">
  <advance width="1319"/>
  <unicode hex="00AC"/>
  <outline>
    <contour>
      <point x="963" y="276" type="line"/>
      <point x="1143" y="276" type="line"/>
      <point x="1143" y="914" type="line"/>
      <point x="153" y="914" type="line"/>
      <point x="153" y="702" type="line"/>
      <point x="963" y="702" type="line"/>
    </contour>
  </outline>
</glyph>
<glyph name="uni00AD" format="1">
  <advance width="1149"/>
  <unicode hex="00AD"/>
  <outline>
    <contour>
      <point x="172" y="554" type="line"/>
      <point x="976" y="554" type="line"/>
      <point x="976" y="792" type="line"/>
      <point x="172" y="792" type="line"/>
    </contour>
  </outline>
</glyph>
<glyph name="registered" format="1">
  <advance width="1934"/>
  <unicode hex="00AE"/>
  <outline>
    <contour>
      <point x="601" y="272" type="line"/>
      <point x="828" y="272" type="line"/>
      <point x="828" y="742" type="line"/>
      <point x="988" y="742" type="line" smooth="yes"/>
      <point x="1085" y="742"/>
      <point x="1123" y="718"/>
      <point x="1121" y="608" type="curve" smooth="yes"/>
      <point x="1121" y="272" type="line"/>
      <point x="1345" y="272" type="line"/>
      <point x="1345" y="622" type="line" smooth="yes"/>
      <point x="1345" y="730"/>
      <point x="1298" y="792"/>
      <point x="1196" y="801" type="curve"/>
      <point x="1196" y="817" type="line"/>
      <point x="1296" y="831"/>
      <point x="1351" y="902"/>
      <point x="1351" y="1040" type="curve" smooth="yes"/>
      <point x="1351" y="1085" type="line" smooth="yes"/>
      <point x="1351" y="1316"/>
      <point x="1221" y="1343"/>
      <point x="996" y="1343" type="curve" smooth="yes"/>
      <point x="601" y="1343" type="line"/>
    </contour>
    <contour>
      <point x="960" y="31" type="curve" smooth="yes"/>
      <point x="578" y="31"/>
      <point x="297" y="149"/>
      <point x="297" y="580" type="curve" smooth="yes"/>
      <point x="297" y="981" type="line" smooth="yes"/>
      <point x="297" y="1432"/>
      <point x="578" y="1541"/>
      <point x="966" y="1541" type="curve" smooth="yes"/>
      <point x="1328" y="1541"/>
      <point x="1637" y="1442"/>
      <point x="1637" y="1000" type="curve" smooth="yes"/>
      <point x="1637" y="560" type="line" smooth="yes"/>
      <point x="1637" y="136"/>
      <point x="1344" y="31"/>
    </contour>
    <contour>
      <point x="974" y="-98" type="curve" smooth="yes"/>
      <point x="1413" y="-98"/>
      <point x="1806" y="44"/>
      <point x="1806" y="581" type="curve" smooth="yes"/>
      <point x="1806" y="982" type="line" smooth="yes"/>
      <point x="1806" y="1523"/>
      <point x="1436" y="1674"/>
      <point x="968" y="1674" type="curve" smooth="yes"/>
      <point x="527" y="1674"/>
      <point x="128" y="1537"/>
      <point x="128" y="983" type="curve" smooth="yes"/>
      <point x="128" y="581" type="line" smooth="yes"/>
      <point x="128" y="56"/>
      <point x="499" y="-98"/>
    </contour>
    <contour>
      <point x="828" y="864" type="line"/>
      <point x="828" y="1218" type="line"/>
      <point x="987" y="1218" type="line" smooth="yes"/>
      <point x="1068" y="1218"/>
      <point x="1121" y="1213"/>
      <point x="1121" y="1114" type="curve" smooth="yes"/>
      <point x="1121" y="972" type="line" smooth="yes"/>
      <point x="1121" y="877"/>
      <point x="1084" y="864"/>
      <point x="966" y="864" type="curve" smooth="yes"/>
    </contour>
  </outline>
</glyph>
<glyph name="macron" format="1">
  <advance width="1022"/>
  <unicode hex="00AF"/>
  <outline>
    <contour>
      <point x="558" y="1174" type="move" name="_top"/>
    </contour>
    <contour>
      <point x="558" y="1475" type="move" name="_mid"/>
    </contour>
    <contour>
      <point x="218" y="1558" type="line"/>
      <point x="218" y="1392" type="line"/>
      <point x="905" y="1392" type="line"/>
      <point x="905" y="1558" type="line"/>
    </contour>
  </outline>
</glyph>
<glyph name="degree" format="1">
  <advance width="1038"/>
  <unicode hex="00B0"/>
  <outline>
    <contour>
      <point x="516" y="1199" type="curve" smooth="yes"/>
      <point x="428" y="1199"/>
      <point x="369" y="1261"/>
      <point x="369" y="1354" type="curve" smooth="yes"/>
      <point x="369" y="1446"/>
      <point x="428" y="1508"/>
      <point x="516" y="1508" type="curve" smooth="yes"/>
      <point x="604" y="1508"/>
      <point x="663" y="1446"/>
      <point x="663" y="1354" type="curve" smooth="yes"/>
      <point x="663" y="1261"/>
      <point x="604" y="1199"/>
    </contour>
    <contour>
      <point x="516" y="1062" type="curve" smooth="yes"/>
      <point x="716" y="1062"/>
      <point x="838" y="1196"/>
      <point x="838" y="1354" type="curve" smooth="yes"/>
      <point x="838" y="1513"/>
      <point x="716" y="1647"/>
      <point x="516" y="1647" type="curve" smooth="yes"/>
      <point x="315" y="1647"/>
      <point x="193" y="1513"/>
      <point x="193" y="1354" type="curve" smooth="yes"/>
      <point x="193" y="1196"/>
      <point x="315" y="1062"/>
    </contour>
  </outline>
</glyph>
<glyph name="plusminus" format="1">
  <advance width="1321"/>
  <unicode hex="00B1"/>
  <outline>
    <contour>
      <point x="539" y="354" type="line"/>
      <point x="781" y="354" type="line"/>
      <point x="781" y="736" type="line"/>
      <point x="1159" y="736" type="line"/>
      <point x="1159" y="955" type="line"/>
      <point x="781" y="955" type="line"/>
      <point x="781" y="1341" type="line"/>
      <point x="539" y="1341" type="line"/>
      <point x="539" y="955" type="line"/>
      <point x="160" y="955" type="line"/>
      <point x="160" y="736" type="line"/>
      <point x="539" y="736" type="line"/>
    </contour>
    <contour>
      <point x="213" y="0" type="line"/>
      <point x="1103" y="0" type="line"/>
      <point x="1103" y="207" type="line"/>
      <point x="213" y="207" type="line"/>
    </contour>
  </outline>
</glyph>
<glyph name="twosuperior" format="1">
  <advance width="1157"/>
  <unicode hex="00B2"/>
  <outline>
    <contour>
      <point x="212" y="475" type="line"/>
      <point x="1001" y="475" type="line"/>
      <point x="1001" y="638" type="line"/>
      <point x="460" y="638" type="line"/>
      <point x="460" y="741"/>
      <point x="494" y="805"/>
      <point x="657" y="860" type="curve" smooth="yes"/>
      <point x="826" y="923"/>
      <point x="1029" y="975"/>
      <point x="1029" y="1217" type="curve" smooth="yes"/>
      <point x="1029" y="1483"/>
      <point x="881" y="1550"/>
      <point x="619" y="1550" type="curve" smooth="yes"/>
      <point x="376" y="1550"/>
      <point x="205" y="1489"/>
      <point x="207" y="1219" type="curve" smooth="yes"/>
      <point x="207" y="1177" type="line"/>
      <point x="466" y="1189" type="line"/>
      <point x="466" y="1299" type="line" smooth="yes"/>
      <point x="466" y="1347"/>
      <point x="495" y="1385"/>
      <point x="621" y="1385" type="curve" smooth="yes"/>
      <point x="738" y="1384"/>
      <point x="773" y="1359"/>
      <point x="773" y="1310" type="curve" smooth="yes"/>
      <point x="773" y="1208" type="line" smooth="yes"/>
      <point x="773" y="1129"/>
      <point x="705" y="1104"/>
      <point x="569" y="1063" type="curve" smooth="yes"/>
      <point x="320" y="982"/>
      <point x="212" y="884"/>
      <point x="212" y="622" type="curve" smooth="yes"/>
    </contour>
  </outline>
</glyph>
<glyph name="threesuperior" format="1">
  <advance width="1256"/>
  <unicode hex="00B3"/>
  <outline>
    <contour>
      <point x="640" y="461" type="curve" smooth="yes"/>
      <point x="927" y="461"/>
      <point x="1047" y="538"/>
      <point x="1047" y="784" type="curve" smooth="yes"/>
      <point x="1047" y="892"/>
      <point x="1026" y="984"/>
      <point x="932" y="1014" type="curve"/>
      <point x="1021" y="1044"/>
      <point x="1045" y="1118"/>
      <point x="1045" y="1226" type="curve" smooth="yes"/>
      <point x="1045" y="1473"/>
      <point x="948" y="1550"/>
      <point x="639" y="1550" type="curve" smooth="yes"/>
      <point x="322" y="1550"/>
      <point x="223" y="1467"/>
      <point x="223" y="1204" type="curve"/>
      <point x="223" y="1168" type="line"/>
      <point x="482" y="1168" type="line"/>
      <point x="483" y="1281" type="line" smooth="yes"/>
      <point x="486" y="1385"/>
      <point x="524" y="1398"/>
      <point x="639" y="1398" type="curve" smooth="yes"/>
      <point x="754" y="1398"/>
      <point x="789" y="1377"/>
      <point x="789" y="1294" type="curve"/>
      <point x="789" y="1214"/>
      <point x="796" y="1082"/>
      <point x="758" y="1082" type="curve" smooth="yes"/>
      <point x="529" y="1082" type="line"/>
      <point x="529" y="953" type="line"/>
      <point x="758" y="953" type="line" smooth="yes"/>
      <point x="791" y="953"/>
      <point x="789" y="804"/>
      <point x="789" y="738" type="curve"/>
      <point x="789" y="651"/>
      <point x="751" y="621"/>
      <point x="648" y="621" type="curve"/>
      <point x="507" y="621"/>
      <point x="479" y="652"/>
      <point x="482" y="745" type="curve" smooth="yes"/>
      <point x="482" y="864" type="line"/>
      <point x="223" y="864" type="line"/>
      <point x="223" y="816" type="line" smooth="yes"/>
      <point x="223" y="566"/>
      <point x="321" y="461"/>
    </contour>
  </outline>
</glyph>
<glyph name="acute" format="1">
  <advance width="886"/>
  <unicode hex="00B4"/>
  <outline>
    <contour>
      <point x="399" y="1168" type="move" name="_top"/>
    </contour>
    <contour>
      <point x="233" y="1353" type="curve" smooth="yes"/>
      <point x="305" y="1375"/>
      <point x="646" y="1490"/>
      <point x="699" y="1518" type="curve" smooth="yes"/>
      <point x="759" y="1548"/>
      <point x="786" y="1601"/>
      <point x="786" y="1649" type="curve" smooth="yes"/>
      <point x="786" y="1715"/>
      <point x="737" y="1777"/>
      <point x="658" y="1777" type="curve" smooth="yes"/>
      <point x="624" y="1777"/>
      <point x="591" y="1762"/>
      <point x="559" y="1741" type="curve" smooth="yes"/>
      <point x="499" y="1700"/>
      <point x="258" y="1455"/>
      <point x="201" y="1403" type="curve" smooth="yes"/>
      <point x="186" y="1389"/>
      <point x="185" y="1373"/>
      <point x="192" y="1363" type="curve" smooth="yes"/>
      <point x="199" y="1353"/>
      <point x="215" y="1347"/>
    </contour>
  </outline>
</glyph>
<glyph name="paragraph" format="1">
  <advance width="1311"/>
  <unicode hex="00B6"/>
  <outline>
    <contour>
      <point x="595" y="1530" type="line"/>
      <point x="285" y="1530"/>
      <point x="95" y="1432"/>
      <point x="95" y="1127" type="curve" smooth="yes"/>
      <point x="95" y="865"/>
      <point x="289" y="750"/>
      <point x="609" y="750" type="curve"/>
      <point x="609" y="-141" type="line"/>
      <point x="785" y="-141" type="line"/>
      <point x="785" y="1109" type="line"/>
      <point x="956" y="1109" type="line"/>
      <point x="956" y="-141" type="line"/>
      <point x="1123" y="-141" type="line"/>
      <point x="1123" y="1530" type="line"/>
    </contour>
  </outline>
</glyph>
<glyph name="periodcentered" format="1">
  <advance width="821"/>
  <unicode hex="00B7"/>
  <outline>
    <contour>
      <point x="138" y="842" type="move" name="_mid"/>
    </contour>
    <contour>
      <point x="576" y="686" type="curve" smooth="yes"/>
      <point x="663" y="686"/>
      <point x="727" y="749"/>
      <point x="727" y="847" type="curve" smooth="yes"/>
      <point x="727" y="945"/>
      <point x="659" y="1008"/>
      <point x="576" y="1008" type="curve" smooth="yes"/>
      <point x="490" y="1008"/>
      <point x="426" y="946"/>
      <point x="426" y="847" type="curve" smooth="yes"/>
      <point x="426" y="750"/>
      <point x="494" y="686"/>
    </contour>
  </outline>
</glyph>
<glyph name="cedilla" format="1">
  <advance width="843"/>
  <unicode hex="00B8"/>
  <outline>
    <contour>
      <point x="462" y="0" type="move" name="_bot"/>
    </contour>
    <contour>
      <point x="412" y="14" type="line"/>
      <point x="373" y="-133" type="line" smooth="yes"/>
      <point x="350" y="-221"/>
      <point x="338" y="-270"/>
      <point x="336" y="-282" type="curve"/>
      <point x="428" y="-282"/>
      <point x="474" y="-311"/>
      <point x="474" y="-366" type="curve" smooth="yes"/>
      <point x="474" y="-403"/>
      <point x="451" y="-417"/>
      <point x="417" y="-417" type="curve" smooth="yes"/>
      <point x="357" y="-417"/>
      <point x="269" y="-373"/>
      <point x="255" y="-366" type="curve"/>
      <point x="205" y="-461" type="line"/>
      <point x="269" y="-517"/>
      <point x="361" y="-546"/>
      <point x="447" y="-546" type="curve" smooth="yes"/>
      <point x="575" y="-546"/>
      <point x="694" y="-483"/>
      <point x="694" y="-354" type="curve" smooth="yes"/>
      <point x="694" y="-202"/>
      <point x="606" y="-173"/>
      <point x="476" y="-155" type="curve"/>
      <point x="525" y="14" type="line"/>
    </contour>
  </outline>
</glyph>
<glyph name="onesuperior" format="1">
  <advance width="851"/>
  <unicode hex="00B9"/>
  <outline>
    <contour>
      <point x="330" y="451" type="line"/>
      <point x="595" y="451" type="line"/>
      <point x="595" y="1530" type="line"/>
      <point x="407" y="1530" type="line"/>
      <point x="350" y="1495"/>
      <point x="276" y="1475"/>
      <point x="186" y="1475" type="curve"/>
      <point x="186" y="1343" type="line"/>
      <point x="330" y="1343" type="line"/>
    </contour>
  </outline>
</glyph>
<glyph name="ordmasculine" format="1">
  <advance width="1149"/>
  <unicode hex="00BA"/>
  <outline>
    <contour>
      <point x="573" y="604" type="curve" smooth="yes"/>
      <point x="860" y="605"/>
      <point x="985" y="662"/>
      <point x="985" y="970" type="curve" smooth="yes"/>
      <point x="985" y="1171" type="line" smooth="yes"/>
      <point x="986" y="1500"/>
      <point x="861" y="1550"/>
      <point x="574" y="1550" type="curve" smooth="yes"/>
      <point x="293" y="1550"/>
      <point x="160" y="1502"/>
      <point x="161" y="1171" type="curve" smooth="yes"/>
      <point x="161" y="970" type="line" smooth="yes"/>
      <point x="161" y="664"/>
      <point x="285" y="604"/>
    </contour>
    <contour>
      <point x="431" y="794" type="curve" smooth="yes"/>
      <point x="431" y="1369" type="line" smooth="yes"/>
      <point x="431" y="1408"/>
      <point x="512" y="1414"/>
      <point x="573" y="1414" type="curve" smooth="yes"/>
      <point x="635" y="1414"/>
      <point x="715" y="1408"/>
      <point x="715" y="1369" type="curve" smooth="yes"/>
      <point x="715" y="794" type="line" smooth="yes"/>
      <point x="715" y="760"/>
      <point x="655" y="752"/>
      <point x="573" y="752" type="curve" smooth="yes"/>
      <point x="491" y="752"/>
      <point x="431" y="760"/>
    </contour>
  </outline>
</glyph>
<glyph name="guillemotright" format="1">
  <advance width="1695"/>
  <unicode hex="00BB"/>
  <outline>
    <contour>
      <point x="231" y="228" type="curve" smooth="yes"/>
      <point x="248" y="228"/>
      <point x="267" y="234"/>
      <point x="287" y="250" type="curve" smooth="yes"/>
      <point x="798" y="636" type="line" smooth="yes"/>
      <point x="851" y="676"/>
      <point x="876" y="728"/>
      <point x="876" y="779" type="curve"/>
      <point x="876" y="834"/>
      <point x="849" y="884"/>
      <point x="798" y="923" type="curve" smooth="yes"/>
      <point x="287" y="1309" type="line" smooth="yes"/>
      <point x="266" y="1326"/>
      <point x="247" y="1334"/>
      <point x="230" y="1331" type="curve" smooth="yes"/>
      <point x="189" y="1334"/>
      <point x="158" y="1299"/>
      <point x="158" y="1256" type="curve" smooth="yes"/>
      <point x="158" y="1239"/>
      <point x="164" y="1216"/>
      <point x="183" y="1195" type="curve" smooth="yes"/>
      <point x="567" y="779" type="line"/>
      <point x="183" y="364" type="line" smooth="yes"/>
      <point x="166" y="345"/>
      <point x="159" y="324"/>
      <point x="159" y="304" type="curve" smooth="yes"/>
      <point x="159" y="263"/>
      <point x="189" y="228"/>
    </contour>
    <contour>
      <point x="857" y="228" type="curve" smooth="yes"/>
      <point x="875" y="228"/>
      <point x="894" y="235"/>
      <point x="914" y="250" type="curve" smooth="yes"/>
      <point x="1425" y="636" type="line" smooth="yes"/>
      <point x="1478" y="676"/>
      <point x="1503" y="728"/>
      <point x="1503" y="779" type="curve"/>
      <point x="1503" y="834"/>
      <point x="1476" y="884"/>
      <point x="1425" y="923" type="curve" smooth="yes"/>
      <point x="914" y="1309" type="line" smooth="yes"/>
      <point x="892" y="1326"/>
      <point x="874" y="1334"/>
      <point x="857" y="1331" type="curve" smooth="yes"/>
      <point x="816" y="1334"/>
      <point x="785" y="1299"/>
      <point x="785" y="1256" type="curve" smooth="yes"/>
      <point x="785" y="1239"/>
      <point x="791" y="1216"/>
      <point x="810" y="1195" type="curve" smooth="yes"/>
      <point x="1194" y="779" type="line"/>
      <point x="810" y="364" type="line" smooth="yes"/>
      <point x="793" y="345"/>
      <point x="786" y="324"/>
      <point x="786" y="304" type="curve" smooth="yes"/>
      <point x="786" y="263"/>
      <point x="816" y="228"/>
    </contour>
  </outline>
</glyph>
<glyph name="onequarter" format="1">
  <advance width="2442"/>
  <unicode hex="00BC"/>
  <outline>
    <contour>
      <point x="2037" y="0" type="line"/>
      <point x="2290" y="0" type="line"/>
      <point x="2290" y="667" type="line"/>
      <point x="2037" y="667" type="line"/>
      <point x="2037" y="403" type="line"/>
      <point x="1751" y="403" type="line"/>
      <point x="1751" y="425" type="line"/>
      <point x="2026" y="1079" type="line"/>
      <point x="1771" y="1079" type="line"/>
      <point x="1477" y="417" type="line"/>
      <point x="1477" y="217" type="line"/>
      <point x="2037" y="217" type="line"/>
    </contour>
    <contour>
      <point x="251" y="490" type="line"/>
      <point x="516" y="490" type="line"/>
      <point x="516" y="1530" type="line"/>
      <point x="328" y="1530" type="line"/>
      <point x="271" y="1495"/>
      <point x="197" y="1475"/>
      <point x="107" y="1475" type="curve"/>
      <point x="107" y="1343" type="line"/>
      <point x="251" y="1343" type="line"/>
    </contour>
    <contour>
      <point x="692" y="0" type="line"/>
      <point x="907" y="0" type="line"/>
      <point x="1503" y="1552" type="line"/>
      <point x="1192" y="1552" type="line"/>
    </contour>
  </outline>
</glyph>
<glyph name="onehalf" format="1">
  <advance width="2494"/>
  <unicode hex="00BD"/>
  <outline>
    <contour>
      <point x="1563" y="0" type="line"/>
      <point x="2353" y="0" type="line"/>
      <point x="2353" y="163" type="line"/>
      <point x="1811" y="163" type="line"/>
      <point x="1811" y="266"/>
      <point x="1845" y="330"/>
      <point x="2008" y="386" type="curve" smooth="yes"/>
      <point x="2178" y="448"/>
      <point x="2380" y="500"/>
      <point x="2380" y="742" type="curve" smooth="yes"/>
      <point x="2380" y="1008"/>
      <point x="2232" y="1075"/>
      <point x="1970" y="1075" type="curve" smooth="yes"/>
      <point x="1727" y="1075"/>
      <point x="1556" y="1014"/>
      <point x="1558" y="744" type="curve" smooth="yes"/>
      <point x="1559" y="702" type="line"/>
      <point x="1817" y="714" type="line"/>
      <point x="1817" y="824" type="line" smooth="yes"/>
      <point x="1817" y="872"/>
      <point x="1846" y="911"/>
      <point x="1972" y="910" type="curve" smooth="yes"/>
      <point x="2089" y="910"/>
      <point x="2124" y="884"/>
      <point x="2124" y="836" type="curve" smooth="yes"/>
      <point x="2124" y="733" type="line" smooth="yes"/>
      <point x="2124" y="654"/>
      <point x="2057" y="630"/>
      <point x="1921" y="588" type="curve" smooth="yes"/>
      <point x="1671" y="508"/>
      <point x="1563" y="409"/>
      <point x="1563" y="147" type="curve" smooth="yes"/>
    </contour>
    <contour>
      <point x="251" y="490" type="line"/>
      <point x="516" y="490" type="line"/>
      <point x="516" y="1530" type="line"/>
      <point x="328" y="1530" type="line"/>
      <point x="271" y="1495"/>
      <point x="197" y="1475"/>
      <point x="107" y="1475" type="curve"/>
      <point x="107" y="1343" type="line"/>
      <point x="251" y="1343" type="line"/>
    </contour>
    <contour>
      <point x="667" y="0" type="line"/>
      <point x="883" y="0" type="line"/>
      <point x="1479" y="1552" type="line"/>
      <point x="1168" y="1552" type="line"/>
    </contour>
  </outline>
</glyph>
<glyph name="threequarters" format="1">
  <advance width="2778"/>
  <unicode hex="00BE"/>
  <outline>
    <contour>
      <point x="2344" y="0" type="line"/>
      <point x="2645" y="0" type="line"/>
      <point x="2645" y="650" type="line"/>
      <point x="2344" y="650" type="line"/>
      <point x="2344" y="404" type="line"/>
      <point x="2129" y="404" type="line"/>
      <point x="2129" y="432" type="line"/>
      <point x="2356" y="1062" type="line"/>
      <point x="2042" y="1062" type="line"/>
      <point x="1804" y="428" type="line"/>
      <point x="1804" y="192" type="line"/>
      <point x="2344" y="192" type="line"/>
    </contour>
    <contour>
      <point x="1044" y="0" type="line"/>
      <point x="1318" y="0" type="line"/>
      <point x="1844" y="1572" type="line"/>
      <point x="1478" y="1572" type="line"/>
    </contour>
    <contour>
      <point x="569" y="480" type="curve" smooth="yes"/>
      <point x="869" y="480"/>
      <point x="987" y="564"/>
      <point x="987" y="810" type="curve" smooth="yes"/>
      <point x="987" y="918"/>
      <point x="955" y="1008"/>
      <point x="861" y="1040" type="curve"/>
      <point x="947" y="1073"/>
      <point x="985" y="1144"/>
      <point x="985" y="1252" type="curve" smooth="yes"/>
      <point x="985" y="1499"/>
      <point x="868" y="1576"/>
      <point x="568" y="1576" type="curve" smooth="yes"/>
      <point x="268" y="1576"/>
      <point x="150" y="1493"/>
      <point x="150" y="1230" type="curve"/>
      <point x="150" y="1185" type="line"/>
      <point x="456" y="1185" type="line"/>
      <point x="457" y="1348" type="line" smooth="yes"/>
      <point x="458" y="1405"/>
      <point x="504" y="1412"/>
      <point x="567" y="1412" type="curve" smooth="yes"/>
      <point x="630" y="1412"/>
      <point x="676" y="1401"/>
      <point x="676" y="1355" type="curve"/>
      <point x="676" y="1312"/>
      <point x="679" y="1111"/>
      <point x="659" y="1111" type="curve" smooth="yes"/>
      <point x="456" y="1111" type="line"/>
      <point x="456" y="973" type="line"/>
      <point x="659" y="973" type="line" smooth="yes"/>
      <point x="677" y="973"/>
      <point x="676" y="750"/>
      <point x="676" y="714" type="curve"/>
      <point x="676" y="666"/>
      <point x="627" y="650"/>
      <point x="571" y="650" type="curve"/>
      <point x="494" y="650"/>
      <point x="455" y="667"/>
      <point x="456" y="718" type="curve" smooth="yes"/>
      <point x="456" y="896" type="line"/>
      <point x="150" y="896" type="line"/>
      <point x="150" y="842" type="line" smooth="yes"/>
      <point x="150" y="592"/>
      <point x="261" y="480"/>
    </contour>
  </outline>
</glyph>
<glyph name="AE" format="1">
  <advance width="2008"/>
  <unicode hex="00C6"/>
  <outline>
    <contour>
      <point x="1138" y="1530" type="move" name="top"/>
    </contour>
    <contour>
      <point x="58" y="0" type="line"/>
      <point x="442" y="0" type="line"/>
      <point x="623" y="368" type="line"/>
      <point x="1026" y="368" type="line"/>
      <point x="1026" y="0" type="line"/>
      <point x="1920" y="0" type="line"/>
      <point x="1920" y="196" type="line"/>
      <point x="1379" y="196" type="line"/>
      <point x="1379" y="702" type="line"/>
      <point x="1831" y="702" type="line"/>
      <point x="1831" y="901" type="line"/>
      <point x="1379" y="901" type="line"/>
      <point x="1379" y="1335" type="line"/>
      <point x="1909" y="1335" type="line"/>
      <point x="1909" y="1530" type="line"/>
      <point x="828" y="1530" type="line"/>
    </contour>
    <contour>
      <point x="692" y="544" type="line"/>
      <point x="1026" y="1244" type="line"/>
      <point x="1026" y="544" type="line"/>
    </contour>
  </outline>
</glyph>
<glyph name="multiply" format="1">
  <advance width="1145"/>
  <unicode hex="00D7"/>
  <outline>
    <contour>
      <point x="332" y="180" type="curve"/>
      <point x="570" y="440" type="line"/>
      <point x="809" y="180" type="line"/>
      <point x="1014" y="403" type="line"/>
      <point x="778" y="662" type="line"/>
      <point x="1014" y="922" type="line"/>
      <point x="809" y="1144" type="line"/>
      <point x="570" y="885" type="line"/>
      <point x="332" y="1144" type="line"/>
      <point x="291" y="1099"/>
      <point x="142" y="940"/>
      <point x="126" y="922" type="curve"/>
      <point x="255" y="777"/>
      <point x="358" y="667"/>
      <point x="363" y="662" type="curve"/>
      <point x="126" y="403" type="line"/>
      <point x="167" y="358"/>
      <point x="315" y="198"/>
    </contour>
  </outline>
</glyph>
<glyph name="Oslash" format="1">
  <advance width="1735"/>
  <unicode hex="00D8"/>
  <outline>
    <contour>
      <point x="852" y="1595" type="move" name="top"/>
    </contour>
    <contour>
      <point x="1198" y="1319" type="line"/>
      <point x="1414" y="1657" type="line"/>
      <point x="1291" y="1729" type="line"/>
      <point x="1070" y="1383" type="line"/>
    </contour>
    <contour>
      <point x="281" y="-162" type="line"/>
      <point x="461" y="125" type="line"/>
      <point x="345" y="204" type="line"/>
      <point x="162" y="-88" type="line"/>
    </contour>
    <component base="O"/>
  </outline>
</glyph>
<glyph name="Thorn" format="1">
  <advance width="1451"/>
  <unicode hex="00DE"/>
  <outline>
    <contour>
      <point x="181" y="0" type="line"/>
      <point x="534" y="0" type="line"/>
      <point x="534" y="332" type="line"/>
      <point x="721" y="332" type="line" smooth="yes"/>
      <point x="996" y="332"/>
      <point x="1323" y="340"/>
      <point x="1323" y="759" type="curve" smooth="yes"/>
      <point x="1323" y="923" type="line" smooth="yes"/>
      <point x="1318" y="1273"/>
      <point x="1141" y="1333"/>
      <point x="738" y="1333" type="curve" smooth="yes"/>
      <point x="534" y="1333" type="line"/>
      <point x="534" y="1531" type="line"/>
      <point x="181" y="1531" type="line"/>
    </contour>
    <contour>
      <point x="534" y="525" type="line"/>
      <point x="534" y="1144" type="line"/>
      <point x="740" y="1144" type="line" smooth="yes"/>
      <point x="946" y="1144"/>
      <point x="972" y="999"/>
      <point x="972" y="832" type="curve" smooth="yes"/>
      <point x="972" y="707"/>
      <point x="969" y="525"/>
      <point x="796" y="525" type="curve" smooth="yes"/>
    </contour>
  </outline>
</glyph>
<glyph name="germandbls" format="1">
  <advance width="1375"/>
  <unicode hex="00DF"/>
  <outline>
    <contour>
      <point x="168" y="-193" type="line"/>
      <point x="479" y="-183" type="line"/>
      <point x="479" y="1187" type="line"/>
      <point x="479" y="1338"/>
      <point x="551" y="1345"/>
      <point x="681" y="1345" type="curve" smooth="yes"/>
      <point x="802" y="1345"/>
      <point x="870" y="1324"/>
      <point x="870" y="1223" type="curve" smooth="yes"/>
      <point x="870" y="1133"/>
      <point x="866" y="921"/>
      <point x="810" y="921" type="curve" smooth="yes"/>
      <point x="618" y="921" type="line"/>
      <point x="618" y="742" type="line"/>
      <point x="810" y="741" type="line" smooth="yes"/>
      <point x="915" y="741"/>
      <point x="920" y="589"/>
      <point x="916" y="445" type="curve" smooth="yes"/>
      <point x="912" y="290"/>
      <point x="891" y="173"/>
      <point x="786" y="173" type="curve" smooth="yes"/>
      <point x="589" y="174" type="line"/>
      <point x="589" y="-14" type="line"/>
      <point x="774" y="-14" type="line" smooth="yes"/>
      <point x="1025" y="-14"/>
      <point x="1228" y="53"/>
      <point x="1228" y="332" type="curve" smooth="yes"/>
      <point x="1228" y="502" type="line" smooth="yes"/>
      <point x="1228" y="747"/>
      <point x="1107" y="834"/>
      <point x="955" y="843" type="curve"/>
      <point x="1091" y="862"/>
      <point x="1152" y="961"/>
      <point x="1152" y="1163" type="curve" smooth="yes"/>
      <point x="1152" y="1446"/>
      <point x="1015" y="1534"/>
      <point x="682" y="1534" type="curve" smooth="yes"/>
      <point x="357" y="1534"/>
      <point x="168" y="1467"/>
      <point x="168" y="1164" type="curve" smooth="yes"/>
    </contour>
  </outline>
</glyph>
<glyph name="ae" format="1">
  <advance width="1937"/>
  <unicode hex="00E6"/>
  <outline>
    <contour>
      <point x="936" y="1174" type="move" name="top"/>
    </contour>
    <contour>
      <point x="509" y="-23" type="curve" smooth="yes"/>
      <point x="712" y="-23"/>
      <point x="868" y="20"/>
      <point x="956" y="130" type="curve"/>
      <point x="1025" y="39"/>
      <point x="1129" y="-23"/>
      <point x="1330" y="-23" type="curve" smooth="yes"/>
      <point x="1588" y="-23"/>
      <point x="1750" y="13"/>
      <point x="1773" y="224" type="curve" smooth="yes"/>
      <point x="1780" y="250"/>
      <point x="1783" y="339"/>
      <point x="1785" y="380" type="curve"/>
      <point x="1473" y="397" type="line"/>
      <point x="1468" y="358"/>
      <point x="1472" y="230"/>
      <point x="1459" y="207" type="curve" smooth="yes"/>
      <point x="1447" y="184"/>
      <point x="1391" y="171"/>
      <point x="1321" y="171" type="curve" smooth="yes"/>
      <point x="1240" y="171"/>
      <point x="1171" y="183"/>
      <point x="1150" y="210" type="curve" smooth="yes"/>
      <point x="1128" y="238"/>
      <point x="1127" y="415"/>
      <point x="1127" y="571" type="curve"/>
      <point x="1802" y="571" type="line"/>
      <point x="1802" y="616"/>
      <point x="1801" y="798"/>
      <point x="1800" y="832" type="curve" smooth="yes"/>
      <point x="1790" y="1149"/>
      <point x="1650" y="1210"/>
      <point x="1314" y="1210" type="curve" smooth="yes"/>
      <point x="1147" y="1210"/>
      <point x="1015" y="1167"/>
      <point x="974" y="1085" type="curve"/>
      <point x="947" y="1178"/>
      <point x="786" y="1210"/>
      <point x="642" y="1210" type="curve" smooth="yes"/>
      <point x="381" y="1210"/>
      <point x="171" y="1178"/>
      <point x="171" y="925" type="curve" smooth="yes"/>
      <point x="171" y="901"/>
      <point x="173" y="878"/>
      <point x="176" y="854" type="curve"/>
      <point x="470" y="859" type="line"/>
      <point x="472" y="902"/>
      <point x="470" y="981"/>
      <point x="486" y="996" type="curve" smooth="yes"/>
      <point x="502" y="1011"/>
      <point x="559" y="1015"/>
      <point x="634" y="1015" type="curve" smooth="yes"/>
      <point x="731" y="1015"/>
      <point x="788" y="1002"/>
      <point x="788" y="959" type="curve" smooth="yes"/>
      <point x="788" y="672" type="line"/>
      <point x="423" y="672"/>
      <point x="110" y="659"/>
      <point x="110" y="367" type="curve" smooth="yes"/>
      <point x="110" y="88"/>
      <point x="228" y="-23"/>
    </contour>
    <contour>
      <point x="577" y="171" type="curve" smooth="yes"/>
      <point x="522" y="171"/>
      <point x="466" y="177"/>
      <point x="452" y="196" type="curve" smooth="yes"/>
      <point x="438" y="216"/>
      <point x="438" y="383"/>
      <point x="438" y="449" type="curve" smooth="yes"/>
      <point x="438" y="492"/>
      <point x="495" y="517"/>
      <point x="623" y="526" type="curve" smooth="yes"/>
      <point x="660" y="529"/>
      <point x="733" y="530"/>
      <point x="788" y="530" type="curve"/>
      <point x="788" y="290" type="line" smooth="yes"/>
      <point x="788" y="222"/>
      <point x="713" y="171"/>
    </contour>
    <contour>
      <point x="1127" y="710" type="line"/>
      <point x="1129" y="789"/>
      <point x="1127" y="938"/>
      <point x="1145" y="970" type="curve" smooth="yes"/>
      <point x="1163" y="1003"/>
      <point x="1229" y="1015"/>
      <point x="1313" y="1015" type="curve" smooth="yes"/>
      <point x="1400" y="1015"/>
      <point x="1452" y="1003"/>
      <point x="1456" y="952" type="curve" smooth="yes"/>
      <point x="1460" y="905"/>
      <point x="1462" y="760"/>
      <point x="1462" y="710" type="curve"/>
    </contour>
  </outline>
</glyph>
<glyph name="eth" format="1">
  <advance width="1378"/>
  <unicode hex="00F0"/>
  <outline>
    <contour>
      <point x="695" y="-29" type="curve" smooth="yes"/>
      <point x="1116" y="-29"/>
      <point x="1225" y="152"/>
      <point x="1225" y="587" type="curve" smooth="yes"/>
      <point x="1225" y="1049"/>
      <point x="1163" y="1300"/>
      <point x="977" y="1448" type="curve"/>
      <point x="1138" y="1590" type="line"/>
      <point x="1074" y="1674" type="line"/>
      <point x="886" y="1511" type="line"/>
      <point x="773" y="1575"/>
      <point x="628" y="1616"/>
      <point x="434" y="1646" type="curve"/>
      <point x="337" y="1442" type="line"/>
      <point x="509" y="1406"/>
      <point x="610" y="1388"/>
      <point x="683" y="1352" type="curve"/>
      <point x="514" y="1207" type="line"/>
      <point x="578" y="1122" type="line"/>
      <point x="771" y="1286" type="line"/>
      <point x="833" y="1222"/>
      <point x="876" y="1113"/>
      <point x="884" y="923" type="curve"/>
      <point x="872" y="985"/>
      <point x="743" y="1016"/>
      <point x="604" y="1016" type="curve" smooth="yes"/>
      <point x="265" y="1016"/>
      <point x="143" y="878"/>
      <point x="140" y="585" type="curve" smooth="yes"/>
      <point x="140" y="580"/>
      <point x="139" y="440"/>
      <point x="139" y="436" type="curve" smooth="yes"/>
      <point x="139" y="82"/>
      <point x="285" y="-29"/>
    </contour>
    <contour>
      <point x="691" y="155" type="curve" smooth="yes"/>
      <point x="524" y="155"/>
      <point x="475" y="159"/>
      <point x="475" y="223" type="curve" smooth="yes"/>
      <point x="475" y="757" type="line" smooth="yes"/>
      <point x="475" y="826"/>
      <point x="514" y="834"/>
      <point x="693" y="834" type="curve" smooth="yes"/>
      <point x="851" y="834"/>
      <point x="883" y="796"/>
      <point x="883" y="718" type="curve" smooth="yes"/>
      <point x="883" y="217" type="line" smooth="yes"/>
      <point x="883" y="165"/>
      <point x="858" y="155"/>
    </contour>
  </outline>
</glyph>
<glyph name="divide" format="1">
  <advance width="905"/>
  <unicode hex="00F7"/>
  <outline>
    <contour>
      <point x="454" y="134" type="curve" smooth="yes"/>
      <point x="540" y="134"/>
      <point x="594" y="203"/>
      <point x="594" y="288" type="curve" smooth="yes"/>
      <point x="594" y="366"/>
      <point x="538" y="442"/>
      <point x="468" y="442" type="curve" smooth="yes"/>
      <point x="367" y="442"/>
      <point x="314" y="383"/>
      <point x="314" y="288" type="curve" smooth="yes"/>
      <point x="314" y="193"/>
      <point x="373" y="134"/>
    </contour>
    <contour>
      <point x="110" y="614" type="line"/>
      <point x="797" y="614" type="line"/>
      <point x="797" y="753" type="line"/>
      <point x="110" y="753" type="line"/>
    </contour>
    <contour>
      <point x="454" y="925" type="curve" smooth="yes"/>
      <point x="542" y="925"/>
      <point x="594" y="991"/>
      <point x="594" y="1079" type="curve" smooth="yes"/>
      <point x="594" y="1157"/>
      <point x="538" y="1233"/>
      <point x="468" y="1233" type="curve" smooth="yes"/>
      <point x="367" y="1233"/>
      <point x="314" y="1175"/>
      <point x="314" y="1079" type="curve" smooth="yes"/>
      <point x="314" y="984"/>
      <point x="372" y="925"/>
    </contour>
  </outline>
</glyph>
<glyph name="oslash" format="1">
  <advance width="1631"/>
  <unicode hex="00F8"/>
  <outline>
    <contour>
      <point x="738" y="1238" type="move" name="top"/>
    </contour>
    <contour>
      <point x="162" y="-23" type="line"/>
      <point x="1366" y="1205" type="line"/>
      <point x="1308" y="1263" type="line"/>
      <point x="104" y="35" type="line"/>
    </contour>
    <component base="o"/>
  </outline>
</glyph>
<glyph name="thorn" format="1">
  <advance width="1357"/>
  <unicode hex="00FE"/>
  <outline>
    <contour>
      <point x="166" y="-404" type="line"/>
      <point x="505" y="-394" type="line"/>
      <point x="505" y="94" type="line"/>
      <point x="548" y="18"/>
      <point x="662" y="-24"/>
      <point x="835" y="-24" type="curve" smooth="yes"/>
      <point x="1131" y="-24"/>
      <point x="1207" y="119"/>
      <point x="1207" y="474" type="curve" smooth="yes"/>
      <point x="1207" y="686" type="line" smooth="yes"/>
      <point x="1207" y="984"/>
      <point x="1159" y="1227"/>
      <point x="824" y="1227" type="curve" smooth="yes"/>
      <point x="650" y="1227"/>
      <point x="539" y="1194"/>
      <point x="504" y="1112" type="curve"/>
      <point x="504" y="1588" type="line"/>
      <point x="166" y="1578" type="line"/>
    </contour>
    <contour>
      <point x="700" y="166" type="curve" smooth="yes"/>
      <point x="562" y="166"/>
      <point x="504" y="166"/>
      <point x="504" y="296" type="curve" smooth="yes"/>
      <point x="504" y="356"/>
      <point x="504" y="808"/>
      <point x="504" y="915" type="curve" smooth="yes"/>
      <point x="504" y="1029"/>
      <point x="542" y="1041"/>
      <point x="713" y="1041" type="curve" smooth="yes"/>
      <point x="842" y="1041"/>
      <point x="887" y="1038"/>
      <point x="887" y="898" type="curve" smooth="yes"/>
      <point x="887" y="837"/>
      <point x="887" y="388"/>
      <point x="887" y="319" type="curve" smooth="yes"/>
      <point x="887" y="194"/>
      <point x="842" y="166"/>
    </contour>
  </outline>
</glyph>
<glyph name="Hbar" format="1">
  <advance width="1626"/>
  <unicode hex="0126"/>
  <outline>
    <contour>
      <point x="213" y="0" type="line"/>
      <point x="568" y="0" type="line"/>
      <point x="568" y="686" type="line"/>
      <point x="1055" y="686" type="line"/>
      <point x="1055" y="0" type="line"/>
      <point x="1410" y="0" type="line"/>
      <point x="1410" y="1112" type="line"/>
      <point x="1498" y="1112" type="line"/>
      <point x="1498" y="1250" type="line"/>
      <point x="1410" y="1250" type="line"/>
      <point x="1410" y="1530" type="line"/>
      <point x="1055" y="1530" type="line"/>
      <point x="1055" y="1250" type="line"/>
      <point x="568" y="1250" type="line"/>
      <point x="568" y="1530" type="line"/>
      <point x="213" y="1530" type="line"/>
      <point x="213" y="1250" type="line"/>
      <point x="128" y="1250" type="line"/>
      <point x="128" y="1112" type="line"/>
      <point x="213" y="1112" type="line"/>
    </contour>
    <contour>
      <point x="568" y="878" type="line"/>
      <point x="568" y="1112" type="line"/>
      <point x="1055" y="1112" type="line"/>
      <point x="1055" y="878" type="line"/>
    </contour>
  </outline>
</glyph>
<glyph name="dotlessi" format="1">
  <advance width="684"/>
  <unicode hex="0131"/>
  <outline>
    <contour>
      <point x="341" y="1174" type="move" name="top"/>
    </contour>
    <contour>
      <point x="364" y="0" type="move" name="ogonek"/>
    </contour>
    <contour>
      <point x="181" y="1174" type="line"/>
      <point x="181" y="0" type="line"/>
      <point x="519" y="0" type="line"/>
      <point x="519" y="1174" type="line"/>
    </contour>
  </outline>
</glyph>
<glyph name="kgreenlandic" format="1">
  <advance width="1496"/>
  <unicode hex="0138"/>
  <outline>
    <contour>
      <point x="147" y="0" type="line"/>
      <point x="600" y="0" type="line"/>
      <point x="600" y="359" type="line"/>
      <point x="705" y="485" type="line"/>
      <point x="960" y="0" type="line"/>
      <point x="1413" y="0" type="line"/>
      <point x="1024" y="735" type="line"/>
      <point x="1386" y="1231" type="line"/>
      <point x="923" y="1231" type="line"/>
      <point x="718" y="932" type="line" smooth="yes"/>
      <point x="700" y="910"/>
      <point x="618" y="789"/>
      <point x="599" y="769" type="curve"/>
      <point x="599" y="785"/>
      <point x="600" y="917"/>
      <point x="600" y="934" type="curve" smooth="yes"/>
      <point x="600" y="1231" type="line"/>
      <point x="147" y="1225" type="line"/>
    </contour>
  </outline>
</glyph>
<glyph name="Lslash" format="1">
  <advance width="1101"/>
  <unicode hex="0141"/>
  <outline>
    <contour>
      <point x="43" y="563" type="line"/>
      <point x="800" y="903" type="line"/>
      <point x="800" y="1151" type="line"/>
      <point x="43" y="812" type="line"/>
    </contour>
    <component base="L"/>
  </outline>
</glyph>
<glyph name="lslash" format="1">
  <advance width="757"/>
  <unicode hex="0142"/>
  <outline>
    <contour>
      <point x="59" y="741" type="line"/>
      <point x="704" y="986" type="line"/>
      <point x="704" y="1206" type="line"/>
      <point x="59" y="963" type="line"/>
    </contour>
    <component base="l" xOffset="19"/>
  </outline>
</glyph>
<glyph name="Eng" format="1">
  <advance width="1643"/>
  <unicode hex="014A"/>
  <outline>
    <contour>
      <point x="799" y="-549" type="line"/>
      <point x="1288" y="-549"/>
      <point x="1465" y="-423"/>
      <point x="1465" y="-42" type="curve" smooth="yes"/>
      <point x="1465" y="1559" type="line"/>
      <point x="1112" y="1559" type="line"/>
      <point x="1112" y="672" type="line"/>
      <point x="584" y="1559" type="line"/>
      <point x="173" y="1559" type="line"/>
      <point x="173" y="0" type="line"/>
      <point x="529" y="0" type="line"/>
      <point x="529" y="869" type="line"/>
      <point x="1068" y="17" type="line"/>
      <point x="1069" y="-213" type="line" smooth="yes"/>
      <point x="1040" y="-264"/>
      <point x="977" y="-292"/>
      <point x="802" y="-292" type="curve"/>
    </contour>
  </outline>
</glyph>
<glyph name="eng" format="1">
  <advance width="1351"/>
  <unicode hex="014B"/>
  <outline>
    <contour>
      <point x="607" y="-454" type="line"/>
      <point x="1051" y="-454"/>
      <point x="1194" y="-326"/>
      <point x="1196" y="66" type="curve" smooth="yes"/>
      <point x="1196" y="736" type="line" smooth="yes"/>
      <point x="1196" y="1058"/>
      <point x="1118" y="1203"/>
      <point x="823" y="1204" type="curve" smooth="yes"/>
      <point x="675" y="1204"/>
      <point x="536" y="1159"/>
      <point x="491" y="1055" type="curve"/>
      <point x="465" y="1174" type="line"/>
      <point x="159" y="1174" type="line"/>
      <point x="159" y="0" type="line"/>
      <point x="499" y="0" type="line"/>
      <point x="499" y="904" type="line" smooth="yes"/>
      <point x="499" y="993"/>
      <point x="555" y="1034"/>
      <point x="714" y="1034" type="curve" smooth="yes"/>
      <point x="817" y="1034"/>
      <point x="856" y="1022"/>
      <point x="856" y="832" type="curve" smooth="yes"/>
      <point x="856" y="-129" type="line" smooth="yes"/>
      <point x="839" y="-202"/>
      <point x="792" y="-244"/>
      <point x="586" y="-244" type="curve"/>
    </contour>
  </outline>
</glyph>
<glyph name="OE" format="1">
  <advance width="2024"/>
  <unicode hex="0152"/>
  <outline>
    <contour>
      <point x="1004" y="1527" type="move" name="top"/>
    </contour>
    <contour>
      <point x="738" y="0" type="curve" smooth="yes"/>
      <point x="1896" y="0" type="line"/>
      <point x="1909" y="185" type="line"/>
      <point x="1359" y="185" type="line"/>
      <point x="1359" y="701" type="line"/>
      <point x="1833" y="701" type="line"/>
      <point x="1833" y="893" type="line"/>
      <point x="1359" y="893" type="line"/>
      <point x="1359" y="1342" type="line"/>
      <point x="1903" y="1342" type="line"/>
      <point x="1890" y="1527" type="line"/>
      <point x="738" y="1527" type="line" smooth="yes"/>
      <point x="282" y="1527"/>
      <point x="142" y="1421"/>
      <point x="142" y="957" type="curve" smooth="yes"/>
      <point x="142" y="939"/>
      <point x="142" y="622"/>
      <point x="142" y="604" type="curve" smooth="yes"/>
      <point x="143" y="106"/>
      <point x="248" y="0"/>
    </contour>
    <contour>
      <point x="743" y="181" type="line"/>
      <point x="584" y="181"/>
      <point x="505" y="201"/>
      <point x="489" y="319" type="curve" smooth="yes"/>
      <point x="477" y="402"/>
      <point x="474" y="971"/>
      <point x="482" y="1190" type="curve" smooth="yes"/>
      <point x="485" y="1318"/>
      <point x="526" y="1346"/>
      <point x="743" y="1346" type="curve" smooth="yes"/>
      <point x="1006" y="1346" type="line"/>
      <point x="1006" y="181" type="line"/>
    </contour>
  </outline>
</glyph>
<glyph name="oe" format="1">
  <advance width="2035"/>
  <unicode hex="0153"/>
  <outline>
    <contour>
      <point x="1394" y="-21" type="curve" smooth="yes"/>
      <point x="1729" y="-21"/>
      <point x="1888" y="40"/>
      <point x="1892" y="287" type="curve" smooth="yes"/>
      <point x="1892" y="299"/>
      <point x="1892" y="368"/>
      <point x="1890" y="383" type="curve"/>
      <point x="1577" y="388" type="line"/>
      <point x="1571" y="204" type="line" smooth="yes"/>
      <point x="1568" y="167"/>
      <point x="1505" y="148"/>
      <point x="1399" y="148" type="curve" smooth="yes"/>
      <point x="1275" y="148"/>
      <point x="1205" y="161"/>
      <point x="1202" y="216" type="curve" smooth="yes"/>
      <point x="1198" y="281"/>
      <point x="1198" y="500"/>
      <point x="1197" y="571" type="curve"/>
      <point x="1905" y="571" type="line"/>
      <point x="1908" y="753" type="line"/>
      <point x="1905" y="1135"/>
      <point x="1735" y="1195"/>
      <point x="1389" y="1195" type="curve" smooth="yes"/>
      <point x="1232" y="1195"/>
      <point x="1102" y="1164"/>
      <point x="1029" y="1089" type="curve"/>
      <point x="963" y="1165"/>
      <point x="830" y="1195"/>
      <point x="668" y="1195" type="curve" smooth="yes"/>
      <point x="303" y="1195"/>
      <point x="134" y="1134"/>
      <point x="134" y="725" type="curve" smooth="yes"/>
      <point x="134" y="478" type="line" smooth="yes"/>
      <point x="134" y="58"/>
      <point x="277" y="-21"/>
      <point x="667" y="-21" type="curve" smooth="yes"/>
      <point x="831" y="-21"/>
      <point x="966" y="10"/>
      <point x="1033" y="88" type="curve"/>
      <point x="1107" y="10"/>
      <point x="1238" y="-21"/>
    </contour>
    <contour>
      <point x="669" y="160" type="curve" smooth="yes"/>
      <point x="559" y="160"/>
      <point x="479" y="172"/>
      <point x="479" y="217" type="curve"/>
      <point x="479" y="968" type="line"/>
      <point x="479" y="1026"/>
      <point x="595" y="1026"/>
      <point x="668" y="1026" type="curve" smooth="yes"/>
      <point x="742" y="1026"/>
      <point x="858" y="1026"/>
      <point x="858" y="968" type="curve" smooth="yes"/>
      <point x="858" y="217" type="line" smooth="yes"/>
      <point x="858" y="170"/>
      <point x="779" y="160"/>
    </contour>
    <contour>
      <point x="1198" y="701" type="line"/>
      <point x="1199" y="742"/>
      <point x="1197" y="926"/>
      <point x="1208" y="969" type="curve" smooth="yes"/>
      <point x="1221" y="1016"/>
      <point x="1266" y="1028"/>
      <point x="1388" y="1028" type="curve" smooth="yes"/>
      <point x="1494" y="1028"/>
      <point x="1559" y="1015"/>
      <point x="1563" y="964" type="curve" smooth="yes"/>
      <point x="1567" y="917"/>
      <point x="1568" y="744"/>
      <point x="1569" y="701" type="curve"/>
    </contour>
  </outline>
</glyph>
<glyph name="florin" format="1">
  <advance width="942"/>
  <unicode hex="0192"/>
  <outline>
    <contour>
      <point x="328" y="-319" type="curve" smooth="yes"/>
      <point x="514" y="-315"/>
      <point x="541" y="-222"/>
      <point x="541" y="-56" type="curve" smooth="yes"/>
      <point x="541" y="757" type="line"/>
      <point x="739" y="757" type="line"/>
      <point x="739" y="887" type="line"/>
      <point x="541" y="887" type="line"/>
      <point x="540" y="1256" type="line" smooth="yes"/>
      <point x="540" y="1372"/>
      <point x="540" y="1392"/>
      <point x="671" y="1392" type="curve" smooth="yes"/>
      <point x="697" y="1392"/>
      <point x="723" y="1391"/>
      <point x="749" y="1389" type="curve"/>
      <point x="749" y="1543" type="line"/>
      <point x="686" y="1555"/>
      <point x="626" y="1561"/>
      <point x="573" y="1561" type="curve" smooth="yes"/>
      <point x="411" y="1561"/>
      <point x="342" y="1484"/>
      <point x="343" y="1259" type="curve" smooth="yes"/>
      <point x="344" y="887" type="line"/>
      <point x="182" y="887" type="line"/>
      <point x="182" y="757" type="line"/>
      <point x="344" y="757" type="line"/>
      <point x="344" y="-167" type="line"/>
      <point x="176" y="-167" type="line"/>
      <point x="176" y="-299" type="line"/>
      <point x="266" y="-315"/>
      <point x="300" y="-319"/>
    </contour>
  </outline>
</glyph>
<glyph name="dotlessj" format="1">
  <advance width="822"/>
  <unicode hex="0237"/>
  <outline>
    <contour>
      <point x="447" y="1174" type="move" name="top"/>
    </contour>
    <contour>
      <point x="278" y="1174" type="line"/>
      <point x="278" y="-65" type="line" smooth="yes"/>
      <point x="278" y="-142"/>
      <point x="152" y="-129"/>
      <point x="102" y="-132" type="curve"/>
      <point x="116" y="-298" type="line"/>
      <point x="171" y="-307"/>
      <point x="224" y="-311"/>
      <point x="284" y="-311" type="curve" smooth="yes"/>
      <point x="520" y="-311"/>
      <point x="618" y="-200"/>
      <point x="618" y="74" type="curve" smooth="yes"/>
      <point x="618" y="1174" type="line"/>
    </contour>
  </outline>
</glyph>
<glyph name="apostrophemod" format="1">
  <advance width="757"/>
  <unicode hex="02BC"/>
  <outline>
    <contour>
      <point x="201" y="1423" type="curve" smooth="yes"/>
      <point x="389" y="1423"/>
      <point x="492" y="1625"/>
      <point x="492" y="1800" type="curve" smooth="yes"/>
      <point x="492" y="1908"/>
      <point x="434" y="2002"/>
      <point x="324" y="2002" type="curve" smooth="yes"/>
      <point x="228" y="2002"/>
      <point x="156" y="1934"/>
      <point x="156" y="1830" type="curve" smooth="yes"/>
      <point x="156" y="1729"/>
      <point x="225" y="1659"/>
      <point x="313" y="1655" type="curve"/>
      <point x="311" y="1570"/>
      <point x="232" y="1510"/>
      <point x="147" y="1510" type="curve"/>
      <point x="147" y="1426" type="line"/>
      <point x="160" y="1424"/>
      <point x="178" y="1423"/>
    </contour>
  </outline>
</glyph>
<glyph name="circumflex" format="1">
  <advance width="1142"/>
  <unicode hex="02C6"/>
  <outline>
    <contour>
      <point x="656" y="1231" type="move" name="_top"/>
    </contour>
    <contour>
      <point x="1020" y="1385" type="curve" smooth="yes"/>
      <point x="1039" y="1403"/>
      <point x="1043" y="1435"/>
      <point x="1022" y="1468" type="curve" smooth="yes"/>
      <point x="783" y="1843" type="line" smooth="yes"/>
      <point x="753" y="1889"/>
      <point x="706" y="1908"/>
      <point x="658" y="1908" type="curve" smooth="yes"/>
      <point x="610" y="1908"/>
      <point x="561" y="1887"/>
      <point x="532" y="1843" type="curve" smooth="yes"/>
      <point x="293" y="1468" type="line" smooth="yes"/>
      <point x="272" y="1434"/>
      <point x="277" y="1403"/>
      <point x="296" y="1386" type="curve" smooth="yes"/>
      <point x="316" y="1368"/>
      <point x="351" y="1364"/>
      <point x="379" y="1387" type="curve" smooth="yes"/>
      <point x="658" y="1622" type="line"/>
      <point x="936" y="1387" type="line" smooth="yes"/>
      <point x="965" y="1363"/>
      <point x="1000" y="1366"/>
    </contour>
  </outline>
</glyph>
<glyph name="caron" format="1">
  <advance width="997"/>
  <unicode hex="02C7"/>
  <outline>
    <contour>
      <point x="548" y="1174" type="move" name="_top"/>
    </contour>
    <contour>
      <point x="552" y="1330" type="curve" smooth="yes"/>
      <point x="594" y="1330"/>
      <point x="635" y="1347"/>
      <point x="664" y="1390" type="curve" smooth="yes"/>
      <point x="883" y="1737" type="line" smooth="yes"/>
      <point x="899" y="1763"/>
      <point x="897" y="1791"/>
      <point x="879" y="1807" type="curve" smooth="yes"/>
      <point x="861" y="1823"/>
      <point x="831" y="1825"/>
      <point x="810" y="1806" type="curve" smooth="yes"/>
      <point x="551" y="1571" type="line"/>
      <point x="293" y="1806" type="line" smooth="yes"/>
      <point x="272" y="1825"/>
      <point x="242" y="1822"/>
      <point x="225" y="1806" type="curve" smooth="yes"/>
      <point x="206" y="1791"/>
      <point x="204" y="1763"/>
      <point x="220" y="1737" type="curve" smooth="yes"/>
      <point x="439" y="1390" type="line" smooth="yes"/>
      <point x="467" y="1348"/>
      <point x="509" y="1330"/>
    </contour>
  </outline>
</glyph>
<glyph name="uni02C9" format="1">
  <advance width="918"/>
  <unicode hex="02C9"/>
  <outline>
    <contour>
      <point x="505" y="1174" type="move" name="_top"/>
    </contour>
    <contour>
      <point x="163" y="1558" type="line"/>
      <point x="163" y="1392" type="line"/>
      <point x="850" y="1392" type="line"/>
      <point x="850" y="1558" type="line"/>
    </contour>
  </outline>
</glyph>
<glyph name="breve" format="1">
  <advance width="1157"/>
  <unicode hex="02D8"/>
  <outline>
    <contour>
      <point x="668" y="1231" type="move" name="_top"/>
    </contour>
    <contour>
      <point x="828" y="1777" type="line"/>
      <point x="828" y="1656"/>
      <point x="779" y="1600"/>
      <point x="670" y="1600" type="curve" smooth="yes"/>
      <point x="562" y="1600"/>
      <point x="512" y="1656"/>
      <point x="512" y="1777" type="curve"/>
      <point x="268" y="1777" type="line"/>
      <point x="268" y="1507"/>
      <point x="394" y="1384"/>
      <point x="670" y="1384" type="curve" smooth="yes"/>
      <point x="946" y="1384"/>
      <point x="1072" y="1507"/>
      <point x="1072" y="1777" type="curve"/>
    </contour>
  </outline>
</glyph>
<glyph name="dotaccent" format="1">
  <advance width="896"/>
  <unicode hex="02D9"/>
  <outline>
    <contour>
      <point x="500" y="1231" type="move" name="_top"/>
    </contour>
    <contour>
      <point x="500" y="1433" type="curve" smooth="yes"/>
      <point x="640" y="1433"/>
      <point x="726" y="1485"/>
      <point x="726" y="1612" type="curve" smooth="yes"/>
      <point x="726" y="1737"/>
      <point x="640" y="1790"/>
      <point x="500" y="1790" type="curve" smooth="yes"/>
      <point x="361" y="1790"/>
      <point x="275" y="1738"/>
      <point x="275" y="1612" type="curve" smooth="yes"/>
      <point x="275" y="1486"/>
      <point x="361" y="1433"/>
    </contour>
  </outline>
</glyph>
<glyph name="ring" format="1">
  <advance width="913"/>
  <unicode hex="02DA"/>
  <outline>
    <contour>
      <point x="495" y="1174" type="move" name="_top"/>
    </contour>
    <contour>
      <point x="211" y="1588" type="curve" smooth="yes"/>
      <point x="211" y="1417"/>
      <point x="320" y="1312"/>
      <point x="495" y="1312" type="curve" smooth="yes"/>
      <point x="670" y="1312"/>
      <point x="782" y="1417"/>
      <point x="782" y="1588" type="curve" smooth="yes"/>
      <point x="782" y="1760"/>
      <point x="671" y="1870"/>
      <point x="495" y="1870" type="curve" smooth="yes"/>
      <point x="320" y="1870"/>
      <point x="211" y="1760"/>
    </contour>
    <contour>
      <point x="622" y="1587" type="curve" smooth="yes"/>
      <point x="622" y="1497"/>
      <point x="577" y="1449"/>
      <point x="495" y="1449" type="curve" smooth="yes"/>
      <point x="412" y="1449"/>
      <point x="368" y="1499"/>
      <point x="368" y="1588" type="curve" smooth="yes"/>
      <point x="368" y="1681"/>
      <point x="408" y="1731"/>
      <point x="495" y="1731" type="curve" smooth="yes"/>
      <point x="578" y="1731"/>
      <point x="622" y="1684"/>
    </contour>
  </outline>
</glyph>
<glyph name="ogonek" format="1">
  <advance width="852"/>
  <unicode hex="02DB"/>
  <outline>
    <contour>
      <point x="513" y="0" type="move" name="_ogonek"/>
    </contour>
    <contour>
      <point x="456" y="0" type="line"/>
      <point x="286" y="-108"/>
      <point x="237" y="-229"/>
      <point x="237" y="-327" type="curve" smooth="yes"/>
      <point x="237" y="-462"/>
      <point x="364" y="-544"/>
      <point x="518" y="-544" type="curve" smooth="yes"/>
      <point x="584" y="-544"/>
      <point x="648" y="-526"/>
      <point x="696" y="-500" type="curve"/>
      <point x="667" y="-362" type="line"/>
      <point x="641" y="-370"/>
      <point x="613" y="-374"/>
      <point x="587" y="-374" type="curve" smooth="yes"/>
      <point x="513" y="-374"/>
      <point x="447" y="-339"/>
      <point x="447" y="-250" type="curve" smooth="yes"/>
      <point x="447" y="-168"/>
      <point x="493" y="-65"/>
      <point x="584" y="0" type="curve"/>
    </contour>
  </outline>
</glyph>
<glyph name="tilde" format="1">
  <advance width="1185"/>
  <unicode hex="02DC"/>
  <outline>
    <contour>
      <point x="602" y="1174" type="move" name="_top"/>
    </contour>
    <contour>
      <point x="766" y="1328" type="curve" smooth="yes"/>
      <point x="893" y="1328"/>
      <point x="990" y="1438"/>
      <point x="1022" y="1569" type="curve"/>
      <point x="955" y="1646" type="line"/>
      <point x="888" y="1579"/>
      <point x="844" y="1549"/>
      <point x="780" y="1549" type="curve" smooth="yes"/>
      <point x="693" y="1549"/>
      <point x="606" y="1645"/>
      <point x="459" y="1645" type="curve" smooth="yes"/>
      <point x="317" y="1645"/>
      <point x="226" y="1574"/>
      <point x="181" y="1430" type="curve"/>
      <point x="237" y="1357" type="line"/>
      <point x="287" y="1413"/>
      <point x="340" y="1441"/>
      <point x="408" y="1441" type="curve" smooth="yes"/>
      <point x="533" y="1441"/>
      <point x="633" y="1328"/>
    </contour>
  </outline>
</glyph>
<glyph name="hungarumlaut" format="1">
  <advance width="1556"/>
  <unicode hex="02DD"/>
  <outline>
    <contour>
      <point x="715" y="1231" type="move" name="_top"/>
    </contour>
    <contour>
      <point x="344" y="1359" type="curve"/>
      <point x="480" y="1400"/>
      <point x="795" y="1495"/>
      <point x="872" y="1538" type="curve" smooth="yes"/>
      <point x="942" y="1576"/>
      <point x="973" y="1637"/>
      <point x="973" y="1694" type="curve" smooth="yes"/>
      <point x="973" y="1773"/>
      <point x="913" y="1845"/>
      <point x="823" y="1845" type="curve" smooth="yes"/>
      <point x="787" y="1845"/>
      <point x="750" y="1832"/>
      <point x="712" y="1809" type="curve" smooth="yes"/>
      <point x="632" y="1760"/>
      <point x="406" y="1533"/>
      <point x="298" y="1435" type="curve"/>
      <point x="273" y="1413"/>
      <point x="272" y="1384"/>
      <point x="284" y="1371" type="curve"/>
      <point x="295" y="1359"/>
      <point x="322" y="1351"/>
    </contour>
    <contour>
      <point x="950" y="1359" type="curve"/>
      <point x="1086" y="1400"/>
      <point x="1400" y="1495"/>
      <point x="1478" y="1538" type="curve" smooth="yes"/>
      <point x="1548" y="1576"/>
      <point x="1578" y="1637"/>
      <point x="1578" y="1694" type="curve" smooth="yes"/>
      <point x="1578" y="1773"/>
      <point x="1519" y="1845"/>
      <point x="1428" y="1845" type="curve" smooth="yes"/>
      <point x="1392" y="1845"/>
      <point x="1355" y="1832"/>
      <point x="1317" y="1809" type="curve" smooth="yes"/>
      <point x="1238" y="1760"/>
      <point x="1011" y="1533"/>
      <point x="904" y="1435" type="curve"/>
      <point x="878" y="1412"/>
      <point x="877" y="1382"/>
      <point x="890" y="1369" type="curve"/>
      <point x="902" y="1358"/>
      <point x="928" y="1351"/>
    </contour>
  </outline>
</glyph>
<glyph name="uni0307" format="1">
  <advance width="780"/>
  <unicode hex="0307"/>
  <outline>
    <contour>
      <point x="385" y="1231" type="move" name="_top"/>
    </contour>
    <contour>
      <point x="221" y="1498" type="curve"/>
      <point x="221" y="1406"/>
      <point x="288" y="1282"/>
      <point x="355" y="1282" type="curve"/>
      <point x="423" y="1282"/>
      <point x="557" y="1328"/>
      <point x="557" y="1421" type="curve"/>
      <point x="557" y="1513"/>
      <point x="490" y="1637"/>
      <point x="422" y="1637" type="curve"/>
      <point x="355" y="1637"/>
      <point x="221" y="1590"/>
    </contour>
  </outline>
</glyph>
<glyph name="dblgravecmb" format="1">
  <advance width="1374"/>
  <unicode hex="030F"/>
  <outline>
    <contour>
      <point x="963" y="1174" type="move" name="_top"/>
    </contour>
    <contour>
      <point x="754" y="1346" type="curve" smooth="yes"/>
      <point x="767" y="1341"/>
      <point x="789" y="1347"/>
      <point x="795" y="1353" type="curve"/>
      <point x="803" y="1361"/>
      <point x="803" y="1385"/>
      <point x="788" y="1398" type="curve"/>
      <point x="726" y="1455"/>
      <point x="486" y="1697"/>
      <point x="424" y="1739" type="curve" smooth="yes"/>
      <point x="392" y="1761"/>
      <point x="359" y="1775"/>
      <point x="325" y="1775" type="curve" smooth="yes"/>
      <point x="245" y="1775"/>
      <point x="195" y="1713"/>
      <point x="195" y="1645" type="curve" smooth="yes"/>
      <point x="195" y="1596"/>
      <point x="222" y="1543"/>
      <point x="283" y="1512" type="curve" smooth="yes"/>
      <point x="338" y="1482"/>
      <point x="676" y="1369"/>
    </contour>
    <contour>
      <point x="1290" y="1346" type="curve" smooth="yes"/>
      <point x="1303" y="1341"/>
      <point x="1325" y="1347"/>
      <point x="1331" y="1354" type="curve"/>
      <point x="1338" y="1361"/>
      <point x="1338" y="1385"/>
      <point x="1323" y="1398" type="curve"/>
      <point x="1261" y="1455"/>
      <point x="1022" y="1697"/>
      <point x="960" y="1739" type="curve" smooth="yes"/>
      <point x="928" y="1761"/>
      <point x="894" y="1775"/>
      <point x="860" y="1775" type="curve" smooth="yes"/>
      <point x="780" y="1775"/>
      <point x="730" y="1713"/>
      <point x="730" y="1645" type="curve" smooth="yes"/>
      <point x="730" y="1596"/>
      <point x="757" y="1543"/>
      <point x="818" y="1512" type="curve" smooth="yes"/>
      <point x="873" y="1482"/>
      <point x="1211" y="1369"/>
    </contour>
  </outline>
</glyph>
<glyph name="breveinvertedcomb" format="1">
  <advance width="1028"/>
  <unicode hex="0311"/>
  <outline>
    <contour>
      <point x="580" y="1168" type="move" name="_top"/>
    </contour>
    <contour>
      <point x="222" y="1334" type="curve"/>
      <point x="417" y="1334" type="line"/>
      <point x="417" y="1454"/>
      <point x="465" y="1509"/>
      <point x="569" y="1509" type="curve" smooth="yes"/>
      <point x="673" y="1509"/>
      <point x="721" y="1454"/>
      <point x="721" y="1334" type="curve"/>
      <point x="917" y="1334" type="line"/>
      <point x="917" y="1574"/>
      <point x="808" y="1683"/>
      <point x="569" y="1683" type="curve" smooth="yes"/>
      <point x="331" y="1683"/>
      <point x="222" y="1574"/>
    </contour>
  </outline>
</glyph>
<glyph name="commaturnedabovecomb" format="1">
  <advance width="757"/>
  <unicode hex="0312"/>
  <outline>
    <contour>
      <point x="415" y="1174" type="move" name="_top"/>
    </contour>
    <contour>
      <point x="415" y="1318" type="curve" smooth="yes"/>
      <point x="514" y="1318"/>
      <point x="589" y="1405"/>
      <point x="589" y="1491" type="curve" smooth="yes"/>
      <point x="589" y="1608"/>
      <point x="527" y="1669"/>
      <point x="433" y="1676" type="curve"/>
      <point x="435" y="1762"/>
      <point x="493" y="1822"/>
      <point x="571" y="1825" type="curve"/>
      <point x="571" y="1903" type="line"/>
      <point x="381" y="1903"/>
      <point x="229" y="1732"/>
      <point x="229" y="1544" type="curve" smooth="yes"/>
      <point x="229" y="1413"/>
      <point x="295" y="1318"/>
    </contour>
  </outline>
</glyph>
<glyph name="commaaccent" format="1">
  <advance width="839"/>
  <unicode hex="0326"/>
  <outline>
    <contour>
      <point x="466" y="0" type="move" name="_bot"/>
    </contour>
    <contour>
      <point x="297" y="-720" type="line"/>
      <point x="507" y="-720"/>
      <point x="661" y="-557"/>
      <point x="661" y="-356" type="curve" smooth="yes"/>
      <point x="661" y="-226"/>
      <point x="597" y="-140"/>
      <point x="466" y="-140" type="curve" smooth="yes"/>
      <point x="366" y="-140"/>
      <point x="277" y="-197"/>
      <point x="277" y="-314" type="curve" smooth="yes"/>
      <point x="277" y="-429"/>
      <point x="349" y="-483"/>
      <point x="443" y="-491" type="curve"/>
      <point x="439" y="-573"/>
      <point x="376" y="-626"/>
      <point x="297" y="-628" type="curve"/>
    </contour>
  </outline>
</glyph>
<glyph name="Delta" format="1">
  <advance width="1444"/>
  <unicode hex="0394"/>
  <outline>
    <contour>
      <point x="80" y="0" type="line"/>
      <point x="1381" y="0" type="line"/>
      <point x="812" y="1530" type="line"/>
      <point x="626" y="1530" type="line"/>
    </contour>
    <contour>
      <point x="262" y="182" type="line"/>
      <point x="658" y="1327" type="line"/>
      <point x="1056" y="182" type="line"/>
    </contour>
  </outline>
</glyph>
<glyph name="Sigma" format="1">
  <advance width="1279"/>
  <unicode hex="03A3"/>
  <outline>
    <contour>
      <point x="145" y="0" type="line"/>
      <point x="1193" y="0" type="line"/>
      <point x="1193" y="239" type="line"/>
      <point x="518" y="239" type="line"/>
      <point x="954" y="730" type="line"/>
      <point x="954" y="827" type="line"/>
      <point x="519" y="1298" type="line"/>
      <point x="1145" y="1298" type="line"/>
      <point x="1145" y="1530" type="line"/>
      <point x="145" y="1530" type="line"/>
      <point x="145" y="1299" type="line"/>
      <point x="599" y="798" type="line"/>
      <point x="145" y="258" type="line"/>
    </contour>
  </outline>
</glyph>
